<svg id="Capa_1" data-name="Capa 1" xmlns="http://www.w3.org/2000/svg" viewBox="0 0 800 800"><defs><style>.cls-1{fill:#929ca8;}.cls-2{fill:#e55a5a;}.cls-3{fill:#c4cbd3;}.cls-4{fill:#fff;}.cls-5{fill:#dfe2e6;}.cls-6{fill:#192e3c;}</style></defs><title>Alarma - Ilu</title><g id="alarma"><g id="fill"><path class="cls-1" d="M382.3,294.53l-4.61-13.73A25.84,25.84,0,0,0,345,264.53h0a25.85,25.85,0,0,0-16.27,32.72l4.92,14.63Z"/><path class="cls-2" d="M429.88,510.12a44.13,44.13,0,0,0,76.63-42.94Z"/><path class="cls-3" d="M428.53,510.32c-66.24,22.24-129.45,8-132.11,7.37a23.17,23.17,0,0,1,10.44-45.14c1.11.24,53.79,11.69,106.93-6.15,53.93-18.11,88.6-59.17,88.94-59.58a23.17,23.17,0,0,1,35.6,29.66C536.58,438.58,494.78,488.09,428.53,510.32Z"/><path class="cls-1" d="M320.11,502.47c-2.74-23.18,24.53-26.12,24.53-26.12h0c-22-.38-37.19-3.67-37.78-3.8a23.17,23.17,0,0,0-10.44,45.14c1.38.32,19.26,4.34,45.43,5C334.09,521.85,322,518.06,320.11,502.47Z"/><path class="cls-4" d="M500.44,409.39c-13.52-10.68-32.62-30.06-53.4-64.45-39.84-65.89-83.91-49.52-90-47.49S306,313,314,389.61c4.17,39.95.63,66.93-3.7,83.6,0,0,51.13,10.77,103.5-6.81S500.44,409.39,500.44,409.39Z"/><path class="cls-5" d="M398.93,464.93a38.22,38.22,0,0,1-24.73-29.47c-2.16-12.6-6.63-33-15.84-62.21-17-53.68,42.29-73.75,42.29-73.75-22.23-9.79-39.9-3.28-43.58-2.05C351,299.49,306,313,314,389.61c4.17,39.95.63,66.93-3.7,83.6,0,0,48.21,10.15,98.94-5.35A82.65,82.65,0,0,1,398.93,464.93Z"/></g><g id="stroke"><path class="cls-6" d="M539.81,437.71a25.13,25.13,0,0,0-3.22-35.34,24.43,24.43,0,0,0-18.34-5.71c-11.13,1.22-17.36,9.35-18,10.09-12.51-10.17-31.19-29.1-51.55-62.8-22.32-36.93-46.23-48.72-64.92-51.1l-4.25-12.66a27.76,27.76,0,1,0-52.64,17.67l4.54,13.55a64.86,64.86,0,0,0-9.6,13.12,1.93,1.93,0,0,0,3.37,1.87,57,57,0,0,1,32.14-27l.71-.24c44.22-15,75.82,27.71,87.35,46.78,20.55,34,39.47,53.25,52.23,63.65a218.07,218.07,0,0,1-22.05,20.15,1.93,1.93,0,0,0,2.41,3c16.64-13.31,26.13-24.58,26.23-24.7a21.24,21.24,0,0,1,32.64,27.19c-1.74,2.08-43.15,51.17-108.93,73.26s-128.43,7.92-131.07,7.31a21.24,21.24,0,0,1,9.59-41.38c.54.11,54.38,11.78,108-6.2a199.77,199.77,0,0,0,45.45-22.33,1.93,1.93,0,0,0-2.1-3.23,195.85,195.85,0,0,1-44.58,21.9C370.36,479,327.41,474,312.66,471.65c3.89-16,7.37-42.75,3.24-82.24-1.81-17.34-1-32.73,2.45-45.73a1.92,1.92,0,1,0-3.72-1c-3.56,13.45-4.42,29.3-2.56,47.11,4.09,39.16.63,65.52-3.22,81.17-1-.18-25.21-5.33-31.63,18.46a24,24,0,0,0,3.14,18.95A24.88,24.88,0,0,0,296,519.56a216.39,216.39,0,0,0,28.66,4.11c25.32,2.14,64.35,2,104.5-11.52,31.51-10.57,57.5-27.25,76.38-42.16a42.17,42.17,0,0,1-65,48.5,1.93,1.93,0,1,0-2.33,3.07,46.05,46.05,0,0,0,70.48-54.11C527.9,451.85,538.92,438.77,539.81,437.71Zm-183-142.2-.69.23a59.34,59.34,0,0,0-21.63,12.66l-4-11.77a23.91,23.91,0,0,1,45.34-15.22l3.71,11.06A60.55,60.55,0,0,0,356.8,295.51Z"/><path class="cls-6" d="M460.87,285.46a2,2,0,0,0,.59.15,1.93,1.93,0,0,0,1.94-1.17l23.66-55.62a1.94,1.94,0,0,0-1-2.53,1.92,1.92,0,0,0-2.53,1l-23.66,55.62A1.94,1.94,0,0,0,460.87,285.46Z"/><path class="cls-6" d="M484.76,317.47a2,2,0,0,0,.64-.05l47.85-12.08a1.93,1.93,0,1,0-.94-3.74l-47.86,12.08a1.93,1.93,0,0,0,.31,3.79Z"/></g></g></svg>