<svg id="Capa_1" data-name="Capa 1" xmlns="http://www.w3.org/2000/svg" viewBox="0 0 800 800"><defs><style>.cls-1{fill:#a5db6d;}.cls-2{fill:#192e3c;}</style></defs><title>Alarma - Fondo</title><path class="cls-1" d="M340.5,508.48a60.41,60.41,0,0,1,43.66-43.55A32.42,32.42,0,0,0,407.9,438.6,96.68,96.68,0,0,1,439,382.34c36.5-32.63,92.5-32.63,129,0A96.61,96.61,0,0,1,599.1,438.6a32.45,32.45,0,0,0,23.77,26.34A60.43,60.43,0,0,1,623.16,582L384,582A60.42,60.42,0,0,1,340.5,508.48Z"/><path class="cls-2" d="M569.32,383.51a1.75,1.75,0,0,0-.14-2.48,97.69,97.69,0,0,0-53-24.11,1.75,1.75,0,1,0-.44,3.48,94.34,94.34,0,0,1,51.07,23.25A2,2,0,0,0,569.32,383.51Z"/><path class="cls-2" d="M594.17,420.29a1.75,1.75,0,0,0,1-2.29,99,99,0,0,0-8.63-16.72,1.76,1.76,0,0,0-3,1.91,94.59,94.59,0,0,1,8.33,16.12A1.7,1.7,0,0,0,594.17,420.29Z"/><rect class="cls-1" x="175.15" y="179.24" width="197.2" height="197.2" rx="34.3" ry="34.3"/></svg>