<svg id="Capa_1" data-name="Capa 1" xmlns="http://www.w3.org/2000/svg" xmlns:xlink="http://www.w3.org/1999/xlink" viewBox="0 0 800 800"><defs><style>.cls-1{fill:none;}.cls-2{clip-path:url(#clip-path);}.cls-3{fill:#929ca7;}.cls-4{fill:#dee1e5;}.cls-5{fill:#c4cbd4;}.cls-6{fill:#96be78;}.cls-7{fill:#aab4bd;}.cls-8{fill:#68727f;}.cls-9{fill:#49505c;}.cls-10{fill:#ca5456;}.cls-11{fill:#192e3c;}</style><clipPath id="clip-path"><rect class="cls-1" x="273.99" y="214.43" width="252.02" height="371.14" transform="translate(-59.69 70.33) rotate(-9.35)"/></clipPath></defs><title>Dispositivo - Ilu</title><g class="cls-2"><path class="cls-3" d="M473.58,574.09,339.45,596.18a32.55,32.55,0,0,1-37.4-26.82L258.29,303.67a65.66,65.66,0,0,1,54.11-75.45l68.79-11.33"/><path class="cls-4" d="M509.67,376.85,535.06,531a32.55,32.55,0,0,1-26.82,37.4L374.11,590.47a32.55,32.55,0,0,1-37.4-26.82L293,298a65.64,65.64,0,0,1,54.1-75.44l68.8-11.34a65.65,65.65,0,0,1,75.44,54.11l4.55,27.6"/><path class="cls-5" d="M371.1,558,327.34,292.3a65.64,65.64,0,0,1,54.1-75.45l-34.38,5.66A65.65,65.65,0,0,0,293,298l43.76,265.69a32.55,32.55,0,0,0,37.4,26.82l34.39-5.67A32.53,32.53,0,0,1,371.1,558"/><path class="cls-3" d="M347.32,269.25a13.75,13.75,0,1,1-15.8-11.33,13.75,13.75,0,0,1,15.8,11.33"/><path class="cls-3" d="M489.05,255.75a13.75,13.75,0,1,1-13.41-21.57A12.42,12.42,0,0,1,477,234"/><path class="cls-6" d="M492.71,540.42l-44.08,7.27A12.51,12.51,0,0,1,444.56,523l44.09-7.26a12.51,12.51,0,0,1,4.06,24.68"/><path class="cls-7" d="M452.62,276.07,422.77,281c-28.39,4.68-46.59,37.71-40.65,73.77s33.77,61.5,62.17,56.83l29.84-4.92"/><path class="cls-8" d="M514.79,332.89c5.94,36.07-12.26,69.09-40.66,73.77S417.9,385.9,412,349.83s12.26-69.09,40.66-73.76,56.23,20.76,62.17,56.82"/><path class="cls-9" d="M450.69,343.45c-4.51-27.36,4.89-53,22.08-65.77a42.53,42.53,0,0,0-20.15-1.61c-28.4,4.67-46.6,37.7-40.66,73.76s33.78,61.51,62.17,56.83a42.58,42.58,0,0,0,18.57-8c-20.39-6.62-37.51-27.86-42-55.22"/><path class="cls-10" d="M442.17,398.7A53.13,53.13,0,0,0,424.9,293.86s-18.88,19.9-12.94,56,30.21,48.87,30.21,48.87"/><path class="cls-8" d="M521.2,446.84l-139.74,23a11.65,11.65,0,0,1-3.78-23l139.73-23Z"/><path class="cls-8" d="M528.19,489.26l-139.74,23a11.65,11.65,0,0,1-3.79-23l139.74-23Z"/><path class="cls-11" d="M260.1,303.37A63.88,63.88,0,0,1,312.7,230l13-2.15a67.6,67.6,0,0,0-34.59,70.37l31.94,193.89a1.84,1.84,0,0,0,3.63-.6L294.76,297.66a63.88,63.88,0,0,1,52.59-73.33l34.14-5.62L416.14,213a63.81,63.81,0,0,1,57.34,19.8,15.58,15.58,0,0,0,6.93,30.32,15.42,15.42,0,0,0,7.74-3.67,61.37,61.37,0,0,1,1.33,6.14l3.64,22.09c-11.63-10.53-26.15-15.84-40.8-13.43l-29.84,4.92C393.12,284,374.21,318,380.3,355.05A79.54,79.54,0,0,0,397.91,394a1.85,1.85,0,0,0,1.7.62,1.84,1.84,0,0,0,1.09-3,75.88,75.88,0,0,1-16.77-37.13c-5.77-35,11.8-67.15,39.14-71.66l12.62-2.07c-19.43,12.49-30.39,40-25.54,69.41s24,51.95,46.46,57.55L444,409.76c-9.61,1.59-19.52-.41-28.65-5.76a1.84,1.84,0,0,0-1.86,3.17c9.88,5.79,20.64,7.95,31.11,6.22l29.84-4.91c14.65-2.42,26.7-12.11,34.34-25.81l6.53,39.67L377.38,445.06a13.48,13.48,0,1,0,4.38,26.61L519.69,449l2.6,15.81L384.37,487.48a13.48,13.48,0,1,0,4.38,26.61L504.67,495a1.84,1.84,0,1,0-.59-3.63l-115.93,19.1A9.81,9.81,0,0,1,385,491.11l137.93-22.72,10.36,62.88a30.75,30.75,0,0,1-25.31,35.29l-34.66,5.71-99.46,16.39a30.74,30.74,0,0,1-35.29-25.31l-6.21-37.67a1.84,1.84,0,0,0-3.63.6L334.9,564a34.4,34.4,0,0,0,23.74,27.21l-19.48,3.21a30.75,30.75,0,0,1-35.29-25.31ZM476.2,236a63.55,63.55,0,0,1,10.74,19.5,11.76,11.76,0,0,1-7.12,4,11.91,11.91,0,1,1-3.88-23.5l.26,0M441.87,396.89l-.05,0c-13.87-9.63-24.64-26.73-28.05-47.38s1.32-40.29,11.37-53.86h.06a51.29,51.29,0,0,1,16.67,101.22M513,333.19c5.76,35-11.8,67.15-39.15,71.66a42.3,42.3,0,0,1-27.49-5.13,54.95,54.95,0,0,0-17.82-108.16,42.2,42.2,0,0,1,24.4-13.68c27.35-4.51,54.29,20.31,60.06,55.31m6.11,112.13L381.16,468A9.8,9.8,0,1,1,378,448.69L515.9,426ZM339.75,598l34.66-5.71,99.47-16.38,34.65-5.71a34.42,34.42,0,0,0,28.34-39.51l-13.56-82.33-4.38-26.61L511.56,377c5.61-12.81,7.69-28.33,5-44.42s-9.6-30.13-19-40.47L493.11,265a67.56,67.56,0,0,0-77.56-55.62l-34.66,5.71-34.13,5.62-34.66,5.71A67.56,67.56,0,0,0,256.48,304l43.76,265.69A34.41,34.41,0,0,0,339.75,598"/><path class="cls-11" d="M444.86,524.81,489,517.55a10.67,10.67,0,0,1,3.47,21.06l-44.09,7.26a10.67,10.67,0,1,1-3.47-21.06m4.06,24.69L493,542.24a14.35,14.35,0,0,0-4.66-28.32l-44.09,7.27a14.35,14.35,0,1,0,4.66,28.31"/><path class="cls-11" d="M331.82,259.73A11.91,11.91,0,1,1,322,273.42a11.93,11.93,0,0,1,9.82-13.69m4.47,27.13A15.59,15.59,0,1,0,318.38,274a15.61,15.61,0,0,0,17.91,12.84"/></g></svg>