<svg id="Capa_1" data-name="Capa 1" xmlns="http://www.w3.org/2000/svg" viewBox="0 0 800 800"><defs><style>.cls-1{fill:#a5db6d;}.cls-2{fill:#192e3c;}</style></defs><title>Dispositivo - Fondo</title><rect class="cls-1" x="459.49" y="540.14" width="79.89" height="79.89" rx="20.65" ry="20.65"/><rect class="cls-1" x="161.15" y="352.24" width="197.2" height="197.2" rx="34.3" ry="34.3"/><rect class="cls-1" x="365.15" y="154.67" width="269.18" height="269.18" rx="46.82" ry="46.82"/><path class="cls-2" d="M634.33,247.49a2,2,0,0,1-2-2v-44a44.86,44.86,0,0,0-44.81-44.81H533a2,2,0,0,1,0-4h54.55a48.86,48.86,0,0,1,48.81,48.81v44A2,2,0,0,1,634.33,247.49Z"/><path class="cls-2" d="M634.33,303.6a2,2,0,0,1-2-2V279.1a2,2,0,0,1,4,0v22.5A2,2,0,0,1,634.33,303.6Z"/></svg>