<?xml version="1.0" encoding="UTF-8"?>
<svg width="167px" height="36px" viewBox="0 0 167 36" version="1.1" xmlns="http://www.w3.org/2000/svg" xmlns:xlink="http://www.w3.org/1999/xlink">
    <!-- Generator: Sketch 57.1 (83088) - https://sketch.com -->
    <title>Logo horizontal</title>
    <desc>Created with Sketch.</desc>
    <g id="Landing" stroke="none" stroke-width="1" fill="none" fill-rule="evenodd">
        <g id="Desktop" transform="translate(-36.000000, -18.000000)">
            <g id="Logo-horizontal" transform="translate(36.000000, 18.000000)">
                <g id="logotipo" transform="translate(44.000000, 6.000000)" fill="#002A3A">
                    <path d="M9.22644996,14.5794842 C9.82159141,13.9618371 10.119458,13.1351313 10.119458,12.0981998 C10.119458,11.0612683 9.82159141,10.2341735 9.22644996,9.61633191 C8.63091399,8.99926823 7.86928285,8.69044468 6.9413593,8.69044468 C6.01343574,8.69044468 5.25141008,8.99926823 4.65626864,9.61633191 C4.06073266,10.2341735 3.76326057,11.0612683 3.76326057,12.0981998 C3.76326057,13.1351313 4.06073266,13.9618371 4.65626864,14.5794842 C5.25141008,15.1971313 6.01343574,15.5059549 6.9413593,15.5059549 C7.86928285,15.5059549 8.63091399,15.1971313 9.22644996,14.5794842 M10.734523,6.55182213 C11.6855263,7.07787232 12.4315737,7.81764864 12.9730597,8.77017872 C13.5141512,9.72348668 13.7849928,10.8325677 13.7849928,12.0981998 C13.7849928,13.3636373 13.5141512,14.4733018 12.9730597,15.4258319 C12.4315737,16.3789454 11.6855263,17.1181383 10.734523,17.6441885 C9.78312519,18.1704331 8.72776995,18.433361 7.56766825,18.433361 C5.97477226,18.433361 4.7219571,17.9380376 3.8096173,16.9466129 L3.8096173,22.6870748 L0.190636524,22.6870748 L0.190636524,5.94564895 L3.64707286,5.94564895 L3.64707286,7.36374803 C4.54382892,6.29686767 5.85108857,5.76303855 7.56766825,5.76303855 C8.72776995,5.76303855 9.78312519,6.02596641 10.734523,6.55182213" id="Fill-11"></path>
                    <path d="M24.3715635,14.5453833 C24.9745955,13.9301252 25.2760128,13.1066169 25.2760128,12.0736961 C25.2760128,11.0407754 24.9745955,10.2168797 24.3715635,9.60142784 C23.7683343,8.98675088 23.0104512,8.67912182 22.0979141,8.67912182 C21.1699906,8.67912182 20.4044142,8.98675088 19.8013822,9.60142784 C19.1979557,10.2168797 18.8963411,11.0407754 18.8963411,12.0736961 C18.8963411,13.1066169 19.1979557,13.9301252 19.8013822,14.5453833 C20.4044142,15.1606414 21.1699906,15.4682705 22.0979141,15.4682705 C23.0104512,15.4682705 23.7683343,15.1606414 24.3715635,14.5453833 L24.3715635,14.5453833 Z M28.8255572,5.94494263 L28.8255572,18.2020622 L25.3691208,18.2020622 L25.3691208,16.7894482 C24.4715757,17.8527831 23.1727984,18.3843537 21.4716052,18.3843537 C20.296117,18.3843537 19.2328712,18.1261236 18.2816707,17.6094695 C17.3304701,17.0935902 16.5842255,16.3566753 16.0429367,15.3998869 C15.5014507,14.4429048 15.2312009,13.3342392 15.2312009,12.0736961 C15.2312009,10.8129594 15.5014507,9.70429373 16.0429367,8.74711792 C16.5842255,7.79032955 17.3304701,7.05399576 18.2816707,6.53734167 C19.2328712,6.02146246 20.296117,5.76303855 21.4716052,5.76303855 C23.0643039,5.76303855 24.3096231,6.25683356 25.2067736,7.24364869 L25.2067736,5.94494263 L28.8255572,5.94494263 Z" id="Fill-13"></path>
                    <path d="M43.0214839,7.14996602 C43.9700344,8.0747809 44.4446048,9.44657325 44.4446048,11.2647534 L44.4446048,18.3843537 L40.8347613,18.3843537 L40.8347613,11.8194458 C40.8347613,10.8335007 40.6187255,10.0971869 40.1870475,9.61188022 C39.7547792,9.12637698 39.1302824,8.88382192 38.31277,8.88382192 C37.4019963,8.88382192 36.6773518,9.16490275 36.1376559,9.72745751 C35.5973697,10.2904054 35.3278169,11.125982 35.3278169,12.2355633 L35.3278169,18.3843537 L31.7179734,18.3843537 L31.7179734,5.94780496 L35.1658884,5.94780496 L35.1658884,7.40411812 C35.6438036,6.8806788 36.2376068,6.47596173 36.9472981,6.19075314 C37.6567926,5.90554456 38.4361347,5.76303855 39.2845375,5.76303855 C40.8266944,5.76303855 42.07254,6.22554427 43.0214839,7.14996602" id="Fill-15"></path>
                    <path d="M56.6044055,14.5453833 C57.2074756,13.9301252 57.5089108,13.1066169 57.5089108,12.0736961 C57.5089108,11.0407754 57.2074756,10.2168797 56.6044055,9.60142784 C56.0013353,8.98675088 55.2302685,8.67912182 54.2904059,8.67912182 C53.3509429,8.67912182 52.5756811,8.98675088 51.9650201,9.60142784 C51.3541594,10.2168797 51.048729,11.0407754 51.048729,12.0736961 C51.048729,13.1066169 51.3541594,13.9301252 51.9650201,14.5453833 C52.5756811,15.1606414 53.3509429,15.4682705 54.2904059,15.4682705 C55.2302685,15.4682705 56.0013353,15.1606414 56.6044055,14.5453833 M50.7079415,17.5753746 C49.6510206,17.0364425 48.8246207,16.2884855 48.2295409,15.3313097 C47.6342613,14.3745213 47.337021,13.2889084 47.337021,12.0736961 C47.337021,10.8586776 47.6342613,9.77248355 48.2295409,8.81569518 C48.8246207,7.85890681 49.6510206,7.11075604 50.7079415,6.5716303 C51.7652619,6.032892 52.9590172,5.76303855 54.2904059,5.76303855 C55.6217947,5.76303855 56.8121541,6.032892 57.8614842,6.5716303 C58.9106145,7.11075604 59.7326197,7.85890681 60.3282988,8.81569518 C60.9229791,9.77248355 61.2206189,10.8586776 61.2206189,12.0736961 C61.2206189,13.2889084 60.9229791,14.3745213 60.3282988,15.3313097 C59.7326197,16.2884855 58.9106145,17.0364425 57.8614842,17.5753746 C56.8121541,18.1148877 55.6217947,18.3843537 54.2904059,18.3843537 C52.9590172,18.3843537 51.7652619,18.1148877 50.7079415,17.5753746" id="Fill-17"></path>
                    <path d="M72.8596069,14.5794842 C73.4547484,13.9618371 73.7528123,13.1351313 73.7528123,12.0981998 C73.7528123,11.0612683 73.4547484,10.2341735 72.8596069,9.61633191 C72.264071,8.99926823 71.5026371,8.69044468 70.5745163,8.69044468 C69.6465927,8.69044468 68.8845671,8.99926823 68.2894256,9.61633191 C67.6938896,10.2341735 67.3966148,11.0612683 67.3966148,12.0981998 C67.3966148,13.1351313 67.6938896,13.9618371 68.2894256,14.5794842 C68.8845671,15.1971313 69.6465927,15.5059549 70.5745163,15.5059549 C71.5026371,15.5059549 72.264071,15.1971313 72.8596069,14.5794842 M74.36768,6.55182213 C75.3186833,7.07787232 76.0647306,7.81764864 76.6062166,8.77017872 C77.1475054,9.72348668 77.4181498,10.8325677 77.4181498,12.0981998 C77.4181498,13.3636373 77.1475054,14.4733018 76.6062166,15.4258319 C76.0647306,16.3789454 75.3186833,17.1181383 74.36768,17.6441885 C73.4162822,18.1704331 72.3609269,18.433361 71.2010225,18.433361 C69.6079292,18.433361 68.3549168,17.9380376 67.4427743,16.9466129 L67.4427743,22.6870748 L63.8237935,22.6870748 L63.8237935,5.94564895 L67.2802298,5.94564895 L67.2802298,7.36374803 C68.1769859,6.29686767 69.4842455,5.76303855 71.2010225,5.76303855 C72.3609269,5.76303855 73.4162822,6.02596641 74.36768,6.55182213" id="Fill-19"></path>
                    <path d="M87.2523649,17.606779 C86.899592,17.8661001 86.4664478,18.0606882 85.9529324,18.18996 C85.4392215,18.3190375 84.9063466,18.3843537 84.3545034,18.3843537 C82.867538,18.3843537 81.724937,18.0111178 80.9282646,17.2640629 C80.13081,16.5173967 79.7320827,15.4198499 79.7320827,13.9720056 L79.7320827,3.1814059 L83.3198461,3.1814059 L83.3198461,6.17642958 L86.3784501,6.17642958 L86.3784501,8.91971343 L83.3198461,8.91971343 L83.3198461,13.9261287 C83.3198461,14.4443823 83.4498872,14.8446389 83.7107514,15.1265098 C83.9714201,15.4087694 84.3468769,15.5493161 84.8375129,15.5493161 C85.3895517,15.5493161 85.8797966,15.3973002 86.3096164,15.0921021 L87.2523649,17.606779 Z" id="Fill-21"></path>
                    <path d="M89.1517444,18.0975057 L92.8730647,18.0975057 L92.8730647,5.74353165 L89.1517444,5.74353165 L89.1517444,18.0975057 Z M89.3424253,3.44772431 C88.9129876,3.06502467 88.698573,2.59035996 88.698573,2.02392543 C88.698573,1.45749091 88.9129876,0.983216713 89.3424253,0.600321816 C89.7718631,0.217622174 90.3282862,0.0260770975 91.012506,0.0260770975 C91.6961173,0.0260770975 92.2527433,0.210007232 92.682181,0.577086481 C93.1118216,0.944556239 93.326439,1.40379581 93.326439,1.95500045 C93.326439,2.55208999 93.1118216,3.04588968 92.682181,3.43620427 C92.2527433,3.82651885 91.6961173,4.02177377 91.012506,4.02177377 C90.3282862,4.02177377 89.7718631,3.8302287 89.3424253,3.44772431 L89.3424253,3.44772431 Z" id="Fill-23"></path>
                    <path d="M98.7738229,17.5753746 C97.6994683,17.0366363 96.8605476,16.2884855 96.2568607,15.3313097 C95.6531738,14.3745213 95.3511304,13.2891021 95.3511304,12.0736961 C95.3511304,10.8588713 95.6531738,9.77267727 96.2568607,8.8158889 C96.8605476,7.85890681 97.6994683,7.11075604 98.7738229,6.57182402 C99.8479775,6.032892 101.059552,5.76303855 102.408346,5.76303855 C103.741138,5.76303855 104.905505,6.032892 105.901649,6.57182402 C106.897592,7.11075604 107.622896,7.8817659 108.077762,8.883885 L105.231352,10.3650763 C104.572457,9.24110665 103.623521,8.67912182 102.384743,8.67912182 C101.428205,8.67912182 100.636091,8.98287646 100.009001,9.59019202 C99.3817104,10.197895 99.0678652,11.0254714 99.0678652,12.0736961 C99.0678652,13.1215334 99.3817104,13.949691 100.009001,14.5568128 C100.636091,15.1645158 101.428205,15.4684642 102.384743,15.4684642 C103.639323,15.4684642 104.58826,14.9064794 105.231352,13.7825097 L108.077762,15.2859789 C107.622896,16.2580713 106.897592,17.0172641 105.901649,17.5643324 C104.905505,18.1110133 103.741138,18.3843537 102.408346,18.3843537 C101.059552,18.3843537 99.8479775,18.1148877 98.7738229,17.5753746" id="Fill-25"></path>
                    <path d="M118.213004,14.5453833 C118.815657,13.9301252 119.117483,13.1066169 119.117483,12.0736961 C119.117483,11.0407754 118.815657,10.2168797 118.213004,9.60142784 C117.609951,8.98675088 116.838507,8.67912182 115.899071,8.67912182 C114.959235,8.67912182 114.184395,8.98675088 113.573353,9.60142784 C112.962509,10.2168797 112.657088,11.0407754 112.657088,12.0736961 C112.657088,13.1066169 112.962509,13.9301252 113.573353,14.5453833 C114.184395,15.1606414 114.959235,15.4682705 115.899071,15.4682705 C116.838507,15.4682705 117.609951,15.1606414 118.213004,14.5453833 M112.31671,17.5753746 C111.25942,17.0364425 110.433043,16.2884855 109.83838,15.3313097 C109.242718,14.3745213 108.945487,13.2889084 108.945487,12.0736961 C108.945487,10.8586776 109.242718,9.77248355 109.83838,8.81569518 C110.433043,7.85890681 111.25942,7.11075604 112.31671,6.5716303 C113.3736,6.032892 114.567721,5.76303855 115.899071,5.76303855 C117.230022,5.76303855 118.420347,6.032892 119.469847,6.5716303 C120.518747,7.11075604 121.341128,7.85890681 121.936391,8.81569518 C122.531453,9.77248355 122.829084,10.8586776 122.829084,12.0736961 C122.829084,13.2889084 122.531453,14.3745213 121.936391,15.3313097 C121.341128,16.2884855 120.518747,17.0364425 119.469847,17.5753746 C118.420347,18.1148877 117.230022,18.3843537 115.899071,18.3843537 C114.567721,18.3843537 113.3736,18.1148877 112.31671,17.5753746" id="Fill-26"></path>
                </g>
                <g id="imagotipo">
                    <path d="M20.7944836,0.384183474 L9.93511484,6.67193364 C9.05018864,7.18417827 8.50514976,8.13109304 8.50514976,9.1557931 L8.50514976,21.7310826 C8.50514976,22.7557827 9.05018864,23.7026975 9.93511484,24.2149421 L20.7944836,30.5026923 C21.6794098,31.0151477 22.7694875,31.0151477 23.6542036,30.5026923 L34.5137825,24.2149421 C35.3987087,23.7026975 35.9435374,22.7557827 35.9435374,21.7310826 L35.9435374,9.1557931 C35.9435374,8.13109304 35.3987087,7.18417827 34.5137825,6.67193364 L23.6542036,0.384183474 C22.7694875,-0.128061158 21.6794098,-0.128061158 20.7944836,0.384183474" id="Fill-2" fill="#8BE37B"></path>
                    <path d="M12.2893338,5.30906779 L1.42996508,11.596818 C0.545038871,12.1090626 8.52651283e-14,13.0559774 8.52651283e-14,14.0806774 L8.52651283e-14,26.6559669 C8.52651283e-14,27.680667 0.545038871,28.6275818 1.42996508,29.1398264 L12.2893338,35.4275766 C13.17426,35.9398212 14.2643378,35.9398212 15.149264,35.4275766 L26.0088429,29.1398264 C26.893559,28.6275818 27.4385978,27.680667 27.4385978,26.6559669 L27.4385978,14.0806774 C27.4385978,13.0559774 26.893559,12.1090626 26.0088429,11.596818 L15.149264,5.30906779 C14.2643378,4.79661236 13.17426,4.79661236 12.2893338,5.30906779" id="Fill-4" fill="#FF595A"></path>
                    <path d="M27.4386609,26.6552713 L27.4386609,14.0799818 C27.4386609,13.0552817 26.8934118,12.1083669 26.0086958,11.5961223 L15.149327,5.30837215 C14.2828981,4.80666753 13.2203561,4.79760312 12.3459397,5.27801692 L9.87361142,6.70956148 C9.02546956,7.22981653 8.50523384,8.15480807 8.50523384,9.1550553 L8.50523384,21.7303448 C8.50523384,22.7552557 9.05027271,23.7019597 9.93519892,24.2142043 L20.7945677,30.5019545 C21.6607864,31.0036591 22.7233285,31.0127235 23.5981652,30.5323097 L26.0700731,29.1007651 C26.9180048,28.5807209 27.4386609,27.6557293 27.4386609,26.6552713" id="Fill-6" fill="#002A3A"></path>
                    <path d="M17.9718212,15.4851342 C16.641279,15.4851342 15.5589785,16.5707555 15.5589785,17.9051211 C15.5589785,19.2396976 16.641279,20.3251081 17.9718212,20.3251081 C19.3025737,20.3251081 20.3848742,19.2396976 20.3848742,17.9051211 C20.3848742,16.5707555 19.3025737,15.4851342 17.9718212,15.4851342 M17.9718212,22.0989923 C15.6659684,22.0989923 13.7899669,20.2176 13.7899669,17.9051211 C13.7899669,15.5926423 15.6659684,13.71125 17.9718212,13.71125 C20.2776741,13.71125 22.1536756,15.5926423 22.1536756,17.9051211 C22.1536756,20.2176 20.2776741,22.0989923 17.9718212,22.0989923" id="Fill-8" fill="#FFFFFF"></path>
                </g>
            </g>
        </g>
    </g>
</svg>