<svg id="Capa_1" data-name="Capa 1" xmlns="http://www.w3.org/2000/svg" viewBox="0 0 800 800"><defs><style>.cls-1{fill:#fff;}.cls-2{fill:#dee1e5;}.cls-3{fill:none;stroke:#192e3c;stroke-linecap:round;stroke-miterlimit:10;stroke-width:4px;}.cls-4{fill:#192e3c;}</style></defs><title>Nube - Ilu</title><path class="cls-1" d="M576,387.59a65.65,65.65,0,0,0-70.71-13,91.74,91.74,0,0,0,1.57-35.36c-6.74-45.27-46.75-78.91-92.51-77.9a91.6,91.6,0,0,0-89.54,96.53c0,.09,0,.19,0,.28a22.29,22.29,0,0,1-20.1,23.55,65.46,65.46,0,0,0-43.49,22.92c-23.07,27.25-19.81,68.69,7.17,92.06A65.46,65.46,0,0,0,315,512.6l219.33-11.87a65.46,65.46,0,0,0,44.53-20.85C603.12,453.73,601.88,412.18,576,387.59Z"/><path class="cls-2" d="M375.55,387.84C359,303.74,423,261.63,423.06,261.57a86.67,86.67,0,0,0-8.7-.23,91.6,91.6,0,0,0-89.54,96.53c0,.09,0,.19,0,.28a22.29,22.29,0,0,1-20.1,23.55A65.67,65.67,0,0,0,315,512.6l26.8-1.45c-22.63-42.65-4.78-66.25,14.48-78.6A43.15,43.15,0,0,0,375.55,387.84Z"/><path class="cls-3" d="M576,387.59a65.65,65.65,0,0,0-70.71-13,91.74,91.74,0,0,0,1.57-35.36c-6.74-45.27-46.75-78.91-92.51-77.9a91.6,91.6,0,0,0-89.54,96.53c0,.09,0,.19,0,.28a22.29,22.29,0,0,1-20.1,23.55,65.46,65.46,0,0,0-43.49,22.92c-23.07,27.25-19.81,68.69,7.17,92.06A65.46,65.46,0,0,0,315,512.6l219.33-11.87a65.46,65.46,0,0,0,44.53-20.85C603.12,453.73,601.88,412.18,576,387.59Z"/><path class="cls-3" d="M465.2,439.45a65.67,65.67,0,1,1,69.08,61.28"/><path class="cls-4" d="M361.5,304.57a2,2,0,0,0-2.74.73,52.91,52.91,0,0,0-3.82,8.09,2,2,0,0,0,1.17,2.57,1.9,1.9,0,0,0,.81.12,2,2,0,0,0,1.77-1.29,48.77,48.77,0,0,1,3.53-7.49A2,2,0,0,0,361.5,304.57Z"/><path class="cls-4" d="M372.66,294.17a2,2,0,0,0,1.15-.45,49.65,49.65,0,0,1,28.85-11.07,2,2,0,0,0-.22-4,53.68,53.68,0,0,0-31.15,12,2,2,0,0,0,1.37,3.55Z"/></svg>