<svg id="Capa_1" data-name="Capa 1" xmlns="http://www.w3.org/2000/svg" viewBox="0 0 800 800"><defs><style>.cls-1{fill:#a5db6d;}.cls-2{fill:#192e3c;}</style></defs><title>Video - Fondo</title><rect class="cls-1" x="152.49" y="519.14" width="79.89" height="79.89" rx="20.65" ry="20.65"/><path class="cls-1" d="M476.73,321.34A68.71,68.71,0,0,0,427,271.79a36.88,36.88,0,0,1-27-30,110,110,0,0,0-35.38-64c-41.54-37.14-105.27-37.14-146.8,0a109.93,109.93,0,0,0-35.39,64,36.92,36.92,0,0,1-27,30,68.76,68.76,0,0,0-.33,133.2l272.14.05A68.76,68.76,0,0,0,476.73,321.34Z"/><path class="cls-2" d="M216.35,179.14a2,2,0,0,1,.16-2.82,111.21,111.21,0,0,1,60.27-27.44,2,2,0,1,1,.51,4,107.23,107.23,0,0,0-58.11,26.45A2.25,2.25,0,0,1,216.35,179.14Z"/><path class="cls-2" d="M188.08,221a2,2,0,0,1-1.12-2.6,111.63,111.63,0,0,1,9.83-19,2,2,0,0,1,3.36,2.17,107.16,107.16,0,0,0-9.47,18.34A1.94,1.94,0,0,1,188.08,221Z"/><rect class="cls-1" x="469.15" y="441.24" width="197.2" height="197.2" rx="34.3" ry="34.3"/></svg>