<svg id="Capa_1" data-name="Capa 1" xmlns="http://www.w3.org/2000/svg" viewBox="0 0 800 800"><defs><style>.cls-1{fill:#192e3c;}.cls-2{fill:#c4cbd3;}.cls-3{fill:#fff;}.cls-4{fill:#68727f;}.cls-5{fill:#929ca8;}.cls-6{fill:#e55a5a;}.cls-7{fill:#49505b;}.cls-8{fill:#dfe2e6;}</style></defs><title>Video - Ilu</title><g id="panel_2" data-name="panel 2"><g id="fill"><path class="cls-1" d="M478.6,556.79l64.28,7a45.68,45.68,0,0,0,50.34-40.49L615.15,321a45.68,45.68,0,0,0-40.49-50.34l-64.28-7Z"/><path class="cls-2" d="M236.5,322.9H577a0,0,0,0,1,0,0V502.75a45.59,45.59,0,0,1-45.59,45.59H236.5a0,0,0,0,1,0,0V322.9a0,0,0,0,1,0,0Z" transform="translate(49.33 -41.31) rotate(6.19)"/><rect class="cls-3" x="283.32" y="362.83" width="246.9" height="145.59" rx="19.57" ry="19.57" transform="translate(49.33 -41.31) rotate(6.19)"/><path class="cls-4" d="M425.08,413.52l-23.51-17.2a6.43,6.43,0,0,0-10.19,4.5l-3.14,29a6.43,6.43,0,0,0,9,6.58l26.65-11.77A6.42,6.42,0,0,0,425.08,413.52Z"/><path class="cls-5" d="M392.87,470.37l101.92,11.05a8.78,8.78,0,0,1,7.79,9.68h0a8.78,8.78,0,0,1-9.68,7.79L391,487.84"/><path class="cls-6" d="M364.06,484.92l-53.17-5.77a8.77,8.77,0,0,1-7.78-9.68h0a8.77,8.77,0,0,1,9.68-7.78L366,467.45"/><circle class="cls-6" cx="378.47" cy="477.64" r="16.14"/><path class="cls-3" d="M204.23,300.28,184.85,479a45.68,45.68,0,0,0,40.49,50.34l24.3-224.12Z"/><path class="cls-4" d="M204.23,300.28l384,41.64,2.55-23.56A45.68,45.68,0,0,0,550.25,268L257.12,236.24a45.68,45.68,0,0,0-50.34,40.49Z"/><circle class="cls-7" cx="297.15" cy="275.47" r="11.72"/><circle class="cls-7" cx="339.4" cy="280.05" r="11.72"/><circle class="cls-6" cx="254.89" cy="270.89" r="11.72"/><circle class="cls-6" cx="223.16" cy="335.61" r="9.47"/><circle class="cls-8" cx="219.77" cy="366.87" r="9.47"/><circle class="cls-8" cx="216.38" cy="398.13" r="9.47"/></g><g id="stroke"><path class="cls-1" d="M574.87,268.68,257.34,234.25a47.73,47.73,0,0,0-52.54,42.26L187.61,435a2,2,0,1,0,4,.43l14.42-133L247.44,307l-23.86,220.1a43.73,43.73,0,0,1-36.74-47.87L189,459.07a2,2,0,1,0-4-.43l-2.19,20.14a47.74,47.74,0,0,0,42.27,52.54l317.53,34.43a47.73,47.73,0,0,0,52.54-42.26l21.94-202.27A47.74,47.74,0,0,0,574.87,268.68ZM227.55,527.56l23.87-220.15,308.43,33.44a2,2,0,1,0,.43-4L206.43,298.51l2.34-21.57a43.73,43.73,0,0,1,48.14-38.71l253.26,27.46L550,270a43.73,43.73,0,0,1,38.71,48.13L566.82,520.41a43.73,43.73,0,0,1-48.13,38.72Zm363.68-4.5a43.73,43.73,0,0,1-48.14,38.71l-5.43-.59a47.76,47.76,0,0,0,33.14-40.34l21.93-202.26A47.74,47.74,0,0,0,569,272.07l5.43.59a43.72,43.72,0,0,1,38.72,48.13Z"/><path class="cls-1" d="M298.63,261.83A13.72,13.72,0,1,0,310.79,277,13.74,13.74,0,0,0,298.63,261.83Zm-2.53,23.3a9.72,9.72,0,1,1,10.71-8.61A9.73,9.73,0,0,1,296.1,285.13Z"/><path class="cls-1" d="M340.88,266.41A13.72,13.72,0,1,0,353,281.53,13.74,13.74,0,0,0,340.88,266.41Zm-2.53,23.3a9.72,9.72,0,1,1,10.72-8.61A9.72,9.72,0,0,1,338.35,289.71Z"/><path class="cls-1" d="M537.22,396.23a21.59,21.59,0,0,0-19.11-23.77l-206.56-22.4a21.61,21.61,0,0,0-23.77,19.12L276.31,475a21.58,21.58,0,0,0,19.11,23.76L502,521.18a21.58,21.58,0,0,0,23.76-19.11ZM521.77,501.64a17.59,17.59,0,0,1-19.36,15.56L295.85,494.81a17.6,17.6,0,0,1-15.57-19.36l11.48-105.84A17.59,17.59,0,0,1,311.12,354l206.56,22.4a17.58,17.58,0,0,1,15.56,19.36Z"/><path class="cls-1" d="M477.05,396.17l21.68,2.36a10,10,0,0,1,8.88,11l-2.32,21.37a2,2,0,0,0,4,.44L511.59,410a14,14,0,0,0-12.43-15.44l-21.68-2.35a2,2,0,1,0-.43,4Z"/><path class="cls-1" d="M495,479.43,394.1,468.49a18.08,18.08,0,0,0-28.94-3.14L313,459.7a10.78,10.78,0,1,0-2.32,21.44l52.16,5.66a18.07,18.07,0,0,0,28.93,3.14l100.91,10.94A10.79,10.79,0,1,0,495,479.43Zm-183.9-2.26a6.79,6.79,0,0,1,1.46-13.5l49.92,5.42A17.94,17.94,0,0,0,361,482.58Zm65.83,14.53a14.14,14.14,0,1,1,15.59-12.53A14.15,14.15,0,0,1,376.94,491.7Zm116.17,5.2-98.66-10.7a18,18,0,0,0,1.46-13.49l98.67,10.7a6.78,6.78,0,1,1-1.47,13.49Z"/><path class="cls-1" d="M389.66,437.28a8.35,8.35,0,0,0,8.38.91l26.65-11.76a8.43,8.43,0,0,0,1.58-14.52l-23.52-17.2a8.43,8.43,0,0,0-13.36,5.89l-3.14,29A8.34,8.34,0,0,0,389.66,437.28ZM393.37,401a4.17,4.17,0,0,1,2.62-3.57,4.34,4.34,0,0,1,4.4.48l23.51,17.2a4.43,4.43,0,0,1-.82,7.63l-26.66,11.76a4.43,4.43,0,0,1-6.19-4.53Z"/><path class="cls-1" d="M505.85,444.36a2,2,0,0,0-2.2,1.77l-.79,7.28a2,2,0,1,0,4,.43l.79-7.28A2,2,0,0,0,505.85,444.36Z"/><path class="cls-1" d="M256.37,257.24a13.73,13.73,0,1,0,12.16,15.12A13.74,13.74,0,0,0,256.37,257.24Zm-2.53,23.31a9.72,9.72,0,1,1,10.72-8.62A9.72,9.72,0,0,1,253.84,280.55Z"/></g></g></svg>