<?xml version="1.0" encoding="UTF-8"?>
<svg width="239px" height="278px" viewBox="0 0 239 278" version="1.1" xmlns="http://www.w3.org/2000/svg" xmlns:xlink="http://www.w3.org/1999/xlink">
    <title>Group 34</title>
    <g id="Diseños" stroke="none" stroke-width="1" fill="none" fill-rule="evenodd">
        <g id="Artboard" transform="translate(-955.000000, -1417.000000)">
            <g id="Group-34" transform="translate(955.000000, 1417.000000)">
                <g id="Group-33" transform="translate(0.000000, 156.753894)">
                    <path d="M0,17.3208723 L29.3357401,34.6417445 L29.3357401,69.2834891 L1.27415662,52.7149246 C0.484522046,52.248696 -2.10814575e-15,51.399942 0,50.4829405 L0,17.3208723 L0,17.3208723 Z" id="Path-18" fill="#9D7BEF"></path>
                    <path d="M29.3357401,17.3208723 L58.6714801,34.6417445 L58.6714801,69.2834891 L30.6098967,52.7149246 C29.8202621,52.248696 29.3357401,51.399942 29.3357401,50.4829405 L29.3357401,17.3208723 L29.3357401,17.3208723 Z" id="Path-18" fill="#8966DD" transform="translate(44.003610, 43.302181) scale(-1, 1) translate(-44.003610, -43.302181) "></path>
                    <path d="M0,17.3208723 L29.3357401,34.6417445 L58.6714801,17.3208723 L30.6535834,0.778101959 C29.8405887,0.298080702 28.8308915,0.298080702 28.0178967,0.778101959 L0,17.3208723 L0,17.3208723 Z" id="Path-19" fill="#B89BFD"></path>
                </g>
                <g id="Group-33" transform="translate(90.595668, 104.791277)">
                    <path d="M0,17.3208723 L29.3357401,34.6417445 L29.3357401,69.2834891 L1.27415662,52.7149246 C0.484522046,52.248696 7.21772766e-15,51.399942 0,50.4829405 L0,17.3208723 L0,17.3208723 Z" id="Path-18" fill="#9D7BEF"></path>
                    <path d="M29.3357401,17.3208723 L58.6714801,34.6417445 L58.6714801,69.2834891 L30.6098967,52.7149246 C29.8202621,52.248696 29.3357401,51.399942 29.3357401,50.4829405 L29.3357401,17.3208723 L29.3357401,17.3208723 Z" id="Path-18" fill="#8966DD" transform="translate(44.003610, 43.302181) scale(-1, 1) translate(-44.003610, -43.302181) "></path>
                    <path d="M0,17.3208723 L29.3357401,34.6417445 L58.6714801,17.3208723 L30.6535834,0.778101959 C29.8405887,0.298080702 28.8308915,0.298080702 28.0178967,0.778101959 L0,17.3208723 L0,17.3208723 Z" id="Path-19" fill="#B89BFD"></path>
                </g>
                <g id="Group-33" transform="translate(90.595668, 0.000000)">
                    <path d="M0,17.3208723 L29.3357401,34.6417445 L29.3357401,69.2834891 L1.27415662,52.7149246 C0.484522046,52.248696 7.21772766e-15,51.399942 0,50.4829405 L0,17.3208723 L0,17.3208723 Z" id="Path-18" fill="#9D7BEF"></path>
                    <path d="M29.3357401,17.3208723 L58.6714801,34.6417445 L58.6714801,69.2834891 L30.6098967,52.7149246 C29.8202621,52.248696 29.3357401,51.399942 29.3357401,50.4829405 L29.3357401,17.3208723 L29.3357401,17.3208723 Z" id="Path-18" fill="#8966DD" transform="translate(44.003610, 43.302181) scale(-1, 1) translate(-44.003610, -43.302181) "></path>
                    <path d="M0,17.3208723 L29.3357401,34.6417445 L58.6714801,17.3208723 L30.6535834,0.778101959 C29.8405887,0.298080702 28.8308915,0.298080702 28.0178967,0.778101959 L0,17.3208723 L0,17.3208723 Z" id="Path-19" fill="#B89BFD"></path>
                </g>
                <g id="Group-33" transform="translate(180.328520, 156.753894)">
                    <path d="M0,17.3208723 L29.3357401,34.6417445 L29.3357401,69.2834891 L1.27415662,52.7149246 C0.484522046,52.248696 -3.88450259e-15,51.399942 0,50.4829405 L0,17.3208723 L0,17.3208723 Z" id="Path-18" fill="#9D7BEF"></path>
                    <path d="M29.3357401,17.3208723 L58.6714801,34.6417445 L58.6714801,69.2834891 L30.6098967,52.7149246 C29.8202621,52.248696 29.3357401,51.399942 29.3357401,50.4829405 L29.3357401,17.3208723 L29.3357401,17.3208723 Z" id="Path-18" fill="#8966DD" transform="translate(44.003610, 43.302181) scale(-1, 1) translate(-44.003610, -43.302181) "></path>
                    <path d="M0,17.3208723 L29.3357401,34.6417445 L58.6714801,17.3208723 L30.6535834,0.778101959 C29.8405887,0.298080702 28.8308915,0.298080702 28.0178967,0.778101959 L0,17.3208723 L0,17.3208723 Z" id="Path-19" fill="#B89BFD"></path>
                </g>
                <path d="M93.8325686,226.645225 L87.8589402,223.173871 C87.2403508,222.8144 86.4485626,223.026334 86.0904318,223.647237 C85.7323011,224.268141 85.9434446,225.062891 86.5620341,225.422362 L92.5356624,228.893716 C93.1542519,229.253186 93.9460401,229.041253 94.3041708,228.420349 C94.6623016,227.799446 94.4511581,227.004696 93.8325686,226.645225 Z M78.8984977,217.96684 L72.9248693,214.495486 C72.3062798,214.136015 71.5144917,214.347949 71.1563609,214.968852 C70.7982302,215.589756 71.0093737,216.384506 71.6279632,216.743976 L77.6015915,220.215331 C78.220181,220.574801 79.0119692,220.362868 79.3700999,219.741964 C79.7282307,219.12106 79.5170872,218.32631 78.8984977,217.96684 Z M63.9644268,209.288455 L57.9907984,205.8171 C57.3722089,205.45763 56.5804207,205.669563 56.22229,206.290467 C55.8641593,206.91137 56.0753028,207.706121 56.6938922,208.065591 L62.6675206,211.536945 C63.2861101,211.896416 64.0778983,211.684482 64.436029,211.063579 C64.7941598,210.442675 64.5830162,209.647925 63.9644268,209.288455 Z M49.0303558,200.610069 L44.6520632,198.065786 C44.0334737,197.706315 43.2416855,197.918249 42.8835548,198.539152 C42.525424,199.160056 42.7365676,199.954806 43.355157,200.314277 L47.7334497,202.85856 C48.3520392,203.218031 49.1438273,203.006097 49.5019581,202.385194 C49.8600888,201.76429 49.6489453,200.96954 49.0303558,200.610069 Z" id="Path-21" fill="#16AABF" fill-rule="nonzero"></path>
                <path d="M184.428236,70.7573746 L178.454608,67.2860205 C177.836019,66.92655 177.04423,67.1384834 176.6861,67.7593869 C176.327969,68.3802905 176.539112,69.1750407 177.157702,69.5345112 L183.13133,73.0058653 C183.74992,73.3653358 184.541708,73.1534024 184.899839,72.5324988 C185.257969,71.9115953 185.046826,71.1168451 184.428236,70.7573746 Z M169.494166,62.0789893 L163.520537,58.6076352 C162.901948,58.2481647 162.11016,58.4600981 161.752029,59.0810017 C161.393898,59.7019053 161.605042,60.4966555 162.223631,60.856126 L168.197259,64.3274801 C168.815849,64.6869505 169.607637,64.4750172 169.965768,63.8541136 C170.323899,63.23321 170.112755,62.4384598 169.494166,62.0789893 Z M154.560095,53.4006041 L148.586466,49.92925 C147.967877,49.5697795 147.176089,49.7817129 146.817958,50.4026165 C146.459827,51.02352 146.670971,51.8182702 147.28956,52.1777407 L153.263188,55.6490948 C153.881778,56.0085653 154.673566,55.7966319 155.031697,55.1757283 C155.389828,54.5548248 155.178684,53.7600746 154.560095,53.4006041 Z M139.626024,44.7222188 L135.247731,42.1779353 C134.629142,41.8184648 133.837353,42.0303982 133.479223,42.6513018 C133.121092,43.2722054 133.332235,44.0669556 133.950825,44.426426 L138.329118,46.9707096 C138.947707,47.33018 139.739495,47.1182467 140.097626,46.4973431 C140.455757,45.8764395 140.244613,45.0816893 139.626024,44.7222188 Z" id="Path-21" fill="#16AABF" fill-rule="nonzero"></path>
                <path d="M105.049175,70.7573746 L99.0755467,67.2860205 C98.4569573,66.92655 97.6651691,67.1384834 97.3070383,67.7593869 C96.9489076,68.3802905 97.1600511,69.1750407 97.7786406,69.5345112 L103.752269,73.0058653 C104.370858,73.3653358 105.162647,73.1534024 105.520777,72.5324988 C105.878908,71.9115953 105.667765,71.1168451 105.049175,70.7573746 Z M90.1151042,62.0789893 L84.1414758,58.6076352 C83.5228863,58.2481647 82.7310982,58.4600981 82.3729674,59.0810017 C82.0148367,59.7019053 82.2259802,60.4966555 82.8445697,60.856126 L88.818198,64.3274801 C89.4367875,64.6869505 90.2285757,64.4750172 90.5867064,63.8541136 C90.9448372,63.23321 90.7336937,62.4384598 90.1151042,62.0789893 Z M75.1810333,53.4006041 L69.2074049,49.92925 C68.5888154,49.5697795 67.7970272,49.7817129 67.4388965,50.4026165 C67.0807658,51.02352 67.2919093,51.8182702 67.9104987,52.1777407 L73.8841271,55.6490948 C74.5027166,56.0085653 75.2945048,55.7966319 75.6526355,55.1757283 C76.0107662,54.5548248 75.7996227,53.7600746 75.1810333,53.4006041 Z M60.2469623,44.7222188 L55.8686697,42.1779353 C55.2500802,41.8184648 54.458292,42.0303982 54.1001613,42.6513018 C53.7420305,43.2722054 53.9531741,44.0669556 54.5717635,44.426426 L58.9500562,46.9707096 C59.5686457,47.33018 60.3604338,47.1182467 60.7185646,46.4973431 C61.0766953,45.8764395 60.8655518,45.0816893 60.2469623,44.7222188 Z" id="Path-21" fill="#16AABF" fill-rule="nonzero" transform="translate(79.810469, 57.591900) scale(-1, 1) translate(-79.810469, -57.591900) "></path>
                <path d="M195.644843,226.645225 L189.671215,223.173871 C189.052625,222.8144 188.260837,223.026334 187.902706,223.647237 C187.544575,224.268141 187.755719,225.062891 188.374308,225.422362 L194.347937,228.893716 C194.966526,229.253186 195.758314,229.041253 196.116445,228.420349 C196.474576,227.799446 196.263432,227.004696 195.644843,226.645225 Z M180.710772,217.96684 L174.737144,214.495486 C174.118554,214.136015 173.326766,214.347949 172.968635,214.968852 C172.610505,215.589756 172.821648,216.384506 173.440238,216.743976 L179.413866,220.215331 C180.032455,220.574801 180.824244,220.362868 181.182374,219.741964 C181.540505,219.12106 181.329362,218.32631 180.710772,217.96684 Z M165.776701,209.288455 L159.803073,205.8171 C159.184483,205.45763 158.392695,205.669563 158.034564,206.290467 C157.676434,206.91137 157.887577,207.706121 158.506167,208.065591 L164.479795,211.536945 C165.098384,211.896416 165.890173,211.684482 166.248303,211.063579 C166.606434,210.442675 166.395291,209.647925 165.776701,209.288455 Z M150.84263,200.610069 L146.464338,198.065786 C145.845748,197.706315 145.05396,197.918249 144.695829,198.539152 C144.337698,199.160056 144.548842,199.954806 145.167431,200.314277 L149.545724,202.85856 C150.164314,203.218031 150.956102,203.006097 151.314232,202.385194 C151.672363,201.76429 151.46122,200.96954 150.84263,200.610069 Z" id="Path-21" fill="#16AABF" fill-rule="nonzero" transform="translate(170.406137, 213.479751) scale(-1, 1) translate(-170.406137, -213.479751) "></path>
                <g id="Group-33" transform="translate(90.595668, 208.716511)">
                    <path d="M0,17.3208723 L29.3357401,34.6417445 L29.3357401,69.2834891 L1.27415662,52.7149246 C0.484522046,52.248696 -1.88699343e-15,51.399942 0,50.4829405 L0,17.3208723 L0,17.3208723 Z" id="Path-18" fill="#9D7BEF"></path>
                    <path d="M29.3357401,17.3208723 L58.6714801,34.6417445 L58.6714801,69.2834891 L30.6098967,52.7149246 C29.8202621,52.248696 29.3357401,51.399942 29.3357401,50.4829405 L29.3357401,17.3208723 L29.3357401,17.3208723 Z" id="Path-18" fill="#8966DD" transform="translate(44.003610, 43.302181) scale(-1, 1) translate(-44.003610, -43.302181) "></path>
                    <path d="M0,17.3208723 L29.3357401,34.6417445 L58.6714801,17.3208723 L30.6535834,0.778101959 C29.8405887,0.298080702 28.8308915,0.298080702 28.0178967,0.778101959 L0,17.3208723 L0,17.3208723 Z" id="Path-19" fill="#B89BFD"></path>
                </g>
                <path d="M28.0415162,121.246106 L28.0415162,128.174455 C28.0415162,128.891909 28.62096,129.47352 29.3357401,129.47352 C30.0505202,129.47352 30.6299639,128.891909 30.6299639,128.174455 L30.6299639,121.246106 C30.6299639,120.528652 30.0505202,119.94704 29.3357401,119.94704 C28.62096,119.94704 28.0415162,120.528652 28.0415162,121.246106 Z M28.0415162,138.566978 L28.0415162,145.495327 C28.0415162,146.212781 28.62096,146.794393 29.3357401,146.794393 C30.0505202,146.794393 30.6299639,146.212781 30.6299639,145.495327 L30.6299639,138.566978 C30.6299639,137.849524 30.0505202,137.267913 29.3357401,137.267913 C28.62096,137.267913 28.0415162,137.849524 28.0415162,138.566978 Z M28.0415162,155.88785 L28.0415162,162.816199 C28.0415162,163.533653 28.62096,164.115265 29.3357401,164.115265 C30.0505202,164.115265 30.6299639,163.533653 30.6299639,162.816199 L30.6299639,155.88785 C30.6299639,155.170396 30.0505202,154.588785 29.3357401,154.588785 C28.62096,154.588785 28.0415162,155.170396 28.0415162,155.88785 Z M28.0415162,173.208723 L28.0415162,174.074766 C28.0415162,174.79222 28.62096,175.373832 29.3357401,175.373832 C30.0505202,175.373832 30.6299639,174.79222 30.6299639,174.074766 L30.6299639,173.208723 C30.6299639,172.491269 30.0505202,171.909657 29.3357401,171.909657 C28.62096,171.909657 28.0415162,172.491269 28.0415162,173.208723 Z" id="Path-22" fill="#16AABF" fill-rule="nonzero"></path>
                <path d="M208.370036,121.246106 L208.370036,128.174455 C208.370036,128.891909 208.94948,129.47352 209.66426,129.47352 C210.37904,129.47352 210.958484,128.891909 210.958484,128.174455 L210.958484,121.246106 C210.958484,120.528652 210.37904,119.94704 209.66426,119.94704 C208.94948,119.94704 208.370036,120.528652 208.370036,121.246106 Z M208.370036,138.566978 L208.370036,145.495327 C208.370036,146.212781 208.94948,146.794393 209.66426,146.794393 C210.37904,146.794393 210.958484,146.212781 210.958484,145.495327 L210.958484,138.566978 C210.958484,137.849524 210.37904,137.267913 209.66426,137.267913 C208.94948,137.267913 208.370036,137.849524 208.370036,138.566978 Z M208.370036,155.88785 L208.370036,162.816199 C208.370036,163.533653 208.94948,164.115265 209.66426,164.115265 C210.37904,164.115265 210.958484,163.533653 210.958484,162.816199 L210.958484,155.88785 C210.958484,155.170396 210.37904,154.588785 209.66426,154.588785 C208.94948,154.588785 208.370036,155.170396 208.370036,155.88785 Z M208.370036,173.208723 L208.370036,174.074766 C208.370036,174.79222 208.94948,175.373832 209.66426,175.373832 C210.37904,175.373832 210.958484,174.79222 210.958484,174.074766 L210.958484,173.208723 C210.958484,172.491269 210.37904,171.909657 209.66426,171.909657 C208.94948,171.909657 208.370036,172.491269 208.370036,173.208723 Z" id="Path-22" fill="#16AABF" fill-rule="nonzero"></path>
                <g id="Group-33" transform="translate(180.328520, 51.962617)">
                    <path d="M0,17.3208723 L29.3357401,34.6417445 L29.3357401,69.2834891 L1.27415662,52.7149246 C0.484522046,52.248696 -5.88379632e-15,51.399942 0,50.4829405 L0,17.3208723 L0,17.3208723 Z" id="Path-18" fill="#9D7BEF"></path>
                    <path d="M29.3357401,17.3208723 L58.6714801,34.6417445 L58.6714801,69.2834891 L30.6098967,52.7149246 C29.8202621,52.248696 29.3357401,51.399942 29.3357401,50.4829405 L29.3357401,17.3208723 L29.3357401,17.3208723 Z" id="Path-18" fill="#8966DD" transform="translate(44.003610, 43.302181) scale(-1, 1) translate(-44.003610, -43.302181) "></path>
                    <path d="M0,17.3208723 L29.3357401,34.6417445 L58.6714801,17.3208723 L30.6535834,0.778101959 C29.8405887,0.298080702 28.8308915,0.298080702 28.0178967,0.778101959 L0,17.3208723 L0,17.3208723 Z" id="Path-19" fill="#B89BFD"></path>
                </g>
                <g id="Group-33" transform="translate(0.000000, 51.962617)">
                    <path d="M0,17.3208723 L29.3357401,34.6417445 L29.3357401,69.2834891 L1.27415662,52.7149246 C0.484522046,52.248696 8.10590608e-15,51.399942 0,50.4829405 L0,17.3208723 L0,17.3208723 Z" id="Path-18" fill="#9D7BEF"></path>
                    <path d="M29.3357401,17.3208723 L58.6714801,34.6417445 L58.6714801,69.2834891 L30.6098967,52.7149246 C29.8202621,52.248696 29.3357401,51.399942 29.3357401,50.4829405 L29.3357401,17.3208723 L29.3357401,17.3208723 Z" id="Path-18" fill="#8966DD" transform="translate(44.003610, 43.302181) scale(-1, 1) translate(-44.003610, -43.302181) "></path>
                    <path d="M0,17.3208723 L29.3357401,34.6417445 L58.6714801,17.3208723 L30.6535834,0.778101959 C29.8405887,0.298080702 28.8308915,0.298080702 28.0178967,0.778101959 L0,17.3208723 L0,17.3208723 Z" id="Path-19" fill="#B89BFD"></path>
                </g>
            </g>
        </g>
    </g>
</svg>