<?xml version="1.0" encoding="UTF-8"?>
<svg width="120px" height="120px" viewBox="0 0 120 120" version="1.1" xmlns="http://www.w3.org/2000/svg" xmlns:xlink="http://www.w3.org/1999/xlink">
    <title>Group 17</title>
    <g id="Diseños" stroke="none" stroke-width="1" fill="none" fill-rule="evenodd">
        <g id="Artboard" transform="translate(-365.000000, -1289.000000)">
            <g id="Group-17" transform="translate(365.000000, 1289.000000)">
                <rect id="Rectangle" stroke="#979797" fill="#D8D8D8" opacity="0" x="0" y="0" width="120" height="120"></rect>
                <g id="bridgeno" transform="translate(4.500000, 17.500000)" fill="#FFFFFF" fill-rule="nonzero">
                    <g id="Group-18">
                        <path d="M69.159,22 L66.198,25 L5.5,25.0000002 C4.1745166,25.0000002 3.08996133,26.0315361 3.00531768,27.3356245 L3,27.5000002 L3,57.5000002 C3,58.8807121 4.11928813,60.0000002 5.5,60.0000002 L5.5,60.0000002 L31.652,60 L28.691,63 L5.5,63.0000002 C2.53652085,63.0000002 0.120460863,60.6562202 0.00436720397,57.7212073 L0,57.5000002 L0,27.5000002 C0,24.4624341 2.46243388,22.0000002 5.5,22.0000002 L5.5,22.0000002 L69.159,22 Z M39.652,60 L36.691,63 L32.905,63 L35.866,60 L39.652,60 Z M105.5,22.0000002 C108.537566,22.0000002 111,24.4624341 111,27.5000002 L111,27.5000002 L111,57.5000002 C111,60.5375663 108.537566,63.0000002 105.5,63.0000002 L105.5,63.0000002 L40.905,63 L43.866,60 L105.5,60.0000002 C106.825483,60.0000002 107.910039,58.9684643 107.994682,57.6643759 L108,57.5000002 L108,27.5000002 C108,26.1192883 106.880712,25.0000002 105.5,25.0000002 L105.5,25.0000002 L78.412,25 L81.373,22 Z M74.198,25 L70.412,25 L73.373,22 L77.159,22 L74.198,25 Z" id="Combined-Shape"></path>
                        <path d="M94.4324302,0.446294955 C95.0143755,-0.143307559 95.9641027,-0.149514926 96.5537052,0.432430412 C97.1064576,0.978004167 97.1464603,1.84682368 96.6697933,2.43911248 L96.5675698,2.55370545 L20.5675698,79.5537054 C19.9856245,80.143308 19.0358973,80.1495153 18.4462948,79.56757 C17.8935424,79.0219962 17.8535397,78.1531767 18.3302067,77.5608879 L18.4324302,77.446295 L94.4324302,0.446294955 Z" id="Path-14"></path>
                        <path d="M38.5,38.0000002 C36.0147186,38.0000002 34,40.0147188 34,42.5000002 C34,44.9852816 36.0147186,47.0000002 38.5,47.0000002 C40.9852814,47.0000002 43,44.9852816 43,42.5000002 C43,40.0147188 40.9852814,38.0000002 38.5,38.0000002 Z M38.5,41.0000002 C39.3284271,41.0000002 40,41.6715731 40,42.5000002 C40,43.3284273 39.3284271,44.0000002 38.5,44.0000002 C37.6715729,44.0000002 37,43.3284273 37,42.5000002 C37,41.6715731 37.6715729,41.0000002 38.5,41.0000002 Z" id="Rectangle"></path>
                        <path d="M21.5,34.0000002 C16.8055796,34.0000002 13,37.8055798 13,42.5000002 C13,47.1944206 16.8055796,51.0000002 21.5,51.0000002 C26.1944204,51.0000002 30,47.1944206 30,42.5000002 C30,37.8055798 26.1944204,34.0000002 21.5,34.0000002 Z M21.5,37.0000002 C24.5375661,37.0000002 27,39.4624341 27,42.5000002 C27,45.5375663 24.5375661,48.0000002 21.5,48.0000002 C18.4624339,48.0000002 16,45.5375663 16,42.5000002 C16,39.4624341 18.4624339,37.0000002 21.5,37.0000002 Z" id="Rectangle"></path>
                        <path d="M96.5,35.0000002 C97.3284271,35.0000002 98,35.6715731 98,36.5000002 C98,37.2796963 97.4051119,37.9204489 96.64446,37.9931336 L96.5,38.0000002 L77.5,38.0000002 C76.6715729,38.0000002 76,37.3284273 76,36.5000002 C76,35.7203041 76.5948881,35.0795515 77.35554,35.0068668 L77.5,35.0000002 L96.5,35.0000002 Z" id="Path-13"></path>
                        <path d="M96.5,41.0000002 C97.3284271,41.0000002 98,41.6715731 98,42.5000002 C98,43.2796963 97.4051119,43.9204489 96.64446,43.9931336 L96.5,44.0000002 L77.5,44.0000002 C76.6715729,44.0000002 76,43.3284273 76,42.5000002 C76,41.7203041 76.5948881,41.0795515 77.35554,41.0068668 L77.5,41.0000002 L96.5,41.0000002 Z" id="Path-13"></path>
                        <path d="M96.5,47.0000002 C97.3284271,47.0000002 98,47.6715731 98,48.5000002 C98,49.2796963 97.4051119,49.9204489 96.64446,49.9931336 L96.5,50.0000002 L77.5,50.0000002 C76.6715729,50.0000002 76,49.3284273 76,48.5000002 C76,47.7203041 76.5948881,47.0795515 77.35554,47.0068668 L77.5,47.0000002 L96.5,47.0000002 Z" id="Path-13"></path>
                    </g>
                </g>
            </g>
        </g>
    </g>
</svg>