<?xml version="1.0" encoding="UTF-8"?>
<svg width="120px" height="61px" viewBox="0 0 120 61" version="1.1" xmlns="http://www.w3.org/2000/svg" xmlns:xlink="http://www.w3.org/1999/xlink">
    <title>Group 19</title>
    <defs>
        <path d="M51,-1.82076576e-13 L56.6568542,5.65685425 L96,5.65685425 C99.3137085,5.65685425 102,8.34314575 102,11.6568542 L102,35.6568542 C102,38.9705627 99.3137085,41.6568542 96,41.6568542 L6,41.6568542 C2.6862915,41.6568542 1.29399067e-15,38.9705627 0,35.6568542 L0,11.6568542 C4.82366169e-16,8.34314575 2.6862915,5.65685425 6,5.65685425 L45.3431458,5.65685425 L51,-1.82076576e-13 Z" id="path-1"></path>
        <filter x="-13.2%" y="-28.6%" width="126.5%" height="165.8%" filterUnits="objectBoundingBox" id="filter-2">
            <feOffset dx="0" dy="1" in="SourceAlpha" result="shadowOffsetOuter1"></feOffset>
            <feGaussianBlur stdDeviation="1" in="shadowOffsetOuter1" result="shadowBlurOuter1"></feGaussianBlur>
            <feColorMatrix values="0 0 0 0 0.129411765   0 0 0 0 0.145098039   0 0 0 0 0.160784314  0 0 0 0.297858392 0" type="matrix" in="shadowBlurOuter1" result="shadowMatrixOuter1"></feColorMatrix>
            <feMorphology radius="0.5" operator="erode" in="SourceAlpha" result="shadowSpreadOuter2"></feMorphology>
            <feOffset dx="0" dy="2" in="shadowSpreadOuter2" result="shadowOffsetOuter2"></feOffset>
            <feGaussianBlur stdDeviation="4" in="shadowOffsetOuter2" result="shadowBlurOuter2"></feGaussianBlur>
            <feColorMatrix values="0 0 0 0 0.129411765   0 0 0 0 0.145098039   0 0 0 0 0.160784314  0 0 0 0.104949738 0" type="matrix" in="shadowBlurOuter2" result="shadowMatrixOuter2"></feColorMatrix>
            <feMorphology radius="0.5" operator="dilate" in="SourceAlpha" result="shadowSpreadOuter3"></feMorphology>
            <feOffset dx="0" dy="0" in="shadowSpreadOuter3" result="shadowOffsetOuter3"></feOffset>
            <feColorMatrix values="0 0 0 0 0.129411765   0 0 0 0 0.145098039   0 0 0 0 0.160784314  0 0 0 0.0988035402 0" type="matrix" in="shadowOffsetOuter3" result="shadowMatrixOuter3"></feColorMatrix>
            <feMerge>
                <feMergeNode in="shadowMatrixOuter1"></feMergeNode>
                <feMergeNode in="shadowMatrixOuter2"></feMergeNode>
                <feMergeNode in="shadowMatrixOuter3"></feMergeNode>
            </feMerge>
        </filter>
    </defs>
    <g id="Diseños" stroke="none" stroke-width="1" fill="none" fill-rule="evenodd">
        <g id="Artboard" transform="translate(-365.000000, -1388.000000)">
            <g id="Group-19" transform="translate(374.000000, 1396.343146)">
                <g id="Combined-Shape">
                    <use fill="black" fill-opacity="1" filter="url(#filter-2)" xlink:href="#path-1"></use>
                    <use fill="#FFFFFF" fill-rule="evenodd" xlink:href="#path-1"></use>
                </g>
                <path d="M17.592,28.6568542 L17.592,20.7848542 L23.64,28.6568542 L25.192,28.6568542 L25.192,17.3768542 L23.256,17.3768542 L23.256,25.2328542 L17.208,17.3768542 L15.672,17.3768542 L15.672,28.6568542 L17.592,28.6568542 Z M31.016,28.7848542 C31.816,28.7848542 32.5173333,28.6195209 33.12,28.2888542 C33.7226667,27.9581876 34.1866667,27.4835209 34.512,26.8648542 C34.8373333,26.2461876 35,25.5261876 35,24.7048542 C35,23.8835209 34.8373333,23.1661876 34.512,22.5528542 C34.1866667,21.9395209 33.7226667,21.4675209 33.12,21.1368542 C32.5173333,20.8061876 31.816,20.6408542 31.016,20.6408542 C30.216,20.6408542 29.5146667,20.8061876 28.912,21.1368542 C28.3093333,21.4675209 27.8426667,21.9395209 27.512,22.5528542 C27.1813333,23.1661876 27.016,23.8835209 27.016,24.7048542 C27.016,25.5261876 27.1813333,26.2461876 27.512,26.8648542 C27.8426667,27.4835209 28.3093333,27.9581876 28.912,28.2888542 C29.5146667,28.6195209 30.216,28.7848542 31.016,28.7848542 Z M31,27.2328542 C30.36,27.2328542 29.8693333,27.0195209 29.528,26.5928542 C29.1866667,26.1661876 29.016,25.5368542 29.016,24.7048542 C29.016,23.8835209 29.1893333,23.2568542 29.536,22.8248542 C29.8826667,22.3928542 30.376,22.1768542 31.016,22.1768542 C31.656,22.1768542 32.1466667,22.3928542 32.488,22.8248542 C32.8293333,23.2568542 33,23.8835209 33,24.7048542 C33,25.5368542 32.8293333,26.1661876 32.488,26.5928542 C32.1466667,27.0195209 31.6506667,27.2328542 31,27.2328542 Z M45.48,28.7848542 C46.152,28.7848542 46.752,28.6141876 47.28,28.2728542 C47.808,27.9315209 48.2186667,27.4488542 48.512,26.8248542 C48.8053333,26.2008542 48.952,25.4835209 48.952,24.6728542 C48.952,23.8621876 48.8053333,23.1528542 48.512,22.5448542 C48.2186667,21.9368542 47.8106667,21.4675209 47.288,21.1368542 C46.7653333,20.8061876 46.1626667,20.6408542 45.48,20.6408542 C44.9253333,20.6408542 44.4293333,20.7555209 43.992,20.9848542 C43.5546667,21.2141876 43.2186667,21.5421876 42.984,21.9688542 L42.984,21.9688542 L42.984,17.3768542 L40.984,17.3768542 L40.984,28.6568542 L42.952,28.6568542 L42.952,27.3928542 C43.1866667,27.8301876 43.5253333,28.1715209 43.968,28.4168542 C44.4106667,28.6621876 44.9146667,28.7848542 45.48,28.7848542 Z M44.952,27.2328542 C44.312,27.2328542 43.8186667,27.0141876 43.472,26.5768542 C43.1253333,26.1395209 42.952,25.5155209 42.952,24.7048542 C42.952,23.8941876 43.1253333,23.2728542 43.472,22.8408542 C43.8186667,22.4088542 44.312,22.1928542 44.952,22.1928542 C45.592,22.1928542 46.0853333,22.4061876 46.432,22.8328542 C46.7786667,23.2595209 46.952,23.8728542 46.952,24.6728542 C46.952,25.4835209 46.776,26.1128542 46.424,26.5608542 C46.072,27.0088542 45.5813333,27.2328542 44.952,27.2328542 Z M52.6,28.6568542 L52.6,24.4328542 C52.6,23.2275209 53.2613333,22.5555209 54.584,22.4168542 L54.584,22.4168542 L55.752,22.3048542 L55.624,20.6248542 L55.016,20.6728542 C53.7466667,20.7581876 52.9093333,21.2701876 52.504,22.2088542 L52.504,22.2088542 L52.504,20.8328542 L50.6,20.8328542 L50.6,28.6568542 L52.6,28.6568542 Z M58.824,19.1688542 L58.824,17.2008542 L56.616,17.2008542 L56.616,19.1688542 L58.824,19.1688542 Z M58.728,28.6568542 L58.728,20.8328542 L56.728,20.8328542 L56.728,28.6568542 L58.728,28.6568542 Z M63.832,28.7848542 C64.3973333,28.7848542 64.9013333,28.6621876 65.344,28.4168542 C65.7866667,28.1715209 66.1253333,27.8301876 66.36,27.3928542 L66.36,27.3928542 L66.36,28.6568542 L68.344,28.6568542 L68.344,17.3768542 L66.344,17.3768542 L66.344,21.9848542 C66.1093333,21.5581876 65.7733333,21.2275209 65.336,20.9928542 C64.8986667,20.7581876 64.3973333,20.6408542 63.832,20.6408542 C63.1493333,20.6408542 62.5466667,20.8061876 62.024,21.1368542 C61.5013333,21.4675209 61.0933333,21.9368542 60.8,22.5448542 C60.5066667,23.1528542 60.36,23.8621876 60.36,24.6728542 C60.36,25.4835209 60.5066667,26.2008542 60.8,26.8248542 C61.0933333,27.4488542 61.504,27.9315209 62.032,28.2728542 C62.56,28.6141876 63.16,28.7848542 63.832,28.7848542 Z M64.36,27.2328542 C63.7306667,27.2328542 63.24,27.0088542 62.888,26.5608542 C62.536,26.1128542 62.36,25.4835209 62.36,24.6728542 C62.36,23.8728542 62.536,23.2595209 62.888,22.8328542 C63.24,22.4061876 63.736,22.1928542 64.376,22.1928542 C65.0053333,22.1928542 65.4933333,22.4088542 65.84,22.8408542 C66.1866667,23.2728542 66.36,23.8941876 66.36,24.7048542 C66.36,25.5155209 66.1866667,26.1395209 65.84,26.5768542 C65.4933333,27.0141876 65,27.2328542 64.36,27.2328542 Z M74.008,31.6648542 C75.3306667,31.6648542 76.3306667,31.3501876 77.008,30.7208542 C77.6853333,30.0915209 78.024,29.1635209 78.024,27.9368542 L78.024,27.9368542 L78.024,20.8328542 L76.04,20.8328542 L76.04,22.0168542 C75.8053333,21.5795209 75.464,21.2408542 75.016,21.0008542 C74.568,20.7608542 74.056,20.6408542 73.48,20.6408542 C72.7973333,20.6408542 72.1893333,20.8035209 71.656,21.1288542 C71.1226667,21.4541876 70.7093333,21.9128542 70.416,22.5048542 C70.1226667,23.0968542 69.976,23.7768542 69.976,24.5448542 C69.976,25.3128542 70.1253333,25.9901876 70.424,26.5768542 C70.7226667,27.1635209 71.136,27.6195209 71.664,27.9448542 C72.192,28.2701876 72.7973333,28.4328542 73.48,28.4328542 C74.056,28.4328542 74.568,28.3128542 75.016,28.0728542 C75.464,27.8328542 75.8053333,27.4941876 76.04,27.0568542 L76.04,27.0568542 L76.04,28.0808542 C76.04,29.4461876 75.3466667,30.1288542 73.96,30.1288542 C72.9253333,30.1288542 71.9226667,29.8355209 70.952,29.2488542 L70.952,29.2488542 L70.392,30.6568542 C70.8613333,30.9768542 71.4106667,31.2248542 72.04,31.4008542 C72.6693333,31.5768542 73.3253333,31.6648542 74.008,31.6648542 Z M74.008,26.8808542 C73.3786667,26.8808542 72.8826667,26.6701876 72.52,26.2488542 C72.1573333,25.8275209 71.976,25.2595209 71.976,24.5448542 C71.976,23.8088542 72.1573333,23.2328542 72.52,22.8168542 C72.8826667,22.4008542 73.3786667,22.1928542 74.008,22.1928542 C74.648,22.1928542 75.1466667,22.4008542 75.504,22.8168542 C75.8613333,23.2328542 76.04,23.8088542 76.04,24.5448542 C76.04,25.2701876 75.8613333,25.8408542 75.504,26.2568542 C75.1466667,26.6728542 74.648,26.8808542 74.008,26.8808542 Z M83.8,28.7848542 C84.3546667,28.7848542 84.9066667,28.6941876 85.456,28.5128542 C86.0053333,28.3315209 86.4613333,28.0915209 86.824,27.7928542 L86.824,27.7928542 L86.248,26.4168542 C85.5333333,26.9715209 84.744,27.2488542 83.88,27.2488542 C83.1866667,27.2488542 82.6533333,27.0728542 82.28,26.7208542 C81.9066667,26.3688542 81.688,25.8301876 81.624,25.1048542 L81.624,25.1048542 L86.952,25.1048542 L86.952,24.5448542 C86.952,23.3288542 86.64,22.3741876 86.016,21.6808542 C85.392,20.9875209 84.5413333,20.6408542 83.464,20.6408542 C82.728,20.6408542 82.0693333,20.8115209 81.488,21.1528542 C80.9066667,21.4941876 80.456,21.9741876 80.136,22.5928542 C79.816,23.2115209 79.656,23.9208542 79.656,24.7208542 C79.656,25.9795209 80.0266667,26.9715209 80.768,27.6968542 C81.5093333,28.4221876 82.52,28.7848542 83.8,28.7848542 Z M85.24,24.0328542 L81.624,24.0328542 C81.6986667,23.3928542 81.8986667,22.9021876 82.224,22.5608542 C82.5493333,22.2195209 82.9786667,22.0488542 83.512,22.0488542 C84.0453333,22.0488542 84.4613333,22.2168542 84.76,22.5528542 C85.0586667,22.8888542 85.2186667,23.3821876 85.24,24.0328542 L85.24,24.0328542 Z" id="Nobridge" fill="#656565" fill-rule="nonzero"></path>
            </g>
        </g>
    </g>
</svg>