<?xml version="1.0" encoding="UTF-8"?>
<svg width="36px" height="108px" viewBox="0 0 36 108" version="1.1" xmlns="http://www.w3.org/2000/svg" xmlns:xlink="http://www.w3.org/1999/xlink">
    <title>Group 31</title>
    <g id="Diseños" stroke="none" stroke-width="1" fill="none" fill-rule="evenodd">
        <g id="Group-8" transform="translate(-16.000000, -16.000000)">
            <g id="Group-31" transform="translate(16.000000, 16.000000)">
                <g id="Group-29" transform="translate(0.000000, 36.000000)">
                    <rect id="Rectangle" stroke="#979797" fill="#D8D8D8" opacity="0" x="0" y="0" width="36" height="36"></rect>
                    <g id="Group" transform="translate(10.000000, 10.000000)" fill="#ADB5BD" fill-rule="nonzero">
                        <g id="icon2">
                            <path d="M12,10.638 L4,10.638 L4,9.97133333 C4,9.60266667 4.29866667,9.30466667 4.66666667,9.30466667 L11.3333333,9.30466667 C11.702,9.30466667 12,9.60266667 12,9.97133333 L12,10.638 Z M8,12.638 C7.52666667,12.6353333 7.09,12.3813333 6.85333333,11.9713333 L9.14666667,11.9713333 C8.91,12.3813333 8.47333333,12.6353333 8,12.638 L8,12.638 Z M5.33333333,5.97133333 C5.33333333,4.49866667 6.52733333,3.30466667 8,3.30466667 C9.47266667,3.30466667 10.6666667,4.49866667 10.6666667,5.97133333 L10.6666667,7.97133333 L5.33333333,7.97133333 L5.33333333,5.97133333 Z M12,8.09133333 L12,5.97133333 C11.998,4.02133333 10.59,2.35666667 8.66666667,2.03133333 C8.66666667,2.03133333 8.368,2 8,2 C7.632,2 7.33333333,2.03133333 7.33333333,2.03133333 C5.41,2.35666667 4.002,4.02133333 4,5.97133333 L4,8.09133333 C3.20266667,8.37333333 2.66866667,9.12533333 2.66666667,9.97133333 L2.66666667,11.3046667 C2.66666667,11.6733333 2.96533333,11.9713333 3.33333333,11.9713333 L5.42666667,11.9713333 C5.81266667,13.3926667 7.278,14.232 8.69933333,13.8453333 C9.612,13.5966667 10.3253333,12.884 10.5733333,11.9713333 L12.6666667,11.9713333 C13.0353333,11.9713333 13.3333333,11.6733333 13.3333333,11.3046667 L13.3333333,9.97133333 C13.3306667,9.12533333 12.7966667,8.37333333 12,8.09133333 L12,8.09133333 Z" id="Fill-1"></path>
                        </g>
                    </g>
                </g>
                <g id="Group-30" transform="translate(0.000000, 72.000000)">
                    <rect id="Rectangle" stroke="#979797" fill="#D8D8D8" opacity="0" x="0" y="0" width="36" height="36"></rect>
                    <g id="Group" transform="translate(10.000000, 10.000000)" fill="#ADB5BD" fill-rule="nonzero">
                        <g id="icon3">
                            <path d="M13.3333333,9.5866 L11.3333333,8.5866 L11.3333333,7.41326667 L13.3333333,6.41326667 L13.3333333,9.5866 Z M10,9.99993333 C10,10.3686 9.702,10.6666 9.33333333,10.6666 L3.33333333,10.6666 C2.96533333,10.6666 2.66666667,10.3686 2.66666667,9.99993333 L2.66666667,5.99993333 C2.66666667,5.63193333 2.96533333,5.33326667 3.33333333,5.33326667 L9.33333333,5.33326667 C9.702,5.33326667 10,5.63193333 10,5.99993333 L10,9.99993333 Z M14.3533333,4.7666 C14.1473333,4.64726667 13.8933333,4.64726667 13.6866667,4.7666 L11.3333333,5.9266 C11.2933333,4.8506 10.41,3.99926667 9.33333333,3.99993294 L3.33333333,3.99993294 C2.22866667,3.99993294 1.33333333,4.89526667 1.33333333,5.99993294 L1.33333333,9.99993294 C1.33333333,11.1046 2.22866667,11.9999329 3.33333333,11.9999329 L9.33333333,11.9999329 C10.41,12.0006 11.2933333,11.1492667 11.3333333,10.0732667 L13.7066667,11.2599333 C13.7973333,11.3066 13.898,11.3312667 14,11.3332667 C14.1246667,11.3339333 14.2473333,11.2986 14.3533333,11.2332667 C14.5486667,11.1112667 14.6673333,10.8972667 14.6666695,10.6666 L14.6666695,5.33326667 C14.6673333,5.1026 14.5486667,4.8886 14.3533333,4.7666 L14.3533333,4.7666 Z" id="Fill-1"></path>
                        </g>
                    </g>
                </g>
                <g id="Group-28">
                    <rect id="Rectangle" stroke="#979797" fill="#D8D8D8" opacity="0" x="0" y="0" width="36" height="36"></rect>
                    <g id="Group" transform="translate(10.000000, 10.000000)">
                        <g id="Logo" transform="translate(0.800000, 0.800000)">
                            <path d="M8.385398,0.154546 L4.006338,2.682806 C3.649478,2.888886 3.429818,3.269546 3.429818,3.681566 L3.429818,8.738226 C3.429818,9.150106 3.649478,9.530906 4.006338,9.736846 L8.385398,12.265106 C8.742258,12.471186 9.181858,12.471186 9.538718,12.265106 L13.917918,9.736846 C14.274638,9.530906 14.494438,9.150106 14.494438,8.738226 L14.494438,3.681566 C14.494438,3.269546 14.274638,2.888886 13.917918,2.682806 L9.538718,0.154546 C9.181858,-0.051394 8.742258,-0.051394 8.385398,0.154546" id="Fill-17" fill="#12B886"></path>
                            <path d="M4.955678,2.134846 L0.576618,4.663106 C0.219898,4.869046 9.8e-05,5.249846 9.8e-05,5.661866 L9.8e-05,10.718386 C9.8e-05,11.130406 0.219898,11.511206 0.576618,11.717146 L4.955678,14.245406 C5.312538,14.451486 5.752138,14.451486 6.108998,14.245406 L10.488198,11.717146 C10.844918,11.511206 11.064858,11.130406 11.064858,10.718386 L11.064858,5.661866 C11.064858,5.249846 10.844918,4.869046 10.488198,4.663106 L6.108998,2.134846 C5.752138,1.928766 5.312538,1.928766 4.955678,2.134846" id="Fill-18" fill="#5C7CFA"></path>
                            <path d="M11.064816,10.71812 L11.064816,5.6616 C11.064816,5.24958 10.845016,4.86878 10.488156,4.66284 L6.109096,2.13458 C5.759656,1.93284 5.331256,1.9292 4.978456,2.1224 L3.981516,2.69794 C3.639636,2.90724 3.429776,3.27908 3.429776,3.6813 L3.429776,8.73782 C3.429776,9.14984 3.649436,9.53064 4.006296,9.73658 L8.385356,12.26484 C8.734796,12.46658 9.163336,12.47036 9.515996,12.27702 L10.512936,11.70148 C10.854816,11.49232 11.064816,11.12048 11.064816,10.71812" id="Fill-19" fill="#37376B"></path>
                            <path d="M7.247226,6.22664 C6.710606,6.22664 6.274226,6.66316 6.274226,7.19978 C6.274226,7.73626 6.710606,8.17278 7.247226,8.17278 C7.783846,8.17278 8.220366,7.73626 8.220366,7.19978 C8.220366,6.66316 7.783846,6.22664 7.247226,6.22664 M7.247226,8.88608 C6.317346,8.88608 5.560926,8.12952 5.560926,7.19978 C5.560926,6.2699 6.317346,5.51348 7.247226,5.51348 C8.177106,5.51348 8.933526,6.2699 8.933526,7.19978 C8.933526,8.12952 8.177106,8.88608 7.247226,8.88608" id="Fill-20" fill="#FFFFFF"></path>
                        </g>
                    </g>
                </g>
            </g>
        </g>
    </g>
</svg>