<?xml version="1.0" encoding="UTF-8"?>
<svg width="72px" height="13px" viewBox="0 0 72 13" version="1.1" xmlns="http://www.w3.org/2000/svg" xmlns:xlink="http://www.w3.org/1999/xlink">
    <title>Group 7</title>
    <g id="Diseños" stroke="none" stroke-width="1" fill="none" fill-rule="evenodd">
        <g id="Artboard" transform="translate(-345.000000, -1243.000000)" fill="#FF0000">
            <g id="Group-7" transform="translate(345.000000, 1243.000000)">
                <rect id="Rectangle" x="0" y="0" width="12" height="12" rx="6"></rect>
                <path d="M18.436,10 L18.436,6.604 L19.612,6.604 C19.916,6.604 20.168,6.656 20.368,6.76 C20.568,6.864 20.736,7.044 20.872,7.3 L20.872,7.3 L22.324,10 L24.004,10 L22.588,7.408 C22.316,6.896 21.956,6.58 21.508,6.46 C22.172,6.332 22.686,6.058 23.05,5.638 C23.414,5.218 23.596,4.684 23.596,4.036 C23.596,3.228 23.346,2.61 22.846,2.182 C22.346,1.754 21.616,1.54 20.656,1.54 L20.656,1.54 L16.912,1.54 L16.912,10 L18.436,10 Z M20.44,5.416 L18.424,5.416 L18.424,2.74 L20.44,2.74 C21.024,2.74 21.452,2.846 21.724,3.058 C21.996,3.27 22.132,3.608 22.132,4.072 C22.132,4.528 21.996,4.866 21.724,5.086 C21.452,5.306 21.024,5.416 20.44,5.416 L20.44,5.416 Z M27.904,10.096 C28.32,10.096 28.734,10.028 29.146,9.892 C29.558,9.756 29.9,9.576 30.172,9.352 L30.172,9.352 L29.74,8.32 C29.204,8.736 28.612,8.944 27.964,8.944 C27.444,8.944 27.044,8.812 26.764,8.548 C26.484,8.284 26.32,7.88 26.272,7.336 L26.272,7.336 L30.268,7.336 L30.268,6.916 C30.268,6.004 30.034,5.288 29.566,4.768 C29.098,4.248 28.46,3.988 27.652,3.988 C27.1,3.988 26.606,4.116 26.17,4.372 C25.734,4.628 25.396,4.988 25.156,5.452 C24.916,5.916 24.796,6.448 24.796,7.048 C24.796,7.992 25.074,8.736 25.63,9.28 C26.186,9.824 26.944,10.096 27.904,10.096 Z M28.984,6.532 L26.272,6.532 C26.328,6.052 26.478,5.684 26.722,5.428 C26.966,5.172 27.288,5.044 27.688,5.044 C28.088,5.044 28.4,5.17 28.624,5.422 C28.848,5.674 28.968,6.044 28.984,6.532 L28.984,6.532 Z M34.168,10.096 C34.6,10.096 35.016,10.03 35.416,9.898 C35.816,9.766 36.144,9.584 36.4,9.352 L36.4,9.352 L35.968,8.308 C35.72,8.508 35.458,8.66 35.182,8.764 C34.906,8.868 34.632,8.92 34.36,8.92 C33.84,8.92 33.436,8.758 33.148,8.434 C32.86,8.11 32.716,7.648 32.716,7.048 C32.716,6.44 32.86,5.974 33.148,5.65 C33.436,5.326 33.84,5.164 34.36,5.164 C34.632,5.164 34.906,5.216 35.182,5.32 C35.458,5.424 35.72,5.576 35.968,5.776 L35.968,5.776 L36.4,4.72 C36.16,4.496 35.842,4.318 35.446,4.186 C35.05,4.054 34.644,3.988 34.228,3.988 C33.62,3.988 33.084,4.116 32.62,4.372 C32.156,4.628 31.798,4.99 31.546,5.458 C31.294,5.926 31.168,6.464 31.168,7.072 C31.168,7.68 31.288,8.212 31.528,8.668 C31.768,9.124 32.114,9.476 32.566,9.724 C33.018,9.972 33.552,10.096 34.168,10.096 Z M40.024,10.096 C40.624,10.096 41.15,9.972 41.602,9.724 C42.054,9.476 42.402,9.12 42.646,8.656 C42.89,8.192 43.012,7.652 43.012,7.036 C43.012,6.42 42.89,5.882 42.646,5.422 C42.402,4.962 42.054,4.608 41.602,4.36 C41.15,4.112 40.624,3.988 40.024,3.988 C39.424,3.988 38.898,4.112 38.446,4.36 C37.994,4.608 37.644,4.962 37.396,5.422 C37.148,5.882 37.024,6.42 37.024,7.036 C37.024,7.652 37.148,8.192 37.396,8.656 C37.644,9.12 37.994,9.476 38.446,9.724 C38.898,9.972 39.424,10.096 40.024,10.096 Z M40.012,8.932 C39.532,8.932 39.164,8.772 38.908,8.452 C38.652,8.132 38.524,7.66 38.524,7.036 C38.524,6.42 38.654,5.95 38.914,5.626 C39.174,5.302 39.544,5.14 40.024,5.14 C40.504,5.14 40.872,5.302 41.128,5.626 C41.384,5.95 41.512,6.42 41.512,7.036 C41.512,7.66 41.384,8.132 41.128,8.452 C40.872,8.772 40.5,8.932 40.012,8.932 Z M45.748,10 L45.748,6.832 C45.748,5.928 46.244,5.424 47.236,5.32 L47.236,5.32 L48.112,5.236 L48.016,3.976 L47.56,4.012 C46.608,4.076 45.98,4.46 45.676,5.164 L45.676,5.164 L45.676,4.132 L44.248,4.132 L44.248,10 L45.748,10 Z M51.124,10.096 C51.548,10.096 51.926,10.004 52.258,9.82 C52.59,9.636 52.844,9.38 53.02,9.052 L53.02,9.052 L53.02,10 L54.508,10 L54.508,1.54 L53.008,1.54 L53.008,4.996 C52.832,4.676 52.58,4.428 52.252,4.252 C51.924,4.076 51.548,3.988 51.124,3.988 C50.612,3.988 50.16,4.112 49.768,4.36 C49.376,4.608 49.07,4.96 48.85,5.416 C48.63,5.872 48.52,6.404 48.52,7.012 C48.52,7.62 48.63,8.158 48.85,8.626 C49.07,9.094 49.378,9.456 49.774,9.712 C50.17,9.968 50.62,10.096 51.124,10.096 Z M51.52,8.932 C51.048,8.932 50.68,8.764 50.416,8.428 C50.152,8.092 50.02,7.62 50.02,7.012 C50.02,6.412 50.152,5.952 50.416,5.632 C50.68,5.312 51.052,5.152 51.532,5.152 C52.004,5.152 52.37,5.314 52.63,5.638 C52.89,5.962 53.02,6.428 53.02,7.036 C53.02,7.644 52.89,8.112 52.63,8.44 C52.37,8.768 52,8.932 51.52,8.932 Z M57.628,2.884 L57.628,1.408 L55.972,1.408 L55.972,2.884 L57.628,2.884 Z M57.556,10 L57.556,4.132 L56.056,4.132 L56.056,10 L57.556,10 Z M60.604,10 L60.604,6.676 C60.604,6.22 60.734,5.856 60.994,5.584 C61.254,5.312 61.6,5.176 62.032,5.176 C62.4,5.176 62.67,5.28 62.842,5.488 C63.014,5.696 63.1,6.028 63.1,6.484 L63.1,6.484 L63.1,10 L64.6,10 L64.6,6.4 C64.6,5.592 64.428,4.988 64.084,4.588 C63.74,4.188 63.216,3.988 62.512,3.988 C62.088,3.988 61.708,4.076 61.372,4.252 C61.036,4.428 60.768,4.68 60.568,5.008 L60.568,5.008 L60.568,4.132 L59.104,4.132 L59.104,10 L60.604,10 Z M68.824,12.256 C69.816,12.256 70.566,12.02 71.074,11.548 C71.582,11.076 71.836,10.38 71.836,9.46 L71.836,9.46 L71.836,4.132 L70.348,4.132 L70.348,5.02 C70.172,4.692 69.916,4.438 69.58,4.258 C69.244,4.078 68.86,3.988 68.428,3.988 C67.916,3.988 67.46,4.11 67.06,4.354 C66.66,4.598 66.35,4.942 66.13,5.386 C65.91,5.83 65.8,6.34 65.8,6.916 C65.8,7.492 65.912,8 66.136,8.44 C66.36,8.88 66.67,9.222 67.066,9.466 C67.462,9.71 67.916,9.832 68.428,9.832 C68.86,9.832 69.244,9.742 69.58,9.562 C69.916,9.382 70.172,9.128 70.348,8.8 L70.348,8.8 L70.348,9.568 C70.348,10.592 69.828,11.104 68.788,11.104 C68.012,11.104 67.26,10.884 66.532,10.444 L66.532,10.444 L66.112,11.5 C66.464,11.74 66.876,11.926 67.348,12.058 C67.82,12.19 68.312,12.256 68.824,12.256 Z M68.824,8.668 C68.352,8.668 67.98,8.51 67.708,8.194 C67.436,7.878 67.3,7.452 67.3,6.916 C67.3,6.364 67.436,5.932 67.708,5.62 C67.98,5.308 68.352,5.152 68.824,5.152 C69.304,5.152 69.678,5.308 69.946,5.62 C70.214,5.932 70.348,6.364 70.348,6.916 C70.348,7.46 70.214,7.888 69.946,8.2 C69.678,8.512 69.304,8.668 68.824,8.668 Z" id="Recording" fill-rule="nonzero"></path>
            </g>
        </g>
    </g>
</svg>