<?xml version="1.0" encoding="UTF-8"?>
<svg width="36px" height="108px" viewBox="0 0 36 108" version="1.1" xmlns="http://www.w3.org/2000/svg" xmlns:xlink="http://www.w3.org/1999/xlink">
    <title>Group 22</title>
    <g id="Page-1" stroke="none" stroke-width="1" fill="none" fill-rule="evenodd">
        <g id="Group-8" transform="translate(-16.000000, -16.000000)">
            <g id="Group-22" transform="translate(16.000000, 16.000000)">
                <rect id="Rectangle" stroke="#979797" fill="#D8D8D8" opacity="0" x="0" y="36" width="36" height="36"></rect>
                <rect id="Rectangle" stroke="#979797" fill="#D8D8D8" opacity="0" x="0" y="72" width="36" height="36"></rect>
                <g id="Group" transform="translate(10.000000, 82.000000)" fill="#ADB5BD" fill-rule="nonzero">
                    <g id="icon3">
                        <path d="M13.3333333,9.5866 L11.3333333,8.5866 L11.3333333,7.41326667 L13.3333333,6.41326667 L13.3333333,9.5866 Z M10,9.99993333 C10,10.3686 9.702,10.6666 9.33333333,10.6666 L3.33333333,10.6666 C2.96533333,10.6666 2.66666667,10.3686 2.66666667,9.99993333 L2.66666667,5.99993333 C2.66666667,5.63193333 2.96533333,5.33326667 3.33333333,5.33326667 L9.33333333,5.33326667 C9.702,5.33326667 10,5.63193333 10,5.99993333 L10,9.99993333 Z M14.3533333,4.7666 C14.1473333,4.64726667 13.8933333,4.64726667 13.6866667,4.7666 L11.3333333,5.9266 C11.2933333,4.8506 10.41,3.99926667 9.33333333,3.99993294 L3.33333333,3.99993294 C2.22866667,3.99993294 1.33333333,4.89526667 1.33333333,5.99993294 L1.33333333,9.99993294 C1.33333333,11.1046 2.22866667,11.9999329 3.33333333,11.9999329 L9.33333333,11.9999329 C10.41,12.0006 11.2933333,11.1492667 11.3333333,10.0732667 L13.7066667,11.2599333 C13.7973333,11.3066 13.898,11.3312667 14,11.3332667 C14.1246667,11.3339333 14.2473333,11.2986 14.3533333,11.2332667 C14.5486667,11.1112667 14.6673333,10.8972667 14.6666695,10.6666 L14.6666695,5.33326667 C14.6673333,5.1026 14.5486667,4.8886 14.3533333,4.7666 L14.3533333,4.7666 Z" id="Fill-1"></path>
                    </g>
                </g>
                <g id="Group" transform="translate(10.000000, 46.000000)" fill="#ADB5BD" fill-rule="nonzero">
                    <g id="icon2">
                        <path d="M12,10.638 L4,10.638 L4,9.97133333 C4,9.60266667 4.29866667,9.30466667 4.66666667,9.30466667 L11.3333333,9.30466667 C11.702,9.30466667 12,9.60266667 12,9.97133333 L12,10.638 Z M8,12.638 C7.52666667,12.6353333 7.09,12.3813333 6.85333333,11.9713333 L9.14666667,11.9713333 C8.91,12.3813333 8.47333333,12.6353333 8,12.638 L8,12.638 Z M5.33333333,5.97133333 C5.33333333,4.49866667 6.52733333,3.30466667 8,3.30466667 C9.47266667,3.30466667 10.6666667,4.49866667 10.6666667,5.97133333 L10.6666667,7.97133333 L5.33333333,7.97133333 L5.33333333,5.97133333 Z M12,8.09133333 L12,5.97133333 C11.998,4.02133333 10.59,2.35666667 8.66666667,2.03133333 C8.66666667,2.03133333 8.368,2 8,2 C7.632,2 7.33333333,2.03133333 7.33333333,2.03133333 C5.41,2.35666667 4.002,4.02133333 4,5.97133333 L4,8.09133333 C3.20266667,8.37333333 2.66866667,9.12533333 2.66666667,9.97133333 L2.66666667,11.3046667 C2.66666667,11.6733333 2.96533333,11.9713333 3.33333333,11.9713333 L5.42666667,11.9713333 C5.81266667,13.3926667 7.278,14.232 8.69933333,13.8453333 C9.612,13.5966667 10.3253333,12.884 10.5733333,11.9713333 L12.6666667,11.9713333 C13.0353333,11.9713333 13.3333333,11.6733333 13.3333333,11.3046667 L13.3333333,9.97133333 C13.3306667,9.12533333 12.7966667,8.37333333 12,8.09133333 L12,8.09133333 Z" id="Fill-1"></path>
                    </g>
                </g>
                <rect id="Rectangle" stroke="#979797" fill="#D8D8D8" opacity="0" x="0" y="0" width="36" height="36"></rect>
                <g id="Group" transform="translate(10.000000, 10.000000)" fill="#ADB5BD" fill-rule="nonzero">
                    <g id="2.-Icons/Copy-Copy-3">
                        <path d="M14,7.33333333 L2,7.33333333 C1.632,7.33333333 1.33333333,7.632 1.33333333,8 C1.33333333,8.368 1.632,8.66666667 2,8.66666667 L14,8.66666667 C14.3686667,8.66666667 14.6666667,8.368 14.6666667,8 C14.6666667,7.632 14.3686667,7.33333333 14,7.33333333 M14,10.6666667 L2,10.6666667 C1.632,10.6666667 1.33333333,10.9646667 1.33333333,11.3333333 C1.33333333,11.702 1.632,12 2,12 L14,12 C14.3686667,12 14.6666667,11.702 14.6666667,11.3333333 C14.6666667,10.9646667 14.3686667,10.6666667 14,10.6666667 M2,5.33333333 L14,5.33333333 C14.3686667,5.33333333 14.6666667,5.03466667 14.6666667,4.66666667 C14.6666667,4.29866667 14.3686667,4 14,4 L2,4 C1.632,4 1.33333333,4.29866667 1.33333333,4.66666667 C1.33333333,5.03466667 1.632,5.33333333 2,5.33333333" id="Fill-1"></path>
                    </g>
                </g>
            </g>
        </g>
    </g>
</svg>