<?xml version="1.0" encoding="UTF-8"?>
<svg width="224px" height="61px" viewBox="0 0 224 61" version="1.1" xmlns="http://www.w3.org/2000/svg" xmlns:xlink="http://www.w3.org/1999/xlink">
    <title>Group 4</title>
    <defs>
        <rect id="path-1" x="0" y="0" width="202" height="39" rx="4"></rect>
        <filter x="-8.4%" y="-38.5%" width="116.8%" height="187.2%" filterUnits="objectBoundingBox" id="filter-2">
            <feOffset dx="0" dy="2" in="SourceAlpha" result="shadowOffsetOuter1"></feOffset>
            <feGaussianBlur stdDeviation="5" in="shadowOffsetOuter1" result="shadowBlurOuter1"></feGaussianBlur>
            <feColorMatrix values="0 0 0 0 0.129411765   0 0 0 0 0.141176471   0 0 0 0 0.156862745  0 0 0 0.15 0" type="matrix" in="shadowBlurOuter1" result="shadowMatrixOuter1"></feColorMatrix>
            <feOffset dx="0" dy="1" in="SourceAlpha" result="shadowOffsetOuter2"></feOffset>
            <feGaussianBlur stdDeviation="1.5" in="shadowOffsetOuter2" result="shadowBlurOuter2"></feGaussianBlur>
            <feColorMatrix values="0 0 0 0 0.129411765   0 0 0 0 0.141176471   0 0 0 0 0.156862745  0 0 0 0.294771635 0" type="matrix" in="shadowBlurOuter2" result="shadowMatrixOuter2"></feColorMatrix>
            <feMorphology radius="0.5" operator="dilate" in="SourceAlpha" result="shadowSpreadOuter3"></feMorphology>
            <feOffset dx="0" dy="0" in="shadowSpreadOuter3" result="shadowOffsetOuter3"></feOffset>
            <feColorMatrix values="0 0 0 0 0.129411765   0 0 0 0 0.145098039   0 0 0 0 0.160784314  0 0 0 0.15 0" type="matrix" in="shadowOffsetOuter3" result="shadowMatrixOuter3"></feColorMatrix>
            <feMerge>
                <feMergeNode in="shadowMatrixOuter1"></feMergeNode>
                <feMergeNode in="shadowMatrixOuter2"></feMergeNode>
                <feMergeNode in="shadowMatrixOuter3"></feMergeNode>
            </feMerge>
        </filter>
        <filter x="-5.9%" y="-25.6%" width="111.9%" height="161.5%" filterUnits="objectBoundingBox" id="filter-3">
            <feGaussianBlur stdDeviation="0.5" in="SourceAlpha" result="shadowBlurInner1"></feGaussianBlur>
            <feOffset dx="0" dy="1" in="shadowBlurInner1" result="shadowOffsetInner1"></feOffset>
            <feComposite in="shadowOffsetInner1" in2="SourceAlpha" operator="arithmetic" k2="-1" k3="1" result="shadowInnerInner1"></feComposite>
            <feColorMatrix values="0 0 0 0 1   0 0 0 0 1   0 0 0 0 1  0 0 0 0.703097684 0" type="matrix" in="shadowInnerInner1"></feColorMatrix>
        </filter>
    </defs>
    <g id="Diseños" stroke="none" stroke-width="1" fill="none" fill-rule="evenodd">
        <g id="Artboard" transform="translate(-294.000000, -1412.000000)">
            <g id="Group-4" transform="translate(305.000000, 1421.000000)">
                <g id="Rectangle">
                    <use fill="black" fill-opacity="1" filter="url(#filter-2)" xlink:href="#path-1"></use>
                    <use fill="#FFFFFF" fill-rule="evenodd" xlink:href="#path-1"></use>
                    <use fill="black" fill-opacity="1" filter="url(#filter-3)" xlink:href="#path-1"></use>
                </g>
                <g id="check" transform="translate(16.000000, 12.000000)" stroke="#16AABF" stroke-width="1.5">
                    <path d="M0,7.25 C0,3.24594 3.24594,0 7.25,0 L7.25,0 C11.2541,0 14.5,3.24594 14.5,7.25 L14.5,7.25 C14.5,11.2541 11.2541,14.5 7.25,14.5 L7.25,14.5 C3.24594,14.5 0,11.2541 0,7.25 L0,7.25 Z" id="Path"></path>
                    <path d="M5,8 L5.4337,8.9244 C5.7775,9.657 6.8036,9.6992 7.2064,8.9973 L9.5,5" id="Path"></path>
                </g>
                <path d="M45.576,24 L45.576,22.776 L41.424,22.776 L41.424,20.304 L45.336,20.304 L45.336,19.092 L41.424,19.092 L41.424,16.764 L45.576,16.764 L45.576,15.54 L39.912,15.54 L39.912,24 L45.576,24 Z M49.872,24 L52.44,18.144 L50.964,18.144 L49.26,22.284 L47.604,18.144 L46.02,18.144 L48.564,24 L49.872,24 Z M54.732,16.884 L54.732,15.408 L53.076,15.408 L53.076,16.884 L54.732,16.884 Z M54.66,24 L54.66,18.132 L53.16,18.132 L53.16,24 L54.66,24 Z M58.488,24.096 C58.912,24.096 59.29,24.004 59.622,23.82 C59.954,23.636 60.208,23.38 60.384,23.052 L60.384,23.052 L60.384,24 L61.872,24 L61.872,15.54 L60.372,15.54 L60.372,18.996 C60.196,18.676 59.944,18.428 59.616,18.252 C59.288,18.076 58.912,17.988 58.488,17.988 C57.976,17.988 57.524,18.112 57.132,18.36 C56.74,18.608 56.434,18.96 56.214,19.416 C55.994,19.872 55.884,20.404 55.884,21.012 C55.884,21.62 55.994,22.158 56.214,22.626 C56.434,23.094 56.742,23.456 57.138,23.712 C57.534,23.968 57.984,24.096 58.488,24.096 Z M58.884,22.932 C58.412,22.932 58.044,22.764 57.78,22.428 C57.516,22.092 57.384,21.62 57.384,21.012 C57.384,20.412 57.516,19.952 57.78,19.632 C58.044,19.312 58.416,19.152 58.896,19.152 C59.368,19.152 59.734,19.314 59.994,19.638 C60.254,19.962 60.384,20.428 60.384,21.036 C60.384,21.644 60.254,22.112 59.994,22.44 C59.734,22.768 59.364,22.932 58.884,22.932 Z M66.204,24.096 C66.62,24.096 67.034,24.028 67.446,23.892 C67.858,23.756 68.2,23.576 68.472,23.352 L68.472,23.352 L68.04,22.32 C67.504,22.736 66.912,22.944 66.264,22.944 C65.744,22.944 65.344,22.812 65.064,22.548 C64.784,22.284 64.62,21.88 64.572,21.336 L64.572,21.336 L68.568,21.336 L68.568,20.916 C68.568,20.004 68.334,19.288 67.866,18.768 C67.398,18.248 66.76,17.988 65.952,17.988 C65.4,17.988 64.906,18.116 64.47,18.372 C64.034,18.628 63.696,18.988 63.456,19.452 C63.216,19.916 63.096,20.448 63.096,21.048 C63.096,21.992 63.374,22.736 63.93,23.28 C64.486,23.824 65.244,24.096 66.204,24.096 Z M67.284,20.532 L64.572,20.532 C64.628,20.052 64.778,19.684 65.022,19.428 C65.266,19.172 65.588,19.044 65.988,19.044 C66.388,19.044 66.7,19.17 66.924,19.422 C67.148,19.674 67.268,20.044 67.284,20.532 L67.284,20.532 Z M71.292,24 L71.292,20.676 C71.292,20.22 71.422,19.856 71.682,19.584 C71.942,19.312 72.288,19.176 72.72,19.176 C73.088,19.176 73.358,19.28 73.53,19.488 C73.702,19.696 73.788,20.028 73.788,20.484 L73.788,20.484 L73.788,24 L75.288,24 L75.288,20.4 C75.288,19.592 75.116,18.988 74.772,18.588 C74.428,18.188 73.904,17.988 73.2,17.988 C72.776,17.988 72.396,18.076 72.06,18.252 C71.724,18.428 71.456,18.68 71.256,19.008 L71.256,19.008 L71.256,18.132 L69.792,18.132 L69.792,24 L71.292,24 Z M79.488,24.096 C79.92,24.096 80.336,24.03 80.736,23.898 C81.136,23.766 81.464,23.584 81.72,23.352 L81.72,23.352 L81.288,22.308 C81.04,22.508 80.778,22.66 80.502,22.764 C80.226,22.868 79.952,22.92 79.68,22.92 C79.16,22.92 78.756,22.758 78.468,22.434 C78.18,22.11 78.036,21.648 78.036,21.048 C78.036,20.44 78.18,19.974 78.468,19.65 C78.756,19.326 79.16,19.164 79.68,19.164 C79.952,19.164 80.226,19.216 80.502,19.32 C80.778,19.424 81.04,19.576 81.288,19.776 L81.288,19.776 L81.72,18.72 C81.48,18.496 81.162,18.318 80.766,18.186 C80.37,18.054 79.964,17.988 79.548,17.988 C78.94,17.988 78.404,18.116 77.94,18.372 C77.476,18.628 77.118,18.99 76.866,19.458 C76.614,19.926 76.488,20.464 76.488,21.072 C76.488,21.68 76.608,22.212 76.848,22.668 C77.088,23.124 77.434,23.476 77.886,23.724 C78.338,23.972 78.872,24.096 79.488,24.096 Z M84.24,16.884 L84.24,15.408 L82.584,15.408 L82.584,16.884 L84.24,16.884 Z M84.168,24 L84.168,18.132 L82.668,18.132 L82.668,24 L84.168,24 Z M87.588,24.096 C87.972,24.096 88.31,24.008 88.602,23.832 C88.894,23.656 89.108,23.412 89.244,23.1 L89.244,23.1 L89.244,24 L90.672,24 L90.672,20.436 C90.672,19.604 90.472,18.988 90.072,18.588 C89.672,18.188 89.06,17.988 88.236,17.988 C87.82,17.988 87.38,18.056 86.916,18.192 C86.452,18.328 86.056,18.5 85.728,18.708 L85.728,18.708 L86.148,19.74 C86.476,19.548 86.81,19.398 87.15,19.29 C87.49,19.182 87.816,19.128 88.128,19.128 C88.528,19.128 88.814,19.216 88.986,19.392 C89.158,19.568 89.244,19.856 89.244,20.256 L89.244,20.256 L89.244,20.532 L88.944,20.532 C88.072,20.532 87.388,20.588 86.892,20.7 C86.396,20.812 86.038,20.992 85.818,21.24 C85.598,21.488 85.488,21.828 85.488,22.26 C85.488,22.604 85.58,22.916 85.764,23.196 C85.948,23.476 86.2,23.696 86.52,23.856 C86.84,24.016 87.196,24.096 87.588,24.096 Z M87.888,23.016 C87.616,23.016 87.392,22.934 87.216,22.77 C87.04,22.606 86.952,22.396 86.952,22.14 C86.952,21.932 87.016,21.768 87.144,21.648 C87.272,21.528 87.484,21.444 87.78,21.396 C88.076,21.348 88.492,21.324 89.028,21.324 L89.028,21.324 L89.244,21.324 L89.244,21.576 C89.244,22 89.118,22.346 88.866,22.614 C88.614,22.882 88.288,23.016 87.888,23.016 Z M96.948,24 L96.948,20.832 C96.948,19.928 97.444,19.424 98.436,19.32 L98.436,19.32 L99.312,19.236 L99.216,17.976 L98.76,18.012 C97.808,18.076 97.18,18.46 96.876,19.164 L96.876,19.164 L96.876,18.132 L95.448,18.132 L95.448,24 L96.948,24 Z M102.828,24.096 C103.244,24.096 103.658,24.028 104.07,23.892 C104.482,23.756 104.824,23.576 105.096,23.352 L105.096,23.352 L104.664,22.32 C104.128,22.736 103.536,22.944 102.888,22.944 C102.368,22.944 101.968,22.812 101.688,22.548 C101.408,22.284 101.244,21.88 101.196,21.336 L101.196,21.336 L105.192,21.336 L105.192,20.916 C105.192,20.004 104.958,19.288 104.49,18.768 C104.022,18.248 103.384,17.988 102.576,17.988 C102.024,17.988 101.53,18.116 101.094,18.372 C100.658,18.628 100.32,18.988 100.08,19.452 C99.84,19.916 99.72,20.448 99.72,21.048 C99.72,21.992 99.998,22.736 100.554,23.28 C101.11,23.824 101.868,24.096 102.828,24.096 Z M103.908,20.532 L101.196,20.532 C101.252,20.052 101.402,19.684 101.646,19.428 C101.89,19.172 102.212,19.044 102.612,19.044 C103.012,19.044 103.324,19.17 103.548,19.422 C103.772,19.674 103.892,20.044 103.908,20.532 L103.908,20.532 Z M109.116,26.256 C110.108,26.256 110.858,26.02 111.366,25.548 C111.874,25.076 112.128,24.38 112.128,23.46 L112.128,23.46 L112.128,18.132 L110.64,18.132 L110.64,19.02 C110.464,18.692 110.208,18.438 109.872,18.258 C109.536,18.078 109.152,17.988 108.72,17.988 C108.208,17.988 107.752,18.11 107.352,18.354 C106.952,18.598 106.642,18.942 106.422,19.386 C106.202,19.83 106.092,20.34 106.092,20.916 C106.092,21.492 106.204,22 106.428,22.44 C106.652,22.88 106.962,23.222 107.358,23.466 C107.754,23.71 108.208,23.832 108.72,23.832 C109.152,23.832 109.536,23.742 109.872,23.562 C110.208,23.382 110.464,23.128 110.64,22.8 L110.64,22.8 L110.64,23.568 C110.64,24.592 110.12,25.104 109.08,25.104 C108.304,25.104 107.552,24.884 106.824,24.444 L106.824,24.444 L106.404,25.5 C106.756,25.74 107.168,25.926 107.64,26.058 C108.112,26.19 108.604,26.256 109.116,26.256 Z M109.116,22.668 C108.644,22.668 108.272,22.51 108,22.194 C107.728,21.878 107.592,21.452 107.592,20.916 C107.592,20.364 107.728,19.932 108,19.62 C108.272,19.308 108.644,19.152 109.116,19.152 C109.596,19.152 109.97,19.308 110.238,19.62 C110.506,19.932 110.64,20.364 110.64,20.916 C110.64,21.46 110.506,21.888 110.238,22.2 C109.97,22.512 109.596,22.668 109.116,22.668 Z M115.248,16.884 L115.248,15.408 L113.592,15.408 L113.592,16.884 L115.248,16.884 Z M115.176,24 L115.176,18.132 L113.676,18.132 L113.676,24 L115.176,24 Z M118.884,24.096 C119.636,24.096 120.232,23.936 120.672,23.616 C121.112,23.296 121.332,22.864 121.332,22.32 C121.332,21.872 121.196,21.51 120.924,21.234 C120.652,20.958 120.224,20.756 119.64,20.628 L119.64,20.628 L118.644,20.4 C118.388,20.344 118.202,20.264 118.086,20.16 C117.97,20.056 117.912,19.924 117.912,19.764 C117.912,19.548 118.004,19.38 118.188,19.26 C118.372,19.14 118.628,19.08 118.956,19.08 C119.564,19.08 120.172,19.3 120.78,19.74 L120.78,19.74 L121.2,18.72 C120.904,18.488 120.562,18.308 120.174,18.18 C119.786,18.052 119.384,17.988 118.968,17.988 C118.488,17.988 118.066,18.064 117.702,18.216 C117.338,18.368 117.054,18.582 116.85,18.858 C116.646,19.134 116.544,19.452 116.544,19.812 C116.544,20.244 116.676,20.596 116.94,20.868 C117.204,21.14 117.608,21.336 118.152,21.456 L118.152,21.456 L119.112,21.672 C119.432,21.752 119.654,21.84 119.778,21.936 C119.902,22.032 119.964,22.168 119.964,22.344 C119.964,22.552 119.874,22.712 119.694,22.824 C119.514,22.936 119.252,22.992 118.908,22.992 C118.1,22.992 117.384,22.764 116.76,22.308 L116.76,22.308 L116.34,23.352 C116.644,23.592 117.014,23.776 117.45,23.904 C117.886,24.032 118.364,24.096 118.884,24.096 Z M125.364,24.084 C125.564,24.084 125.784,24.072 126.024,24.048 L126.024,24.048 L126.096,22.932 C125.904,22.956 125.72,22.968 125.544,22.968 C124.816,22.968 124.452,22.576 124.452,21.792 L124.452,21.792 L124.452,19.26 L126,19.26 L126,18.132 L124.452,18.132 L124.452,16.38 L122.952,16.38 L122.952,18.132 L121.824,18.132 L121.824,19.26 L122.952,19.26 L122.952,21.816 C122.952,22.568 123.148,23.134 123.54,23.514 C123.932,23.894 124.54,24.084 125.364,24.084 Z M128.472,24 L128.472,20.832 C128.472,19.928 128.968,19.424 129.96,19.32 L129.96,19.32 L130.836,19.236 L130.74,17.976 L130.284,18.012 C129.332,18.076 128.704,18.46 128.4,19.164 L128.4,19.164 L128.4,18.132 L126.972,18.132 L126.972,24 L128.472,24 Z M133.44,24.096 C133.824,24.096 134.162,24.008 134.454,23.832 C134.746,23.656 134.96,23.412 135.096,23.1 L135.096,23.1 L135.096,24 L136.524,24 L136.524,20.436 C136.524,19.604 136.324,18.988 135.924,18.588 C135.524,18.188 134.912,17.988 134.088,17.988 C133.672,17.988 133.232,18.056 132.768,18.192 C132.304,18.328 131.908,18.5 131.58,18.708 L131.58,18.708 L132,19.74 C132.328,19.548 132.662,19.398 133.002,19.29 C133.342,19.182 133.668,19.128 133.98,19.128 C134.38,19.128 134.666,19.216 134.838,19.392 C135.01,19.568 135.096,19.856 135.096,20.256 L135.096,20.256 L135.096,20.532 L134.796,20.532 C133.924,20.532 133.24,20.588 132.744,20.7 C132.248,20.812 131.89,20.992 131.67,21.24 C131.45,21.488 131.34,21.828 131.34,22.26 C131.34,22.604 131.432,22.916 131.616,23.196 C131.8,23.476 132.052,23.696 132.372,23.856 C132.692,24.016 133.048,24.096 133.44,24.096 Z M133.74,23.016 C133.468,23.016 133.244,22.934 133.068,22.77 C132.892,22.606 132.804,22.396 132.804,22.14 C132.804,21.932 132.868,21.768 132.996,21.648 C133.124,21.528 133.336,21.444 133.632,21.396 C133.928,21.348 134.344,21.324 134.88,21.324 L134.88,21.324 L135.096,21.324 L135.096,21.576 C135.096,22 134.97,22.346 134.718,22.614 C134.466,22.882 134.14,23.016 133.74,23.016 Z M140.328,24.096 C140.752,24.096 141.13,24.004 141.462,23.82 C141.794,23.636 142.048,23.38 142.224,23.052 L142.224,23.052 L142.224,24 L143.712,24 L143.712,15.54 L142.212,15.54 L142.212,18.996 C142.036,18.676 141.784,18.428 141.456,18.252 C141.128,18.076 140.752,17.988 140.328,17.988 C139.816,17.988 139.364,18.112 138.972,18.36 C138.58,18.608 138.274,18.96 138.054,19.416 C137.834,19.872 137.724,20.404 137.724,21.012 C137.724,21.62 137.834,22.158 138.054,22.626 C138.274,23.094 138.582,23.456 138.978,23.712 C139.374,23.968 139.824,24.096 140.328,24.096 Z M140.724,22.932 C140.252,22.932 139.884,22.764 139.62,22.428 C139.356,22.092 139.224,21.62 139.224,21.012 C139.224,20.412 139.356,19.952 139.62,19.632 C139.884,19.312 140.256,19.152 140.736,19.152 C141.208,19.152 141.574,19.314 141.834,19.638 C142.094,19.962 142.224,20.428 142.224,21.036 C142.224,21.644 142.094,22.112 141.834,22.44 C141.574,22.768 141.204,22.932 140.724,22.932 Z M147.132,24.096 C147.516,24.096 147.854,24.008 148.146,23.832 C148.438,23.656 148.652,23.412 148.788,23.1 L148.788,23.1 L148.788,24 L150.216,24 L150.216,20.436 C150.216,19.604 150.016,18.988 149.616,18.588 C149.216,18.188 148.604,17.988 147.78,17.988 C147.364,17.988 146.924,18.056 146.46,18.192 C145.996,18.328 145.6,18.5 145.272,18.708 L145.272,18.708 L145.692,19.74 C146.02,19.548 146.354,19.398 146.694,19.29 C147.034,19.182 147.36,19.128 147.672,19.128 C148.072,19.128 148.358,19.216 148.53,19.392 C148.702,19.568 148.788,19.856 148.788,20.256 L148.788,20.256 L148.788,20.532 L148.488,20.532 C147.616,20.532 146.932,20.588 146.436,20.7 C145.94,20.812 145.582,20.992 145.362,21.24 C145.142,21.488 145.032,21.828 145.032,22.26 C145.032,22.604 145.124,22.916 145.308,23.196 C145.492,23.476 145.744,23.696 146.064,23.856 C146.384,24.016 146.74,24.096 147.132,24.096 Z M147.432,23.016 C147.16,23.016 146.936,22.934 146.76,22.77 C146.584,22.606 146.496,22.396 146.496,22.14 C146.496,21.932 146.56,21.768 146.688,21.648 C146.816,21.528 147.028,21.444 147.324,21.396 C147.62,21.348 148.036,21.324 148.572,21.324 L148.572,21.324 L148.788,21.324 L148.788,21.576 C148.788,22 148.662,22.346 148.41,22.614 C148.158,22.882 147.832,23.016 147.432,23.016 Z" id="Evidenciaregistrada" fill="#4E5155" fill-rule="nonzero"></path>
            </g>
        </g>
    </g>
</svg>