<?xml version="1.0" encoding="UTF-8"?>
<svg width="302px" height="86px" viewBox="0 0 302 86" version="1.1" xmlns="http://www.w3.org/2000/svg" xmlns:xlink="http://www.w3.org/1999/xlink">
    <title>logo-Guardian</title>
    <defs>
        <path d="M5.79696,28.46456 L5.79696,19.84344 L7.6178,19.84344 C11.48244,19.84344 14.45524,19.15598 16.5362,17.78106 C18.61716,16.40614 19.65764,14.1703467 19.65764,11.07368 C19.65764,8.00178667 18.6295467,5.79076667 16.57336,4.44062 C14.5171733,3.09047333 11.5691467,2.4154 7.72928,2.4154 C6.66402667,2.4154 5.42536,2.46494667 4.01328,2.56404 C2.6012,2.66313333 1.26344,2.83654667 0,3.08428 L0,3.08428 L0,28.46456 L5.79696,28.46456 Z M7.6178,14.90116 L5.79696,14.90116 L5.79696,7.46916 C6.09424,7.44438667 6.44726,7.41961333 6.85602,7.39484 C7.26478,7.37006667 7.67973333,7.35768 8.10088,7.35768 C8.94317333,7.35768 9.71114667,7.41342 10.4048,7.5249 C11.0984533,7.63638 11.68682,7.83456667 12.1699,8.11946 C12.65298,8.40435333 13.02458,8.78214667 13.2847,9.25284 C13.54482,9.72353333 13.67488,10.3180933 13.67488,11.03652 C13.67488,12.52292 13.1670267,13.5386267 12.15132,14.08364 C11.1356133,14.6286533 9.62444,14.90116 7.6178,14.90116 L7.6178,14.90116 Z" id="path-1"></path>
        <path d="M29.91596,28.87332 C31.9226,28.87332 33.63196,28.7556467 35.04404,28.5203 C36.45612,28.2849533 37.5585333,28.0805733 38.35128,27.90716 L38.35128,27.90716 L38.35128,16.38756 C38.35128,15.1736667 38.2150267,14.0712533 37.94252,13.08032 C37.6700133,12.0893867 37.2055133,11.2470933 36.54902,10.55344 C35.8925267,9.85978667 35.0192667,9.32716 33.92924,8.95556 C32.8392133,8.58396 31.47668,8.39816 29.84164,8.39816 C29.1975333,8.39816 28.55962,8.42912667 27.9279,8.49106 C27.29618,8.55299333 26.6954267,8.62731333 26.12564,8.71402 C25.5558533,8.80072667 25.02942,8.89982 24.54634,9.0113 C24.06326,9.12278 23.6606933,9.22806667 23.33864,9.32716 L23.33864,9.32716 L24.04468,13.78636 C24.71356,13.5386267 25.5063067,13.3466333 26.42292,13.21038 C27.3395333,13.0741267 28.2685333,13.006 29.20992,13.006 C30.622,13.006 31.6129333,13.2908933 32.18272,13.86068 C32.7525067,14.4304667 33.0374,15.1860533 33.0374,16.12744 L33.0374,16.12744 L33.0374,16.64768 C32.6905733,16.5485867 32.23846,16.4680733 31.68106,16.40614 C31.12366,16.3442067 30.4857467,16.31324 29.76732,16.31324 C28.7020667,16.31324 27.6739733,16.4185267 26.68304,16.6291 C25.6921067,16.8396733 24.8126533,17.1803067 24.04468,17.651 C23.2767067,18.1216933 22.6635667,18.7534133 22.20526,19.54616 C21.7469533,20.3389067 21.5178,21.3050667 21.5178,22.44464 C21.5178,23.63376 21.7159867,24.63708 22.11236,25.4546 C22.5087333,26.27212 23.07852,26.9348067 23.82172,27.44266 C24.56492,27.9505133 25.4505667,28.31592 26.47866,28.53888 C27.5067533,28.76184 28.65252,28.87332 29.91596,28.87332 Z M30.28756,24.59992 C29.2718533,24.59992 28.4729133,24.4327 27.89074,24.09826 C27.3085667,23.76382 27.01748,23.1630667 27.01748,22.296 C27.01748,21.85008 27.1165733,21.47848 27.31476,21.1812 C27.5129467,20.88392 27.7854533,20.6485733 28.13228,20.47516 C28.4791067,20.3017467 28.8816733,20.1840733 29.33998,20.12214 C29.7982867,20.0602067 30.28756,20.02924 30.8078,20.02924 C31.1794,20.02924 31.58816,20.0540133 32.03408,20.10356 C32.48,20.1531067 32.81444,20.2026533 33.0374,20.2522 L33.0374,20.2522 L33.0374,24.45128 C32.74012,24.5008267 32.3437467,24.5379867 31.84828,24.56276 C31.3528133,24.5875333 30.8325733,24.59992 30.28756,24.59992 Z M48.90472,28.46456 L48.90472,13.3776 C49.2515467,13.3280533 49.64792,13.2847 50.09384,13.24754 C50.53976,13.21038 50.9609067,13.1918 51.35728,13.1918 C52.6454933,13.1918 53.5249467,13.5634 53.99564,14.3066 C54.4663333,15.0498 54.70168,16.31324 54.70168,18.09692 L54.70168,18.09692 L54.70168,28.46456 L60.23852,28.46456 L60.23852,17.42804 C60.23852,16.09028 60.1022667,14.8763867 59.82976,13.78636 C59.5572533,12.6963333 59.0989467,11.7549467 58.45484,10.9622 C57.8107333,10.1694533 56.9374733,9.55631333 55.83506,9.12278 C54.7326467,8.68924667 53.3515333,8.47248 51.69172,8.47248 C50.05668,8.47248 48.49596,8.59015333 47.00956,8.8255 C45.52316,9.06084667 44.3092667,9.31477333 43.36788,9.58728 L43.36788,9.58728 L43.36788,28.46456 L48.90472,28.46456 Z M73.95056,28.9848 C75.4121867,28.9848 76.7313667,28.7370667 77.9081,28.2416 C79.0848333,27.7461333 80.0943467,27.0462867 80.93664,26.14206 C81.7789333,25.2378333 82.42304,24.1478067 82.86896,22.87198 C83.31488,21.5961533 83.53784,20.1902667 83.53784,18.65432 C83.53784,17.1183733 83.3024933,15.71868 82.8318,14.45524 C82.3611067,13.1918 81.7046133,12.11416 80.86232,11.22232 C80.0200267,10.33048 79.0105133,9.63682667 77.83378,9.14136 C76.6570467,8.64589333 75.36264,8.39816 73.95056,8.39816 C72.5632533,8.39816 71.2812333,8.64589333 70.1045,9.14136 C68.9277667,9.63682667 67.91206,10.33048 67.05738,11.22232 C66.2027,12.11416 65.53382,13.1918 65.05074,14.45524 C64.56766,15.71868 64.32612,17.1183733 64.32612,18.65432 C64.32612,20.1902667 64.5614667,21.5961533 65.03216,22.87198 C65.5028533,24.1478067 66.1593467,25.2378333 67.00164,26.14206 C67.8439333,27.0462867 68.8534467,27.7461333 70.03018,28.2416 C71.2069133,28.7370667 72.5137067,28.9848 73.95056,28.9848 Z M73.95056,24.22832 C72.68712,24.22832 71.7085733,23.72666 71.01492,22.72334 C70.3212667,21.72002 69.97444,20.36368 69.97444,18.65432 C69.97444,16.94496 70.3212667,15.6010067 71.01492,14.62246 C71.7085733,13.6439133 72.68712,13.15464 73.95056,13.15464 C75.214,13.15464 76.1863533,13.6439133 76.86762,14.62246 C77.5488867,15.6010067 77.88952,16.94496 77.88952,18.65432 C77.88952,20.36368 77.5488867,21.72002 76.86762,22.72334 C76.1863533,23.72666 75.214,24.22832 73.95056,24.22832 Z M93.34808,35.33916 L93.34808,27.98148 C93.9674133,28.2539867 94.61152,28.46456 95.2804,28.6132 C95.94928,28.76184 96.6677067,28.83616 97.43568,28.83616 C98.8229867,28.83616 100.049267,28.5884267 101.11452,28.09296 C102.179773,27.5974933 103.071613,26.90384 103.79004,26.012 C104.508467,25.12016 105.05348,24.0549067 105.42508,22.81624 C105.79668,21.5775733 105.98248,20.2026533 105.98248,18.69148 C105.98248,17.13076 105.753327,15.71868 105.29502,14.45524 C104.836713,13.1918 104.174027,12.1203533 103.30696,11.2409 C102.439893,10.3614467 101.37464,9.68018 100.1112,9.1971 C98.84776,8.71402 97.4109067,8.47248 95.80064,8.47248 C95.13176,8.47248 94.4319133,8.50344667 93.7011,8.56538 C92.9702867,8.62731333 92.25186,8.70782667 91.54582,8.80692 C90.83978,8.90601333 90.1647067,9.02368667 89.5206,9.15994 C88.8764933,9.29619333 88.3067067,9.43864 87.81124,9.58728 L87.81124,9.58728 L87.81124,35.33916 L93.34808,35.33916 Z M96.3952,24.154 C95.8254133,24.154 95.26182,24.07968 94.70442,23.93104 C94.14702,23.7824 93.6949067,23.5966 93.34808,23.37364 L93.34808,23.37364 L93.34808,13.3776 C93.6205867,13.3280533 93.9674133,13.2847 94.38856,13.24754 C94.8097067,13.21038 95.2680133,13.1918 95.76348,13.1918 C97.2746533,13.1918 98.4142267,13.7058467 99.1822,14.73394 C99.9501733,15.7620333 100.33416,17.13076 100.33416,18.84012 C100.33416,22.3827067 99.0211733,24.154 96.3952,24.154 Z M117.79936,28.91048 C118.98848,28.91048 119.9918,28.8113867 120.80932,28.6132 C121.62684,28.4150133 122.37004,28.1796667 123.03892,27.90716 L123.03892,27.90716 L122.25856,23.5966 C121.73832,23.7947867 121.16234,23.94962 120.53062,24.0611 C119.8989,24.17258 119.28576,24.22832 118.6912,24.22832 C117.452533,24.22832 116.62882,23.8814933 116.22006,23.18784 C115.8113,22.4941867 115.60692,21.5651867 115.60692,20.40084 L115.60692,20.40084 L115.60692,13.52624 L122.25856,13.52624 L122.25856,8.9184 L115.60692,8.9184 L115.60692,3.1586 L110.07008,4.05044 L110.07008,20.47516 C110.07008,21.7386 110.187753,22.89056 110.4231,23.93104 C110.658447,24.97152 111.0734,25.8571667 111.66796,26.58798 C112.26252,27.3187933 113.055267,27.88858 114.0462,28.29734 C115.037133,28.7061 116.288187,28.91048 117.79936,28.91048 Z M129.50476,6.54016 C130.3966,6.54016 131.170767,6.24907333 131.82726,5.6669 C132.483753,5.08472667 132.812,4.28578667 132.812,3.27008 C132.812,2.25437333 132.483753,1.45543333 131.82726,0.87326 C131.170767,0.291086667 130.3966,0 129.50476,0 C128.61292,0 127.838753,0.291086667 127.18226,0.87326 C126.525767,1.45543333 126.19752,2.25437333 126.19752,3.27008 C126.19752,4.28578667 126.525767,5.08472667 127.18226,5.6669 C127.838753,6.24907333 128.61292,6.54016 129.50476,6.54016 Z M132.29176,28.46456 L132.29176,8.9184 L126.75492,8.9184 L126.75492,28.46456 L132.29176,28.46456 Z" id="path-2"></path>
        <path d="M146.74124,28.9848 C147.905587,28.9848 148.97084,28.8857067 149.937,28.68752 C150.90316,28.4893333 151.708293,28.2539867 152.3524,27.98148 L152.3524,27.98148 L151.57204,23.44796 C150.927933,23.7204667 150.221893,23.9186533 149.45392,24.04252 C148.685947,24.1663867 147.96752,24.22832 147.29864,24.22832 C145.415867,24.22832 144.096687,23.74524 143.3411,22.77908 C142.585513,21.81292 142.20772,20.4503867 142.20772,18.69148 C142.20772,17.0316667 142.610287,15.6939067 143.41542,14.6782 C144.220553,13.6624933 145.44064,13.15464 147.07568,13.15464 C147.843653,13.15464 148.537307,13.22896 149.15664,13.3776 C149.775973,13.52624 150.34576,13.6996533 150.866,13.89784 L150.866,13.89784 L152.01796,9.4758 C151.20044,9.12897333 150.358147,8.86266 149.49108,8.67686 C148.624013,8.49106 147.67024,8.39816 146.62976,8.39816 C145.044267,8.39816 143.632187,8.67066667 142.39352,9.21568 C141.154853,9.76069333 140.101987,10.4977 139.23492,11.4267 C138.367853,12.3557 137.705167,13.4457267 137.24686,14.69678 C136.788553,15.9478333 136.5594,17.2794 136.5594,18.69148 C136.5594,20.1531067 136.751393,21.5094467 137.13538,22.7605 C137.519367,24.0115533 138.126313,25.0953867 138.95622,26.012 C139.786127,26.9286133 140.845187,27.6532333 142.1334,28.18586 C143.421613,28.7184867 144.95756,28.9848 146.74124,28.9848 Z" id="path-3"></path>
        <path d="M163.87384,28.9848 C165.335467,28.9848 166.654647,28.7370667 167.83138,28.2416 C169.008113,27.7461333 170.017627,27.0462867 170.85992,26.14206 C171.702213,25.2378333 172.34632,24.1478067 172.79224,22.87198 C173.23816,21.5961533 173.46112,20.1902667 173.46112,18.65432 C173.46112,17.1183733 173.225773,15.71868 172.75508,14.45524 C172.284387,13.1918 171.627893,12.11416 170.7856,11.22232 C169.943307,10.33048 168.933793,9.63682667 167.75706,9.14136 C166.580327,8.64589333 165.28592,8.39816 163.87384,8.39816 C162.486533,8.39816 161.204513,8.64589333 160.02778,9.14136 C158.851047,9.63682667 157.83534,10.33048 156.98066,11.22232 C156.12598,12.11416 155.4571,13.1918 154.97402,14.45524 C154.49094,15.71868 154.2494,17.1183733 154.2494,18.65432 C154.2494,20.1902667 154.484747,21.5961533 154.95544,22.87198 C155.426133,24.1478067 156.082627,25.2378333 156.92492,26.14206 C157.767213,27.0462867 158.776727,27.7461333 159.95346,28.2416 C161.130193,28.7370667 162.436987,28.9848 163.87384,28.9848 Z M163.87384,24.22832 C162.6104,24.22832 161.631853,23.72666 160.9382,22.72334 C160.244547,21.72002 159.89772,20.36368 159.89772,18.65432 C159.89772,16.94496 160.244547,15.6010067 160.9382,14.62246 C161.631853,13.6439133 162.6104,13.15464 163.87384,13.15464 C165.13728,13.15464 166.109633,13.6439133 166.7909,14.62246 C167.472167,15.6010067 167.8128,16.94496 167.8128,18.65432 C167.8128,20.36368 167.472167,21.72002 166.7909,22.72334 C166.109633,23.72666 165.13728,24.22832 163.87384,24.22832 Z" id="path-4"></path>
    </defs>
    <g id="Diseños" stroke="none" stroke-width="1" fill="none" fill-rule="evenodd">
        <g id="Artboard" transform="translate(-180.000000, -239.000000)" fill-rule="nonzero">
            <g id="logo-Guardian" transform="translate(180.799988, 239.401857)">
                <g id="Group" transform="translate(126.952812, 14.603583)">
                    <g id="P">
                        <use fill="#000000" xlink:href="#path-1"></use>
                        <use fill="#FFFFFF" xlink:href="#path-1"></use>
                    </g>
                    <g id="anopti">
                        <use fill="#000000" xlink:href="#path-2"></use>
                        <use fill="#FFFFFF" xlink:href="#path-2"></use>
                    </g>
                    <g id="c">
                        <use fill="#000000" xlink:href="#path-3"></use>
                        <use fill="#FFFFFF" xlink:href="#path-3"></use>
                    </g>
                    <g id="o">
                        <use fill="#000000" xlink:href="#path-4"></use>
                        <use fill="#FFFFFF" xlink:href="#path-4"></use>
                    </g>
                </g>
                <path d="M134.054592,69.3705533 C135.605838,69.3705533 136.909908,69.2640117 137.966802,69.0509283 C139.023695,68.837845 139.790795,68.6375467 140.268102,68.4500333 L140.268102,68.4500333 L140.268102,59.6795233 L136.279182,59.6795233 L136.279182,65.8418933 C136.040528,65.8930333 135.76352,65.9271267 135.448157,65.9441733 C135.132793,65.96122 134.753505,65.9697433 134.310292,65.9697433 C133.492052,65.9697433 132.776092,65.8291083 132.162412,65.5478383 C131.548732,65.2665683 131.037332,64.8702333 130.628212,64.3588333 C130.219092,63.8474333 129.912252,63.238015 129.707692,62.5305783 C129.503132,61.8231417 129.400852,61.0347333 129.400852,60.1653533 C129.400852,58.3754533 129.814233,56.9648417 130.640997,55.9335183 C131.46776,54.902195 132.810185,54.3865333 134.668272,54.3865333 C135.503558,54.3865333 136.27492,54.493075 136.982357,54.7061583 C137.689793,54.9192417 138.316258,55.17068 138.861752,55.4604733 L138.861752,55.4604733 L140.012402,52.2642233 C139.876028,52.17899 139.65016,52.0596633 139.334797,51.9062433 C139.019433,51.7528233 138.618837,51.603665 138.133007,51.4587683 C137.647177,51.3138717 137.06759,51.1860217 136.394247,51.0752183 C135.720903,50.964415 134.966588,50.9090133 134.131302,50.9090133 C132.903942,50.9090133 131.74903,51.1135733 130.666567,51.5226933 C129.584103,51.9318133 128.642275,52.5327083 127.841082,53.3253783 C127.039888,54.1180483 126.409162,55.0854467 125.948902,56.2275733 C125.488642,57.3697 125.258512,58.6822933 125.258512,60.1653533 C125.258512,61.6313667 125.467333,62.9354367 125.884977,64.0775633 C126.30262,65.21969 126.894992,66.1828267 127.662092,66.9669733 C128.429192,67.75112 129.353973,68.3477533 130.436437,68.7568733 C131.5189,69.1659933 132.724952,69.3705533 134.054592,69.3705533 Z M149.473302,69.3449833 C150.598382,69.3449833 151.672322,69.2640117 152.695122,69.1020683 C153.717922,68.940125 154.553208,68.7653967 155.200982,68.5778833 L155.200982,68.5778833 L155.200982,55.5883233 L151.391052,55.5883233 L151.391052,65.9697433 C151.152398,66.0038367 150.879652,66.0336683 150.572812,66.0592383 C150.265972,66.0848083 149.976178,66.0975933 149.703432,66.0975933 C148.817005,66.0975933 148.211848,65.8248467 147.887962,65.2793533 C147.564075,64.73386 147.402132,63.8474333 147.402132,62.6200733 L147.402132,62.6200733 L147.402132,55.5883233 L143.592202,55.5883233 L143.592202,63.0803333 C143.592202,64.0008533 143.685958,64.8446633 143.873472,65.6117633 C144.060985,66.3788633 144.376348,67.0394217 144.819562,67.5934383 C145.262775,68.147455 145.86367,68.5778833 146.622247,68.8847233 C147.380823,69.1915633 148.331175,69.3449833 149.473302,69.3449833 Z M163.664652,69.3194133 C165.045432,69.3194133 166.221652,69.2384417 167.193312,69.0764983 C168.164972,68.914555 168.923548,68.77392 169.469042,68.6545933 L169.469042,68.6545933 L169.469042,60.7278933 C169.469042,59.8926067 169.375285,59.13403 169.187772,58.4521633 C169.000258,57.7702967 168.680633,57.19071 168.228897,56.7134033 C167.77716,56.2360967 167.176265,55.8695933 166.426212,55.6138933 C165.676158,55.3581933 164.738592,55.2303433 163.613512,55.2303433 C163.170298,55.2303433 162.731347,55.2516517 162.296657,55.2942683 C161.861967,55.336885 161.448585,55.388025 161.056512,55.4476883 C160.664438,55.5073517 160.302197,55.5755383 159.969787,55.6522483 C159.637377,55.7289583 159.360368,55.8014067 159.138762,55.8695933 L159.138762,55.8695933 L159.624592,58.9379933 C160.084852,58.7675267 160.630345,58.635415 161.261072,58.5416583 C161.891798,58.4479017 162.531048,58.4010233 163.178822,58.4010233 C164.150482,58.4010233 164.832348,58.59706 165.224422,58.9891333 C165.616495,59.3812067 165.812532,59.90113 165.812532,60.5489033 L165.812532,60.5489033 L165.812532,60.9068833 C165.573878,60.8386967 165.262777,60.783295 164.879227,60.7406783 C164.495677,60.6980617 164.056725,60.6767533 163.562372,60.6767533 C162.829365,60.6767533 162.121928,60.7492017 161.440062,60.8940983 C160.758195,61.038995 160.153038,61.2733867 159.624592,61.5972733 C159.096145,61.92116 158.67424,62.35585 158.358877,62.9013433 C158.043513,63.4468367 157.885832,64.1116567 157.885832,64.8958033 C157.885832,65.7140433 158.022205,66.4044333 158.294952,66.9669733 C158.567698,67.5295133 158.959772,67.9855117 159.471172,68.3349683 C159.982572,68.684425 160.59199,68.9358633 161.299427,69.0892833 C162.006863,69.2427033 162.795272,69.3194133 163.664652,69.3194133 Z M163.920352,66.3788633 C163.221438,66.3788633 162.671683,66.2637983 162.271087,66.0336683 C161.87049,65.8035383 161.670192,65.3901567 161.670192,64.7935233 C161.670192,64.4866833 161.738378,64.2309833 161.874752,64.0264233 C162.011125,63.8218633 162.198638,63.65992 162.437292,63.5405933 C162.675945,63.4212667 162.952953,63.340295 163.268317,63.2976783 C163.58368,63.2550617 163.920352,63.2337533 164.278332,63.2337533 C164.534032,63.2337533 164.815302,63.2508 165.122142,63.2848933 C165.428982,63.3189867 165.659112,63.35308 165.812532,63.3871733 L165.812532,63.3871733 L165.812532,66.2765833 C165.607972,66.3106767 165.335225,66.3362467 164.994292,66.3532933 C164.653358,66.37034 164.295378,66.3788633 163.920352,66.3788633 Z M176.730922,69.0381433 L176.730922,58.7590033 C176.901388,58.7078633 177.152827,58.660985 177.485237,58.6183683 C177.817647,58.5757517 178.103178,58.5544433 178.341832,58.5544433 C178.870278,58.5544433 179.364632,58.6013217 179.824892,58.6950783 C180.285152,58.788835 180.685748,58.87833 181.026682,58.9635633 L181.026682,58.9635633 L181.665932,55.8184533 C181.461372,55.73322 181.214195,55.6607717 180.924402,55.6011083 C180.634608,55.541445 180.344815,55.490305 180.055022,55.4476883 C179.765228,55.4050717 179.475435,55.3709783 179.185642,55.3454083 C178.895848,55.3198383 178.648672,55.3070533 178.444112,55.3070533 C177.301985,55.3070533 176.2664,55.413595 175.337357,55.6266783 C174.408313,55.8397617 173.602858,56.06563 172.920992,56.3042833 L172.920992,56.3042833 L172.920992,69.0381433 L176.730922,69.0381433 Z M189.822762,69.3705533 C190.283022,69.3705533 190.76459,69.349245 191.267467,69.3066283 C191.770343,69.2640117 192.264697,69.20861 192.750527,69.1404233 C193.236357,69.0722367 193.700878,68.991265 194.144092,68.8975083 C194.587305,68.8037517 194.979378,68.7057333 195.320312,68.6034533 L195.320312,68.6034533 L195.320312,49.1958233 L191.510382,49.8095033 L191.510382,55.8951633 C191.084215,55.70765 190.66231,55.5627533 190.244667,55.4604733 C189.827023,55.3581933 189.353978,55.3070533 188.825532,55.3070533 C187.870918,55.3070533 187.022847,55.4689967 186.281317,55.7928833 C185.539787,56.11677 184.913322,56.5855533 184.401922,57.1992333 C183.890522,57.8129133 183.498448,58.558705 183.225702,59.4366083 C182.952955,60.3145117 182.816582,61.2989567 182.816582,62.3899433 C182.816582,63.4638833 182.974263,64.4312817 183.289627,65.2921383 C183.60499,66.152995 184.060988,66.8860017 184.657622,67.4911583 C185.254255,68.096315 185.987262,68.5608367 186.856642,68.8847233 C187.726022,69.20861 188.714728,69.3705533 189.822762,69.3705533 Z M189.848332,66.1231633 C188.808485,66.1231633 188.024338,65.7651833 187.495892,65.0492233 C186.967445,64.3332633 186.703222,63.3871733 186.703222,62.2109533 C186.703222,59.7562333 187.606695,58.5288733 189.413642,58.5288733 C189.805715,58.5288733 190.193527,58.5800133 190.577077,58.6822933 C190.960627,58.7845733 191.271728,58.9124233 191.510382,59.0658433 L191.510382,59.0658433 L191.510382,65.9953133 C191.322868,66.0294067 191.084215,66.0592383 190.794422,66.0848083 C190.504628,66.1103783 190.189265,66.1231633 189.848332,66.1231633 Z M200.792292,53.9518433 C201.405972,53.9518433 201.93868,53.751545 202.390417,53.3509483 C202.842153,52.9503517 203.068022,52.4005967 203.068022,51.7016833 C203.068022,51.00277 202.842153,50.453015 202.390417,50.0524183 C201.93868,49.6518217 201.405972,49.4515233 200.792292,49.4515233 C200.178612,49.4515233 199.645903,49.6518217 199.194167,50.0524183 C198.74243,50.453015 198.516562,51.00277 198.516562,51.7016833 C198.516562,52.4005967 198.74243,52.9503517 199.194167,53.3509483 C199.645903,53.751545 200.178612,53.9518433 200.792292,53.9518433 Z M202.710042,69.0381433 L202.710042,55.5883233 L198.900112,55.5883233 L198.900112,69.0381433 L202.710042,69.0381433 Z M211.173712,69.3194133 C212.554492,69.3194133 213.730712,69.2384417 214.702372,69.0764983 C215.674032,68.914555 216.432608,68.77392 216.978102,68.6545933 L216.978102,68.6545933 L216.978102,60.7278933 C216.978102,59.8926067 216.884345,59.13403 216.696832,58.4521633 C216.509318,57.7702967 216.189693,57.19071 215.737957,56.7134033 C215.28622,56.2360967 214.685325,55.8695933 213.935272,55.6138933 C213.185218,55.3581933 212.247652,55.2303433 211.122572,55.2303433 C210.679358,55.2303433 210.240407,55.2516517 209.805717,55.2942683 C209.371027,55.336885 208.957645,55.388025 208.565572,55.4476883 C208.173498,55.5073517 207.811257,55.5755383 207.478847,55.6522483 C207.146437,55.7289583 206.869428,55.8014067 206.647822,55.8695933 L206.647822,55.8695933 L207.133652,58.9379933 C207.593912,58.7675267 208.139405,58.635415 208.770132,58.5416583 C209.400858,58.4479017 210.040108,58.4010233 210.687882,58.4010233 C211.659542,58.4010233 212.341408,58.59706 212.733482,58.9891333 C213.125555,59.3812067 213.321592,59.90113 213.321592,60.5489033 L213.321592,60.5489033 L213.321592,60.9068833 C213.082938,60.8386967 212.771837,60.783295 212.388287,60.7406783 C212.004737,60.6980617 211.565785,60.6767533 211.071432,60.6767533 C210.338425,60.6767533 209.630988,60.7492017 208.949122,60.8940983 C208.267255,61.038995 207.662098,61.2733867 207.133652,61.5972733 C206.605205,61.92116 206.1833,62.35585 205.867937,62.9013433 C205.552573,63.4468367 205.394892,64.1116567 205.394892,64.8958033 C205.394892,65.7140433 205.531265,66.4044333 205.804012,66.9669733 C206.076758,67.5295133 206.468832,67.9855117 206.980232,68.3349683 C207.491632,68.684425 208.10105,68.9358633 208.808487,69.0892833 C209.515923,69.2427033 210.304332,69.3194133 211.173712,69.3194133 Z M211.429412,66.3788633 C210.730498,66.3788633 210.180743,66.2637983 209.780147,66.0336683 C209.37955,65.8035383 209.179252,65.3901567 209.179252,64.7935233 C209.179252,64.4866833 209.247438,64.2309833 209.383812,64.0264233 C209.520185,63.8218633 209.707698,63.65992 209.946352,63.5405933 C210.185005,63.4212667 210.462013,63.340295 210.777377,63.2976783 C211.09274,63.2550617 211.429412,63.2337533 211.787392,63.2337533 C212.043092,63.2337533 212.324362,63.2508 212.631202,63.2848933 C212.938042,63.3189867 213.168172,63.35308 213.321592,63.3871733 L213.321592,63.3871733 L213.321592,66.2765833 C213.117032,66.3106767 212.844285,66.3362467 212.503352,66.3532933 C212.162418,66.37034 211.804438,66.3788633 211.429412,66.3788633 Z M224.239982,69.0381433 L224.239982,58.6567233 C224.478635,58.62263 224.751382,58.5927983 225.058222,58.5672283 C225.365062,58.5416583 225.654855,58.5288733 225.927602,58.5288733 C226.814028,58.5288733 227.419185,58.7845733 227.743072,59.2959733 C228.066958,59.8073733 228.228902,60.6767533 228.228902,61.9041133 L228.228902,61.9041133 L228.228902,69.0381433 L232.038832,69.0381433 L232.038832,61.4438533 C232.038832,60.5233333 231.945075,59.6880467 231.757562,58.9379933 C231.570048,58.18794 231.254685,57.5401667 230.811472,56.9946733 C230.368258,56.44918 229.767363,56.027275 229.008787,55.7289583 C228.25021,55.4306417 227.299858,55.2814833 226.157732,55.2814833 C225.032652,55.2814833 223.958712,55.362455 222.935912,55.5243983 C221.913112,55.6863417 221.077825,55.86107 220.430052,56.0485833 L220.430052,56.0485833 L220.430052,69.0381433 L224.239982,69.0381433 Z" id="Guardian" fill="#E6E6E6"></path>
                <path d="M102.360012,15.8081433 L76.5500117,0.908143332 C74.4486272,-0.302714444 71.8613962,-0.302714444 69.7600117,0.908143332 L52.9100117,10.5981433 L55.9100117,12.3081433 C56.071427,12.3746995 56.2284149,12.4515233 56.3800117,12.5381433 L82.2000117,27.4781433 C84.2988239,28.6922742 85.5909319,30.9334525 85.5900117,33.3581433 L85.5900117,33.3581433 L85.5900117,63.1581433 L85.5900117,63.1581433 L85.5900117,63.2281433 C85.5886039,63.5021937 85.5719113,63.7759522 85.5400117,64.0481433 C85.5400117,64.1881433 85.4800117,64.3281433 85.4500117,64.4681433 C85.4200117,64.6081433 85.4500117,64.7581433 85.3600117,64.9081433 C85.315782,65.0775873 85.2623698,65.2445005 85.2000117,65.4081433 C85.2000117,65.5081433 85.1300117,65.6181433 85.0900117,65.7281433 C85.0500117,65.8381433 84.9200117,66.0781433 84.8300117,66.2581433 C84.7400117,66.4381433 84.7600117,66.4181433 84.7100117,66.4981433 C84.6084257,66.6820761 84.494847,66.8591252 84.3700117,67.0281433 C84.3301189,67.0937633 84.2867227,67.1571884 84.2400117,67.2181433 C84.1110561,67.3937836 83.970757,67.5608064 83.8200117,67.7181433 L83.6800117,67.8781433 C83.5300117,68.0381433 83.3600117,68.1781433 83.1900117,68.3281433 L83.0300117,68.4681433 L82.5000117,68.8481433 L82.3400117,68.9481433 L82.2900117,68.9481433 L82.2000117,68.9981433 L102.410012,57.3381433 C104.508901,56.1192156 105.800023,53.8753064 105.800023,51.4481433 L105.800023,21.6981433 C105.804507,19.2698814 104.511921,17.0240603 102.410012,15.8081433" id="Path" fill="#FFFFFF"></path>
                <path d="M83.6300117,67.8781433 C83.4800117,68.0381433 83.3100117,68.1781433 83.1400117,68.3281433 C83.3100117,68.1781433 83.4800117,68.0381433 83.6300117,67.8781433" id="Path" fill="#935EFA"></path>
                <path d="M84.2000117,67.2181433 C84.0710561,67.3937836 83.930757,67.5608064 83.7800117,67.7181433 C83.930757,67.5608064 84.0710561,67.3937836 84.2000117,67.2181433" id="Path" fill="#935EFA"></path>
                <polyline id="Path" fill="#935EFA" points="82.9800117 68.4681433 82.4500117 68.8481433 82.9800117 68.4681433"></polyline>
                <path d="M85.4900117,64.0481433 C85.4900117,64.1881433 85.4300117,64.3281433 85.4000117,64.4581433 C85.4000117,64.3281433 85.4700117,64.1881433 85.4900117,64.0481433" id="Path" fill="#935EFA"></path>
                <path d="M85.3100117,64.9081433 C85.265782,65.0775873 85.2123698,65.2445005 85.1500117,65.4081433 C85.2123698,65.2445005 85.265782,65.0775873 85.3100117,64.9081433" id="Path" fill="#935EFA"></path>
                <path d="M85.0400117,65.7281433 C84.9600117,65.9081433 84.8700117,66.0781433 84.7800117,66.2581433 C84.8700117,66.0781433 84.9600117,65.9081433 85.0400117,65.7281433" id="Path" fill="#935EFA"></path>
                <path d="M84.6600117,66.4981433 C84.5560332,66.6806393 84.4425436,66.8575495 84.3200117,67.0281433 C84.444847,66.8591252 84.5584257,66.6820761 84.6600117,66.4981433" id="Path" fill="#935EFA"></path>
                <path d="M76.4200117,72.3481433 C76.3300117,72.3981433 76.2300117,72.4281433 76.1400117,72.4681433 L56.2700117,83.9481433 C55.2484126,84.5378384 54.08959,84.8483813 52.9100117,84.8481433 C54.113002,84.8582284 55.2969519,84.547571 56.3400117,83.9481433 L82.2000117,69.0481433 L82.2000117,69.0481433 L82.2900117,68.9981433 L76.4200117,72.3481433 Z" id="Path" fill="#935EFA"></path>
                <path d="M61.8700117,15.8081433 L61.8700117,15.8081433 L82.0700117,27.4681433 C84.1711654,28.6812421 85.466809,30.9219436 85.4700117,33.3481433 L85.4700117,63.1481433 C85.4662678,65.5768135 84.1712459,67.8202486 82.0700117,69.0381433 L76.1300117,72.4581433 L76.4100117,72.3381433 L82.2200117,68.9781433 L82.2800117,68.9781433 L82.4400117,68.8781433 L82.9700117,68.4981433 L83.1300117,68.3581433 C83.3000117,68.2081433 83.4700117,68.0681433 83.6200117,67.9081433 L83.7600117,67.7481433 C83.910757,67.5908064 84.0510561,67.4237836 84.1800117,67.2481433 C84.2267227,67.1871884 84.2701189,67.1237633 84.3100117,67.0581433 C84.4325436,66.8875495 84.5460332,66.7106393 84.6500117,66.5281433 C84.6500117,66.4481433 84.7300117,66.3681433 84.7700117,66.2881433 C84.8100117,66.2081433 84.9500117,65.9381433 85.0300117,65.7581433 C85.1100117,65.5781433 85.1000117,65.5381433 85.1400117,65.4381433 C85.2023698,65.2745005 85.255782,65.1075873 85.3000117,64.9381433 C85.3000117,64.7881433 85.3600117,64.6381433 85.3900117,64.4981433 C85.4200117,64.3581433 85.4600117,64.2181433 85.4800117,64.0781433 C85.5119113,63.8059522 85.5286039,63.5321937 85.5300122,63.2581433 L85.5300122,33.3581433 L85.5300122,33.3581433 C85.5309319,30.9334525 84.2388239,28.6922742 82.1400117,27.4781433 L56.3400117,12.5981433 C56.1884149,12.5115233 56.031427,12.4346995 55.8700117,12.3681433 L61.8700117,15.8081433 Z" id="Path" fill="#935EFA"></path>
                <path d="M23.5300117,68.9481433 L23.3800117,68.8481433 C23.1900117,68.7281433 23.0100117,68.5981433 22.8400117,68.4681433 L22.6800117,68.3281433 C22.5100117,68.1781433 22.3400117,68.0381433 22.1900117,67.8781433 L22.0500117,67.7181433 C21.9100117,67.5581433 21.7600117,67.3981433 21.6300117,67.2181433 C21.5000117,67.0381433 21.5500117,67.0881433 21.5000117,67.0281433 C21.3751764,66.8591252 21.2615977,66.6820761 21.1600117,66.4981433 C21.1100117,66.4181433 21.0800117,66.3381433 21.0400117,66.2581433 C21.0000117,66.1781433 20.8600117,65.9081433 20.7800117,65.7281433 C20.7000117,65.5481433 20.7100117,65.5081433 20.6700117,65.4081433 C20.6076535,65.2445005 20.5542413,65.0775873 20.5100117,64.9081433 C20.5100117,64.7581433 20.4500117,64.6081433 20.4200117,64.4681433 C20.3837109,64.3301513 20.3569807,64.1898176 20.3400117,64.0481433 C20.2997652,63.7766694 20.2797102,63.5025842 20.2800117,63.2281433 L20.2800117,63.1581433 L20.2800117,63.1581433 L20.2800117,33.3581433 L20.2800117,33.3581433 C20.2790915,30.9334525 21.5711994,28.6922742 23.6700117,27.4781433 L49.4800117,12.5981433 C49.9949157,12.3013955 50.546198,12.072815 51.1200117,11.9181433 L51.3100117,11.9181433 C51.5300117,11.9181433 51.7500117,11.8181433 51.9800117,11.7881433 L52.3000117,11.7881433 C52.4798748,11.7782174 52.6601485,11.7782174 52.8400117,11.7881433 C52.9800117,11.7881433 53.1100117,11.7881433 53.2500117,11.7881433 L53.7000117,11.7881433 C53.8600117,11.7881433 54.0100117,11.8481433 54.1600117,11.8781433 C54.2950958,11.8951533 54.4287763,11.9218894 54.5600117,11.9581433 C54.7194445,11.9990219 54.8763743,12.0491058 55.0300117,12.1081433 C55.1500117,12.1081433 55.2700117,12.1781433 55.3900117,12.2281433 C55.5100117,12.2781433 55.7000117,12.3681433 55.8600117,12.4381433 L56.1400117,12.5781433 L56.2300117,12.6281433 L56.2300117,12.6281433 L61.8400117,15.8681433 L61.8400117,15.8681433 L55.8400117,12.4081433 L52.8400117,10.6981433 L35.9900117,0.968143332 C33.8886272,-0.242714444 31.3013962,-0.242714444 29.2000117,0.968143332 L3.39001169,15.8681433 C1.28810253,17.0840603 -0.00448377444,19.3298814 0,21.7581433 L0,51.5481433 C0,53.9753064 1.29112243,56.2192156 3.39001169,57.4381433 L23.6000117,69.0981433 L23.5200117,69.0481433 L23.5300117,68.9481433 Z" id="Path" fill="#FFFFFF"></path>
                <path d="M20.4200117,64.4581433 C20.4200117,64.3281433 20.3500117,64.1881433 20.3300117,64.0481433 C20.3300117,64.1881433 20.3900117,64.3281433 20.4200117,64.4581433" id="Path" fill="#935EFA"></path>
                <path d="M22.6800117,68.3281433 C22.5100117,68.1781433 22.3400117,68.0381433 22.1900117,67.8781433 C22.3400117,68.0381433 22.5100117,68.1781433 22.6800117,68.3281433" id="Path" fill="#935EFA"></path>
                <path d="M23.3800117,68.8481433 C23.1900117,68.7281433 23.0100117,68.5981433 22.8400117,68.4681433 C23.0100117,68.5981433 23.1900117,68.7281433 23.3800117,68.8481433" id="Path" fill="#935EFA"></path>
                <path d="M22.0500117,67.7181433 C21.9100117,67.5581433 21.7600117,67.3981433 21.6300117,67.2181433 C21.7600117,67.3981433 21.9100117,67.5581433 22.0500117,67.7181433" id="Path" fill="#935EFA"></path>
                <path d="M20.6700117,65.4081433 C20.6076535,65.2445005 20.5542413,65.0775873 20.5100117,64.9081433 C20.5542413,65.0775873 20.6076535,65.2445005 20.6700117,65.4081433" id="Path" fill="#935EFA"></path>
                <path d="M21.0400117,66.2581433 C20.9500117,66.0781433 20.8600117,65.9081433 20.7800117,65.7281433 C20.8600117,65.9081433 20.9500117,66.0781433 21.0400117,66.2581433" id="Path" fill="#935EFA"></path>
                <path d="M21.5000117,67.0281433 C21.3774798,66.8575495 21.2639902,66.6806393 21.1600117,66.4981433 C21.2615977,66.6820761 21.3751764,66.8591252 21.5000117,67.0281433" id="Path" fill="#935EFA"></path>
                <polyline id="Path" fill="#935EFA" points="51.1200117 11.8981433 51.3100117 11.8981433 51.1200117 11.8981433"></polyline>
                <polyline id="Path" fill="#935EFA" points="53.2500117 11.6881433 52.8400117 11.6881433 53.2500117 11.6881433"></polyline>
                <polyline id="Path" fill="#935EFA" points="52.3000117 11.7081433 51.9800117 11.7081433 52.3000117 11.7081433"></polyline>
                <path d="M54.5600117,11.8881433 C54.7194445,11.9290219 54.8763743,11.9791058 55.0300117,12.0381433 C54.8763743,11.9791058 54.7194445,11.9290219 54.5600117,11.8881433" id="Path" fill="#935EFA"></path>
                <path d="M55.3900117,12.1581433 C55.548003,12.2213111 55.7016681,12.294803 55.8500117,12.3781433 C55.7016681,12.294803 55.548003,12.2213111 55.3900117,12.1581433" id="Path" fill="#935EFA"></path>
                <path d="M53.7000117,11.7181433 C53.8600117,11.7181433 54.0100117,11.7781433 54.1600117,11.8081433 C54.0100117,11.8081433 53.8600117,11.7381433 53.7000117,11.7181433" id="Path" fill="#935EFA"></path>
                <path d="M63.7300117,45.9981433 C63.7300117,50.362291 61.1011126,54.2967165 57.0691659,55.9668035 C53.0372193,57.6368905 48.3962479,56.7137439 45.3103295,53.6278255 C42.2244111,50.5419071 41.3012645,45.9009358 42.9713515,41.8689891 C44.6414385,37.8370424 48.5758641,35.2081433 52.9400117,35.2081433 C58.8945991,35.21915 63.719005,40.0435559 63.7300117,45.9981433" id="Path" fill="#E6E6E6"></path>
                <path d="M82.0800117,27.4781433 L61.8800117,15.8181433 L56.2700117,12.5981433 L56.2700117,12.5981433 L56.1900117,12.5481433 L55.9000117,12.4181433 C55.7516681,12.334803 55.598003,12.2613111 55.4400117,12.1981433 C55.3231849,12.1491877 55.2028465,12.1090749 55.0800117,12.0781433 C54.9200117,12.0181433 54.7600117,11.9581433 54.6100117,11.9181433 L54.2100117,11.8481433 C54.0586927,11.8109675 53.904997,11.7842378 53.7500117,11.7681433 L53.3100117,11.7681433 C53.1600117,11.7681433 53.0200117,11.7681433 52.8900117,11.7681433 C52.7101491,11.7581971 52.5298743,11.7581971 52.3500117,11.7681433 L52.0300117,11.7681433 C51.8037426,11.7994508 51.5798849,11.846227 51.3600117,11.9081433 C51.3001337,11.9027324 51.2398897,11.9027324 51.1800117,11.9081433 C50.6038727,12.0653092 50.0495922,12.2937399 49.5300117,12.5881433 L23.7200117,27.4781433 C21.6171941,28.6993301 20.3222438,30.9464497 20.3200117,33.3781433 L20.3200117,63.1681433 C20.3200117,63.1681433 20.3200117,63.2181433 20.3200117,63.2481433 C20.3200117,63.5192504 20.3401478,63.7899831 20.3800117,64.0581433 C20.3800117,64.1981433 20.4300117,64.3381433 20.4600117,64.4781433 C20.4900117,64.6181433 20.5100117,64.7681433 20.5400117,64.9081433 C20.5700117,65.0481433 20.6500117,65.2481433 20.7100117,65.4181433 C20.7700117,65.5881433 20.7800117,65.6281433 20.8200117,65.7381433 C20.8600117,65.8481433 20.9900117,66.0881433 21.0800117,66.2681433 C21.1700117,66.4481433 21.1500117,66.4281433 21.2000117,66.5081433 C21.3015977,66.6920761 21.4151764,66.8691252 21.5400117,67.0381433 C21.5799045,67.1037633 21.6233006,67.1671884 21.6700117,67.2281433 C21.8000117,67.4081433 21.9500117,67.5681433 22.0900117,67.7381433 L22.2300117,67.8881433 C22.3836295,68.0483903 22.5472938,68.1986943 22.7200117,68.3381433 C22.7685651,68.3900059 22.8221629,68.436904 22.8800117,68.4781433 C23.0400117,68.6081433 23.2300117,68.7281433 23.4100117,68.8581433 L23.5700117,68.9581433 L23.6300117,68.9581433 L23.7000117,69.0181433 L23.7000117,69.0181433 L49.5100117,83.9081433 C50.5503897,84.5151736 51.7355447,84.8296024 52.9400117,84.8184457 L53.3800117,84.8184457 C54.4090578,84.7511902 55.4085649,84.4465459 56.3000117,83.9281433 L76.1700117,72.4681433 L82.1100117,69.0381433 C84.2112459,67.8202486 85.5062678,65.5768135 85.5100117,63.1481433 L85.5100117,33.3681433 C85.5062678,30.9394732 84.2112459,28.6960381 82.1100117,27.4781433 M52.9700117,66.1881433 C41.8206846,66.1881433 32.7818543,57.1508019 32.7800142,46.001475 C32.7781746,34.8521481 41.8140219,25.8118254 52.9633483,25.8081433 C64.1126748,25.8044634 73.1544895,34.8388176 73.1600117,45.9881433 C73.1545001,57.1381077 64.1199719,66.1771106 52.9700117,66.1881433" id="Shape" fill="#E6E6E6"></path>
            </g>
        </g>
    </g>
</svg>