<?xml version="1.0" encoding="UTF-8"?>
<svg width="633px" height="509px" viewBox="0 0 633 509" version="1.1" xmlns="http://www.w3.org/2000/svg" xmlns:xlink="http://www.w3.org/1999/xlink">
    <title>logoguardianback</title>
    <g id="Diseños" stroke="none" stroke-width="1" fill="none" fill-rule="evenodd" opacity="0.498497373">
        <g id="Artboard" transform="translate(-586.000000, -1323.000000)" fill-rule="nonzero">
            <g id="logoguardianback" transform="translate(291.000000, 1391.000000)">
                <g style="mix-blend-mode: overlay;" transform="translate(295.000000, -68.000000)">
                    <path d="M612.353432,94.8651873 L457.444676,5.44979796 C444.832399,-1.81659932 429.304126,-1.81659932 416.691849,5.44979796 L315.560019,63.5998062 L333.565686,73.8615724 C334.534483,74.2609779 335.476707,74.7220003 336.386574,75.2418099 L491.355349,164.897241 C503.952187,172.18328 511.707275,185.632664 511.701752,200.183314 L511.701752,200.183314 L511.701752,379.014092 L511.701752,379.014092 L511.701752,379.434165 C511.693303,381.07875 511.593116,382.721584 511.401658,384.355012 C511.401658,385.195156 511.041545,386.035301 510.861488,386.875445 C510.681431,387.71559 510.861488,388.615745 510.321318,389.5159 C510.055857,390.532739 509.735282,391.53439 509.361016,392.516416 C509.361016,393.11652 508.940884,393.776633 508.700808,394.436747 C508.460732,395.09686 507.680487,396.537108 507.140317,397.617294 C506.600147,398.69748 506.720185,398.577459 506.42009,399.057542 C505.810382,400.161329 505.128696,401.223806 504.379448,402.238089 C504.140016,402.631877 503.879557,403.012493 503.599202,403.378286 C502.825225,404.432309 501.983165,405.434618 501.078409,406.378802 L500.238144,407.338967 C499.337861,408.299133 498.31754,409.139277 497.297219,410.039432 L496.336917,410.879577 L493.155915,413.159969 L492.195613,413.760073 L491.895519,413.760073 L491.355349,414.060124 L612.653526,344.088081 C625.250826,336.773256 633,323.307483 633,308.741998 L633,130.211271 C633.026911,115.639191 625.268952,102.161945 612.653526,94.8651873" id="Path" fill="#FFFFFF"></path>
                    <path d="M141.224519,413.760073 L140.324236,413.159969 C139.183877,412.439845 138.103537,411.659711 137.083216,410.879577 L136.122913,410.039432 C135.102592,409.139277 134.082271,408.299133 133.181988,407.338967 L132.341723,406.378802 C131.501459,405.418637 130.601176,404.458472 129.82093,403.378286 C129.040684,402.2981 129.340779,402.598151 129.040684,402.238089 C128.291437,401.223806 127.60975,400.161329 127.000042,399.057542 C126.699948,398.577459 126.519891,398.097377 126.279815,397.617294 C126.03974,397.137212 125.199475,395.516933 124.719324,394.436747 C124.239173,393.356561 124.299192,393.11652 124.059116,392.516416 C123.68485,391.53439 123.364276,390.532739 123.098814,389.5159 C123.098814,388.615745 122.738701,387.71559 122.558644,386.875445 C122.340771,386.047351 122.180339,385.205204 122.078493,384.355012 C121.836938,382.725888 121.71657,381.081093 121.71838,379.434165 L121.71838,379.014092 L121.71838,379.014092 L121.71838,200.183314 L121.71838,200.183314 C121.712857,185.632664 129.467945,172.18328 142.064784,164.897241 L296.97354,75.6018719 C300.063936,73.8210784 303.372672,72.4493595 306.816638,71.5211696 L307.956996,71.5211696 C309.277412,71.5211696 310.597828,70.9210663 311.978262,70.7410353 L313.898867,70.7410353 C314.978385,70.6814696 316.060368,70.6814696 317.139887,70.7410353 C317.980151,70.7410353 318.760397,70.7410353 319.600661,70.7410353 L322.301511,70.7410353 C323.261813,70.7410353 324.162097,71.1010973 325.06238,71.2811282 C325.87314,71.3832057 326.675476,71.5436499 327.463136,71.7612109 C328.420034,72.0065242 329.361909,72.3070797 330.284024,72.6613658 C331.00425,72.6613658 331.724477,73.0814381 332.444704,73.3814897 C333.16493,73.6815414 334.305289,74.2216343 335.265592,74.6417066 L336.94612,75.4818512 L337.48629,75.7819029 L337.48629,75.7819029 L371.156888,95.2252493 L371.156888,95.2252493 L335.145554,74.4616756 L317.139887,64.1999095 L216.008056,5.80985993 C203.39578,-1.45653735 187.867507,-1.45653735 175.25523,5.80985993 L20.346474,95.2252493 C7.73104848,102.522007 -0.0269111166,115.999253 0,130.571333 L0,309.342101 C0,323.907587 7.74917354,337.373359 20.346474,344.688185 L141.644651,414.660227 L141.1645,414.360176 L141.224519,413.760073 Z" id="Path" fill="#FFFFFF"></path>
                    <path d="M381.500458,276.036369 C381.500458,302.225762 365.722098,325.836379 341.522801,335.858626 C317.323505,345.880873 289.468909,340.34104 270.94757,321.822342 C252.42623,303.303645 246.885607,275.453023 256.909283,251.257179 C266.93296,227.061334 290.546946,211.285224 316.740076,211.285224 C352.478848,211.351276 381.434397,240.302694 381.500458,276.036369" id="Path" fill="#E6E6E6"></path>
                    <path d="M491.635122,164.897241 L370.396964,94.9251976 L336.726366,75.6018719 L336.726366,75.6018719 L336.246215,75.3018202 L334.505667,74.521686 C333.615325,74.0215582 332.693045,73.5805303 331.744798,73.2014587 C331.043617,72.9076742 330.321359,72.666956 329.584118,72.4813348 C328.623816,72.1212728 327.663514,71.7612109 326.76323,71.5211696 L324.362475,71.1010973 C323.454275,70.8780038 322.531811,70.7175981 321.601606,70.6210146 L318.960775,70.6210146 C318.060491,70.6210146 317.220227,70.6210146 316.439981,70.6210146 C315.360466,70.5613269 314.278476,70.5613269 313.198961,70.6210146 L311.278357,70.6210146 C309.920315,70.8088915 308.576745,71.0895973 307.257091,71.4611592 C306.89771,71.4286878 306.536132,71.4286878 306.176751,71.4611592 C302.718828,72.4043168 299.392099,73.7751372 296.273634,75.5418616 L141.364878,164.897241 C128.744,172.225623 120.971852,185.710661 120.958455,200.303334 L120.958455,379.074103 C120.958455,379.074103 120.958455,379.374154 120.958455,379.554185 C120.958455,381.181108 121.07931,382.805783 121.318569,384.415022 C121.318569,385.255167 121.618663,386.095311 121.79872,386.935456 C121.978776,387.7756 122.098814,388.675755 122.278871,389.5159 C122.458928,390.356044 122.939079,391.556251 123.299192,392.576427 C123.659305,393.596602 123.719324,393.836644 123.9594,394.496757 C124.199475,395.156871 124.979721,396.597119 125.519891,397.677305 C126.060061,398.75749 125.940023,398.63747 126.240118,399.117552 C126.849826,400.221339 127.531512,401.283817 128.28076,402.2981 C128.520192,402.691888 128.780651,403.072504 129.061005,403.438296 C129.841251,404.518482 130.741534,405.478647 131.581799,406.498823 L132.422063,407.398978 C133.34406,408.360625 134.326356,409.262604 135.362989,410.099443 C135.654401,410.410672 135.976089,410.692109 136.323291,410.939587 C137.283593,411.719721 138.423952,412.439845 139.504292,413.21998 L140.464595,413.820083 L140.824708,413.820083 L141.24484,414.180145 L141.24484,414.180145 L296.153596,503.535524 C302.397829,507.178332 309.510998,509.06523 316.740076,508.998278 L319.380907,508.998278 C325.557127,508.594676 331.556058,506.766495 336.906423,503.655545 L456.163958,434.883708 L491.815179,414.300165 C504.426553,406.991539 512.199131,393.528611 512.221601,378.954082 L512.221601,200.243324 C512.199131,185.668795 504.426553,172.205867 491.815179,164.897241 M316.920132,397.197222 C250.003108,397.197222 195.753052,342.963839 195.742007,276.056362 C195.730967,209.148885 249.963119,154.897612 316.880139,154.875516 C383.79716,154.853432 438.065128,209.068889 438.098272,275.976358 C438.065192,342.887661 383.840956,397.131014 316.920132,397.197222" id="Shape" fill="#E6E6E6"></path>
                </g>
            </g>
        </g>
    </g>
</svg>