<?xml version="1.0" encoding="UTF-8"?>
<svg width="442px" height="439px" viewBox="0 0 442 439" version="1.1" xmlns="http://www.w3.org/2000/svg" xmlns:xlink="http://www.w3.org/1999/xlink">
    <title>Group 2</title>
    <defs>
        <path d="M220.495321,189.775325 C204.110021,189.775325 190.775325,203.110021 190.775325,219.495321 C190.775325,235.889979 204.110021,249.215318 220.495321,249.215318 C236.880621,249.215318 250.215318,235.889979 250.215318,219.495321 C250.215318,203.110021 236.880621,189.775325 220.495321,189.775325 M220.495321,271 C192.094758,271 169,247.895884 169,219.495321 C169,191.104116 192.094758,168 220.495321,168 C248.895884,168 272,191.104116 272,219.495321 C272,247.895884 248.895884,271 220.495321,271" id="path-1"></path>
        <filter x="-1.0%" y="-1.0%" width="101.9%" height="101.9%" filterUnits="objectBoundingBox" id="filter-2">
            <feOffset dx="0" dy="2" in="SourceAlpha" result="shadowOffsetInner1"></feOffset>
            <feComposite in="shadowOffsetInner1" in2="SourceAlpha" operator="arithmetic" k2="-1" k3="1" result="shadowInnerInner1"></feComposite>
            <feColorMatrix values="0 0 0 0 1   0 0 0 0 1   0 0 0 0 1  0 0 0 0.5 0" type="matrix" in="shadowInnerInner1"></feColorMatrix>
        </filter>
        <path d="M418.361138,266.390932 C418.361138,270.491553 416.15609,274.32129 412.596246,276.366931 L337.409715,319.764394 L337.409715,172.599728 C337.409715,160.036321 330.710481,148.425678 319.834736,142.148645 L192.353063,68.5709817 L267.53025,25.1828588 C269.27747,24.1647091 271.276963,23.6322822 273.295142,23.6322822 C275.313322,23.6322822 277.312814,24.1647091 279.060035,25.1828588 L412.596246,102.25399 C416.15609,104.29963 418.361138,108.138708 418.361138,112.229989 L418.361138,266.390932 Z M174.46975,413.817141 C172.72253,414.835291 170.732381,415.358377 168.704858,415.358377 C166.686678,415.358377 164.696529,414.835291 162.949309,413.817141 L29.4037543,336.73667 C25.8532533,334.691029 23.6388619,330.861292 23.6388619,326.760671 L23.6388619,172.609068 C23.6388619,168.508447 25.8532533,164.669369 29.4037543,162.633069 L104.590285,119.226265 L104.590285,266.381591 C104.590285,278.944998 111.289519,290.5463 122.174608,296.832674 L249.665624,370.419677 L174.46975,413.817141 Z M313.770854,326.75133 C313.770854,330.655794 311.733987,334.345419 308.435759,336.447104 L278.658267,353.643559 C276.995138,354.521597 275.135797,354.969956 273.267112,354.969956 C271.258276,354.969956 269.268127,354.44687 267.53025,353.438061 L133.994039,276.35759 C130.434194,274.311949 128.229146,270.482212 128.229146,266.381591 L128.229146,112.229989 C128.229146,108.325524 130.275356,104.635899 133.564241,102.524873 L163.351076,85.3377591 C165.004862,84.4597217 166.864203,84.0113622 168.732888,84.0113622 C170.751068,84.0113622 172.731873,84.5344483 174.46975,85.5432572 L308.005961,162.623729 C311.565806,164.669369 313.770854,168.499106 313.770854,172.599728 L313.770854,326.75133 Z M424.415677,81.7882463 L290.879466,4.7077748 C285.441593,1.56925827 279.368368,0 273.295142,0 C267.221917,0 261.148691,1.56925827 255.710819,4.7077748 L17.5843233,142.157985 C6.69923477,148.435019 0,160.045662 0,172.609068 L0,326.760671 C0,339.324078 6.69923477,350.92538 17.5843233,357.211754 L151.120534,434.292225 C156.558407,437.430742 162.631632,439 168.704858,439 C174.778083,439 180.851309,437.430742 186.289181,434.292225 L424.415677,296.842015 C435.300765,290.555641 442,278.954338 442,266.390932 L442,112.229989 C442,99.6665816 435.300765,88.0652794 424.415677,81.7882463 L424.415677,81.7882463 Z" id="path-3"></path>
        <filter x="-0.2%" y="-0.2%" width="100.5%" height="100.5%" filterUnits="objectBoundingBox" id="filter-4">
            <feOffset dx="0" dy="2" in="SourceAlpha" result="shadowOffsetInner1"></feOffset>
            <feComposite in="shadowOffsetInner1" in2="SourceAlpha" operator="arithmetic" k2="-1" k3="1" result="shadowInnerInner1"></feComposite>
            <feColorMatrix values="0 0 0 0 1   0 0 0 0 1   0 0 0 0 1  0 0 0 0.5 0" type="matrix" in="shadowInnerInner1"></feColorMatrix>
        </filter>
    </defs>
    <g id="Diseños" stroke="none" stroke-width="1" fill="none" fill-rule="evenodd" opacity="0.702215286">
        <g id="Artboard" transform="translate(-596.000000, -4315.000000)">
            <g id="Group-15" transform="translate(291.000000, 4352.000000)">
                <g id="Group-2" style="mix-blend-mode: soft-light;" transform="translate(305.000000, -37.000000)">
                    <g id="Fill-8">
                        <use fill="#D1D1D1" fill-rule="evenodd" xlink:href="#path-1"></use>
                        <use fill="black" fill-opacity="1" filter="url(#filter-2)" xlink:href="#path-1"></use>
                    </g>
                    <g id="Fill-26">
                        <use fill="#D1D1D1" fill-rule="evenodd" xlink:href="#path-3"></use>
                        <use fill="black" fill-opacity="1" filter="url(#filter-4)" xlink:href="#path-3"></use>
                    </g>
                </g>
            </g>
        </g>
    </g>
</svg>