<?xml version="1.0" encoding="UTF-8"?>
<svg width="72px" height="72px" viewBox="0 0 72 72" version="1.1" xmlns="http://www.w3.org/2000/svg" xmlns:xlink="http://www.w3.org/1999/xlink">
    <title>Group 18</title>
    <g id="Page-1" stroke="none" stroke-width="1" fill="none" fill-rule="evenodd">
        <g id="Artboard" transform="translate(-684.000000, -2856.000000)">
            <g id="Group-18" transform="translate(684.000000, 2856.000000)">
                <path d="M33.5631692,1.08303591 L3.5631692,14.4163692 C1.39640113,15.3793773 -2.90379958e-16,17.5281062 0,19.8992385 L0,52.1007615 C2.90379958e-16,54.4718938 1.39640113,56.6206227 3.5631692,57.5836308 L33.5631692,70.9169641 C35.1145613,71.6064717 36.8854387,71.6064717 38.4368308,70.9169641 L68.4368308,57.5836308 C70.6035989,56.6206227 72,54.4718938 72,52.1007615 L72,19.8992385 C72,17.5281062 70.6035989,15.3793773 68.4368308,14.4163692 L38.4368308,1.08303591 C36.8854387,0.393528298 35.1145613,0.393528298 33.5631692,1.08303591 Z" id="Path-5" fill="#E6FCF5"></path>
                <path d="M35.0301932,25.1765163 C35.93538,24.9411612 36.8847217,24.9411612 37.7899085,25.1765163 L37.7899085,25.1765163 L43.5346364,26.6701863 C44.3239543,26.8754423 44.9540896,27.4756562 45.2039026,28.2602045 C46.3608677,31.8937026 46.2576031,35.388922 44.8886812,38.7109301 C43.5748522,41.8992423 41.2762458,44.4898078 38.0093698,46.474931 L38.0093698,46.474931 L37.6651366,46.6796636 C36.8823329,47.1354505 35.9116413,47.1027044 35.1606109,46.5951739 C31.4964129,44.1189859 29.0796085,41.4972759 27.9314205,38.7109301 C26.7849072,35.9286484 26.7018219,32.4950007 27.6546677,28.4204544 C27.8577444,27.5521245 28.5200401,26.8692023 29.3745411,26.647026 L29.3745411,26.647026 Z M37.3956635,26.7273557 C36.7491015,26.5592449 36.0710002,26.5592449 35.4244382,26.7273557 L35.4244382,26.7273557 L29.7687861,28.1978654 C29.483952,28.2719243 29.2631833,28.4995687 29.1954924,28.7890061 C28.3137414,32.5595379 28.3887167,35.658028 29.3929181,38.0949568 C30.4056778,40.552654 32.6143944,42.9486338 36.0402907,45.2637825 C36.2906369,45.4329612 36.6142043,45.4438767 36.8687648,45.2956991 L36.8687648,45.2956991 L37.200259,45.0985448 C40.1796167,43.2880954 42.2476349,40.9574064 43.4271835,38.0949568 C44.6485548,35.1310147 44.7402314,32.028017 43.6967856,28.7510312 C43.6135141,28.4895134 43.4034617,28.2894351 43.1403664,28.2210193 L43.1403664,28.2210193 Z M40.0965426,33.0654701 C40.3915912,33.3439689 40.4290063,33.7970798 40.1983744,34.119392 L40.1351261,34.1970683 L36.4406814,38.2002499 C36.1500615,38.5151564 35.6709736,38.5376497 35.3534296,38.2677298 L35.2831772,38.2002499 L33.4359549,36.1986591 C33.137628,35.8754016 33.1549024,35.3687679 33.4745384,35.0670609 C33.7695869,34.7885622 34.2191347,34.782025 34.5211922,35.036918 L34.5934591,35.1060816 L35.8611357,36.4794276 L38.9776219,33.1044908 C39.2759488,32.7812333 39.7769066,32.7637632 40.0965426,33.0654701 Z" id="Combined-Shape" fill="#0BA678" fill-rule="nonzero"></path>
            </g>
        </g>
    </g>
</svg>