<?xml version="1.0" encoding="UTF-8"?>
<svg width="32px" height="32px" viewBox="0 0 32 32" version="1.1" xmlns="http://www.w3.org/2000/svg" xmlns:xlink="http://www.w3.org/1999/xlink">
    <title>Group 13</title>
    <g id="Page-1" stroke="none" stroke-width="1" fill="none" fill-rule="evenodd">
        <g id="Artboard" transform="translate(-760.000000, -1610.000000)">
            <g id="Group-13" transform="translate(760.000000, 1610.000000)">
                <rect id="Rectangle" stroke="#979797" stroke-width="0.888888889" fill="#D8D8D8" opacity="0" x="0" y="0" width="32" height="32"></rect>
                <path d="M16,5.33333333 C16.4558541,5.33333333 16.8315619,5.67648017 16.8829087,6.118559 L16.8888889,6.22222222 L16.8885443,7.17407414 C19.9040848,7.6052411 22.2222222,10.1985722 22.2222222,13.3333333 L22.2227102,17.8093538 C23.7301586,18.0252213 24.8888889,19.3217371 24.8888889,20.8888889 L24.8888889,22.2222222 C24.8888889,23.2040618 24.0929507,24 23.1111111,24 L19.4816096,24.0004174 C19.1783672,25.7130589 17.9529727,26.6666667 16,26.6666667 C14.0470273,26.6666667 12.8216328,25.7130589 12.5183904,24.0004174 L8.88888889,24 C7.90704933,24 7.11111111,23.2040618 7.11111111,22.2222222 L7.11111111,20.8888889 C7.11111111,19.3217371 8.26984142,18.0252213 9.7772898,17.8093538 L9.77777778,13.3333333 C9.77777778,10.1985551 12.0959405,7.60521277 15.1115051,7.17406708 L15.1111111,6.22222222 C15.1111111,5.73130244 15.5090802,5.33333333 16,5.33333333 Z M17.6577778,24 L14.3413333,24 L14.3550771,24.0415499 C14.5632889,24.6072222 15.0292266,24.8586836 15.8432662,24.88631 L15.8432662,24.88631 L16,24.8888889 C16.9115244,24.8888889 17.4236979,24.6425767 17.6449229,24.0415499 L17.6449229,24.0415499 L17.6577778,24 Z M21.7777778,19.5555556 L10.2222222,19.5555556 C9.52915901,19.5555556 8.95960117,20.084345 8.89499251,20.76048 L8.88888889,20.8888889 L8.88888889,22.2222222 L23.1111111,22.2222222 L23.1111111,20.8888889 C23.1111111,20.1958257 22.5823217,19.6262678 21.9061867,19.5616592 L21.7777778,19.5555556 Z M16,8.88888889 C13.6099958,8.88888889 11.6606061,10.7753837 11.5596618,13.1405426 L11.5555556,13.3333333 L11.5555556,17.7777778 L20.4444444,17.7777778 L20.4444444,13.3333333 C20.4444444,10.9433292 18.5579496,8.99393945 16.1927908,8.89299512 L16,8.88888889 Z" id="Combined-Shape" fill="#1098AD" fill-rule="nonzero"></path>
            </g>
        </g>
    </g>
</svg>