<?xml version="1.0" encoding="UTF-8"?>
<svg width="48px" height="48px" viewBox="0 0 48 48" version="1.1" xmlns="http://www.w3.org/2000/svg" xmlns:xlink="http://www.w3.org/1999/xlink">
    <title>router</title>
    <g id="Page-1" stroke="none" stroke-width="1" fill="none" fill-rule="evenodd">
        <g id="Artboard" transform="translate(-548.000000, -2912.000000)">
            <g id="router" transform="translate(548.000000, 2912.000000)">
                <path d="M21.5631692,1.08303591 L3.5631692,9.08303591 C1.39640113,10.0460439 -1.17855838e-15,12.1947729 0,14.5659052 L0,33.4340948 C-3.26233372e-15,35.8052271 1.39640113,37.9539561 3.5631692,38.9169641 L21.5631692,46.9169641 C23.1145613,47.6064717 24.8854387,47.6064717 26.4368308,46.9169641 L44.4368308,38.9169641 C46.6035989,37.9539561 48,35.8052271 48,33.4340948 L48,14.5659052 C48,12.1947729 46.6035989,10.0460439 44.4368308,9.08303591 L26.4368308,1.08303591 C24.8854387,0.393528298 23.1145613,0.393528298 21.5631692,1.08303591 Z" id="Path-5" fill="#96F2D7"></path>
                <path d="M29.0006191,20.3512912 C31.9045204,21.0627654 34,22.795472 34,25 C34,27.9114738 30.3450792,30 26,30 C22.4288951,30 19.3239755,28.589251 18.3311457,26.470346 C19.2773433,26.789944 20.3672992,26.9644792 21.6011595,26.9951101 C22.684708,27.5956808 24.2375894,28 26,28 C29.3869073,28 32,26.5068042 32,25 C32,23.9841665 30.8123562,22.9745181 29.0006343,22.4244088 Z" id="Combined-Shape" fill="#0BA678" fill-rule="nonzero"></path>
                <path d="M33,24 C33.5128358,24 33.9355072,24.3860402 33.9932723,24.8833789 L34,25 L34,29.9164186 C34,31.0619187 33.5088943,32.1524492 32.6511371,32.9116513 C31.0648103,34.3157445 28.8344282,35 26,35 C23.1655665,35 20.9351814,34.3157419 19.3488541,32.9116435 C18.5482931,32.2030467 18.067122,31.2058472 18.0065135,30.1447066 L18,29.9164225 L17.9986698,26.351323 C18.6023384,26.5849206 19.2690983,26.7554269 19.9989494,26.8628419 L20,29.9164113 C20,30.4891609 20.2455572,31.0344231 20.6744302,31.4140294 C21.8555658,32.4594824 23.6174192,33 26,33 C28.3825766,33 30.144428,32.4594843 31.3255723,31.4140272 C31.7115617,31.0723874 31.9490566,30.5965626 31.9926957,30.0872804 L32,29.9164186 L32,25 C32,24.4477153 32.4477153,24 33,24 Z" id="Combined-Shape" fill="#0BA678" fill-rule="nonzero"></path>
                <path d="M29,17 C29.5128358,17 29.9355072,17.3860402 29.9932723,17.8833789 L30,18 L30,22.9164186 C30,24.0619187 29.5088943,25.1524492 28.6511371,25.9116513 C27.0648103,27.3157445 24.8344282,28 22,28 C19.1655665,28 16.9351814,27.3157419 15.3488541,25.9116435 C14.5482931,25.2030467 14.067122,24.2058472 14.0065135,23.1447066 L14,22.9164225 L14,18 C14,17.4477153 14.4477153,17 15,17 C15.5128358,17 15.9355072,17.3860402 15.9932723,17.8833789 L16,18 L16,22.9164113 C16,23.4891609 16.2455572,24.0344231 16.6744302,24.4140294 C17.8555658,25.4594824 19.6174192,26 22,26 C24.3825766,26 26.144428,25.4594843 27.3255723,24.4140272 C27.7115617,24.0723874 27.9490566,23.5965626 27.9926957,23.0872804 L28,22.9164186 L28,18 C28,17.4477153 28.4477153,17 29,17 Z" id="Path-20" fill="#0BA678" fill-rule="nonzero"></path>
                <path d="M22,13 C17.6549208,13 14,15.0885262 14,18 C14,20.9114738 17.6549208,23 22,23 C26.3450792,23 30,20.9114738 30,18 C30,15.0885262 26.3450792,13 22,13 Z M22,15 C25.3869073,15 28,16.4931958 28,18 C28,19.5068042 25.3869073,21 22,21 C18.6130927,21 16,19.5068042 16,18 C16,16.4931958 18.6130927,15 22,15 Z" id="Oval" fill="#0BA678" fill-rule="nonzero"></path>
            </g>
        </g>
    </g>
</svg>