<?xml version="1.0" encoding="UTF-8"?>
<svg width="32px" height="32px" viewBox="0 0 32 32" version="1.1" xmlns="http://www.w3.org/2000/svg" xmlns:xlink="http://www.w3.org/1999/xlink">
    <title>Group 11</title>
    <g id="Page-1" stroke="none" stroke-width="1" fill="none" fill-rule="evenodd">
        <g id="Artboard" transform="translate(-428.000000, -1353.000000)">
            <g id="Group-11" transform="translate(428.000000, 1353.000000)">
                <rect id="Rectangle" stroke="#979797" stroke-width="0.888888889" fill="#D8D8D8" opacity="0" x="0" y="0" width="32" height="32"></rect>
                <path d="M17.5178571,3.5 C18.4101539,3.5 19.1415485,4.18890426 19.2091818,5.0638792 L19.2142857,5.19645811 L19.2133929,6.33928571 L19.2295868,6.34472175 C19.5681497,6.45792091 19.9000329,6.58883011 20.2240201,6.73678558 L20.55625,6.89642857 L21.3664354,6.08787816 C21.9553212,5.49899232 22.8694397,5.43356056 23.5305995,5.89158288 L23.6514614,5.98359629 L23.7655477,6.08787816 L25.9121218,8.23445231 C26.537813,8.86014352 26.5725737,9.85299191 26.0164666,10.5194155 L25.9121964,10.63349 L25.1026786,11.4428571 L25.1096015,11.4546699 C25.2688473,11.7732578 25.4112682,12.1001473 25.5362003,12.4341219 L25.6598214,12.7857143 L26.8035714,12.7857143 C27.6489052,12.7857143 28.3498282,13.4040106 28.4787744,14.2130374 L28.4948961,14.349568 L28.5,14.4821429 L28.5,17.5178571 C28.5,18.4101539 27.8110957,19.1415485 26.9365004,19.2091817 L26.8039813,19.2142856 L25.6589286,19.2142857 L25.6550388,19.2303027 C25.5418545,19.5687372 25.4109731,19.9004957 25.2630578,20.2243631 L25.1026786,20.5571429 L25.9121218,21.3664354 C26.5010077,21.9553212 26.5664394,22.8694397 26.1084171,23.5305995 L26.0164037,23.6514614 L25.9121218,23.7655477 L23.7655477,25.9121218 C23.1398565,26.537813 22.1470081,26.5725737 21.4805845,26.0164666 L21.36651,25.9121964 L20.55625,25.1026786 L20.5453301,25.1096015 C20.2267422,25.2688473 19.8998527,25.4112682 19.5658781,25.5362003 L19.2133929,25.6598214 L19.2142857,26.8035714 C19.2142857,27.6489052 18.5959894,28.3498282 17.7869626,28.4787744 L17.650432,28.4948961 L17.5178571,28.5 L14.4821429,28.5 C13.5898461,28.5 12.8584515,27.8110957 12.7908183,26.9365004 L12.7857144,26.8039813 L12.7848214,25.6589286 L12.7696973,25.6550388 C12.4312628,25.5418545 12.0995043,25.4109731 11.7756369,25.2630578 L11.4419643,25.1026786 L10.6335646,25.9121218 C10.0446788,26.5010077 9.13056027,26.5664394 8.4694005,26.1084171 L8.34853857,26.0164037 L8.23445231,25.9121218 L6.08787816,23.7655477 C5.46218696,23.1398565 5.42742633,22.1470081 5.98353345,21.4805845 L6.08780356,21.36651 L6.89642857,20.5571429 L6.89051101,20.5455551 C6.73131338,20.2270835 6.58892865,19.9003157 6.46401995,19.5664668 L6.34017857,19.2142857 L5.19642857,19.2142857 C4.35109477,19.2142857 3.65017182,18.5959894 3.52122557,17.7869626 L3.50510392,17.650432 L3.5,17.5178571 L3.5,14.4821429 C3.5,13.5898461 4.18890426,12.8584515 5.0638792,12.7908182 L5.19645811,12.7857143 L6.33928571,12.7857143 L6.34472175,12.7704132 C6.45792091,12.4318503 6.58883011,12.0999671 6.73678558,11.7759799 L6.89642857,11.4428571 L6.08787816,10.6335646 C5.49899232,10.0446788 5.43356056,9.13056027 5.89158288,8.4694005 L5.98359629,8.34853857 L6.08787816,8.23445231 L8.23445231,6.08787816 C8.86014352,5.46218696 9.85299191,5.42742633 10.5194155,5.98353345 L10.63349,6.08780356 L11.4419643,6.89642857 L11.4544449,6.89051101 C11.7729165,6.73131338 12.0996843,6.58892865 12.4335332,6.46401995 L12.7848214,6.34017857 L12.7857143,5.19642857 C12.7857143,4.35109477 13.4040106,3.65017182 14.2130374,3.52122557 L14.349568,3.50510392 L14.4821429,3.5 L17.5178571,3.5 Z M17.4276786,5.28571429 L14.5705357,5.28571429 L14.5702798,7.69920683 L13.900373,7.87169543 C13.2476688,8.03975469 12.6201231,8.28587931 12.0295021,8.60367921 L11.7373232,8.76852251 L11.1413741,9.12065061 L9.43392857,7.4125 L7.4125,9.43392857 L9.12065061,11.1413741 L8.76852251,11.7373232 C8.42688763,12.3155134 8.15591338,12.932616 7.96199596,13.5768527 L7.87148827,13.9011777 L7.69896111,14.5715114 L5.28571429,14.5714286 L5.28571429,17.4285714 L7.69920683,17.4297202 L7.87169543,18.099627 C8.03975469,18.7523312 8.28587931,19.3798769 8.60367921,19.9704979 L8.76852251,20.2626768 L9.12065061,20.8586259 L7.4125,22.5651786 L9.43392857,24.5866071 L11.1413741,22.8793494 L11.7373232,23.2314775 C12.315309,23.5729916 12.9321807,23.8438955 13.5761719,24.0377991 L13.900373,24.1283046 L14.5702798,24.3007932 L14.5705357,26.7142857 L17.4285714,26.7142857 L17.4284886,24.3010389 L18.0988223,24.1285117 C18.7517765,23.9604576 19.3795597,23.7142806 19.9703935,23.3963769 L20.2626768,23.2314775 L20.8586259,22.8793494 L22.5651786,24.5866071 L24.5866071,22.5651786 L22.8793494,20.8586259 L23.2314775,20.2626768 C23.5729916,19.684691 23.8438955,19.0678193 24.0377991,18.4238281 L24.1283046,18.099627 L24.3007932,17.4297202 L26.7142857,17.4285714 L26.7142857,14.5705357 L24.3010389,14.5715114 L24.1285117,13.9011777 C23.9604576,13.2482235 23.7142806,12.6204403 23.3963769,12.0296065 L23.2314775,11.7373232 L22.8793494,11.1413741 L24.5866071,9.43392857 L22.5651786,7.4125 L20.8586259,9.12065061 L20.2626768,8.76852251 C19.6844866,8.42688763 19.067384,8.15591338 18.4231473,7.96199596 L18.0988223,7.87148827 L17.4284886,7.69896111 L17.4276786,5.28571429 Z M16,11.5357143 C18.4655569,11.5357143 20.4642857,13.5344431 20.4642857,16 C20.4642857,18.4655569 18.4655569,20.4642857 16,20.4642857 C13.5344431,20.4642857 11.5357143,18.4655569 11.5357143,16 C11.5357143,13.5344431 13.5344431,11.5357143 16,11.5357143 Z M16,13.3214286 C14.5206658,13.3214286 13.3214286,14.5206658 13.3214286,16 C13.3214286,17.4793342 14.5206658,18.6785714 16,18.6785714 C17.4793342,18.6785714 18.6785714,17.4793342 18.6785714,16 C18.6785714,14.5206658 17.4793342,13.3214286 16,13.3214286 Z" id="Combined-Shape" fill="#1098AD" fill-rule="nonzero"></path>
            </g>
        </g>
    </g>
</svg>