<?xml version="1.0" encoding="UTF-8"?>
<svg width="4px" height="8px" viewBox="0 0 4 8" version="1.1" xmlns="http://www.w3.org/2000/svg" xmlns:xlink="http://www.w3.org/1999/xlink">
    <title>Group 23</title>
    <g id="Diseños" stroke="none" stroke-width="1" fill="none" fill-rule="evenodd">
        <g id="Group-26" transform="translate(-6.000000, -4.000000)" fill="#ADB5BD" fill-rule="nonzero">
            <g id="Group-23" transform="translate(6.000000, 4.500000)">
                <g id="dots-vertical">
                    <path d="M1.33333333,3.33333333 C1.33333333,3.70153333 1.03486667,4 0.666666667,4 C0.298466667,4 0,3.70153333 0,3.33333333 C0,2.96513333 0.298466667,2.66666667 0.666666667,2.66666667 C1.03486667,2.66666667 1.33333333,2.96513333 1.33333333,3.33333333 Z" id="Path"></path>
                    <path d="M1.33333333,0.666666667 C1.33333333,1.03485333 1.03486667,1.33333333 0.666666667,1.33333333 C0.298466667,1.33333333 0,1.03485333 0,0.666666667 C0,0.29848 0.298466667,0 0.666666667,0 C1.03486667,0 1.33333333,0.29848 1.33333333,0.666666667 Z" id="Path"></path>
                    <path d="M1.33333333,6 C1.33333333,6.3682 1.03486667,6.66666667 0.666666667,6.66666667 C0.298466667,6.66666667 0,6.3682 0,6 C0,5.6318 0.298466667,5.33333333 0.666666667,5.33333333 C1.03486667,5.33333333 1.33333333,5.6318 1.33333333,6 Z" id="Path"></path>
                </g>
                <g id="dots-vertical" transform="translate(2.666667, 0.000000)">
                    <path d="M1.33333333,3.33333333 C1.33333333,3.70153333 1.03486667,4 0.666666667,4 C0.298466667,4 0,3.70153333 0,3.33333333 C0,2.96513333 0.298466667,2.66666667 0.666666667,2.66666667 C1.03486667,2.66666667 1.33333333,2.96513333 1.33333333,3.33333333 Z" id="Path"></path>
                    <path d="M1.33333333,0.666666667 C1.33333333,1.03485333 1.03486667,1.33333333 0.666666667,1.33333333 C0.298466667,1.33333333 0,1.03485333 0,0.666666667 C0,0.29848 0.298466667,0 0.666666667,0 C1.03486667,0 1.33333333,0.29848 1.33333333,0.666666667 Z" id="Path"></path>
                    <path d="M1.33333333,6 C1.33333333,6.3682 1.03486667,6.66666667 0.666666667,6.66666667 C0.298466667,6.66666667 0,6.3682 0,6 C0,5.6318 0.298466667,5.33333333 0.666666667,5.33333333 C1.03486667,5.33333333 1.33333333,5.6318 1.33333333,6 Z" id="Path"></path>
                </g>
            </g>
        </g>
    </g>
</svg>