<?xml version="1.0" encoding="UTF-8"?>
<svg width="32px" height="32px" viewBox="0 0 32 32" version="1.1" xmlns="http://www.w3.org/2000/svg" xmlns:xlink="http://www.w3.org/1999/xlink">
    <title>Group 22</title>
    <g id="Page-1" stroke="none" stroke-width="1" fill="none" fill-rule="evenodd">
        <g id="Artboard" transform="translate(-558.000000, -1353.000000)">
            <g id="Group-22" transform="translate(558.000000, 1353.000000)">
                <g id="Group-11" fill="#D8D8D8" opacity="0" stroke="#979797" stroke-width="0.888888889">
                    <rect id="Rectangle" x="0" y="0" width="32" height="32"></rect>
                </g>
                <path d="M12.213757,10.5522432 C12.8295575,10.3469764 13.4953232,10.3469764 14.1111236,10.5522432 L14.1111236,10.5522432 L23.5186541,13.6880868 C24.8285124,14.1247062 25.5364124,15.5405061 25.099793,16.8503644 C24.8509555,17.5968769 24.2651666,18.1826657 23.5188545,18.4314364 L23.5188545,18.4314364 L22.7062365,18.702229 L25.7234371,21.7166493 C26.8531681,22.8463802 26.8935156,24.6529673 25.8444797,25.8310452 L25.8444797,25.8310452 L25.7234371,25.9592899 C24.5518642,27.1308628 22.6523693,27.1308628 21.4809786,25.9594721 L21.4809786,25.9594721 L18.46501,22.9448697 L18.1956504,23.754507 C17.7772235,25.0097878 16.4595144,25.7122285 15.1975783,25.3843014 L15.1975783,25.3843014 L15.0333728,25.3356458 C14.2868603,25.0868083 13.7010714,24.5010195 13.4522339,23.754507 L13.4522339,23.754507 L10.3163904,14.3469764 C9.79244712,12.7751465 10.6419271,11.0761866 12.213757,10.5522432 Z M13.4786681,12.4496098 C13.2734013,12.3811876 13.0514794,12.3811876 12.8462126,12.4496098 C12.3222692,12.6242576 12.0391093,13.1905776 12.213757,13.7145209 L12.213757,13.7145209 L15.3496005,23.1220514 C15.399368,23.2713539 15.5165258,23.3885117 15.6658283,23.4382792 C15.9278,23.5256031 16.21096,23.3840231 16.2982838,23.1220514 L16.2982838,23.1220514 L17.5910261,19.2424586 L22.89501,24.5450764 C23.2855343,24.9356007 23.9186993,24.9356007 24.3092236,24.5450764 C24.6997479,24.1545521 24.6997479,23.5213871 24.3092236,23.1308628 L24.3092236,23.1308628 L19.0052396,17.828245 L22.8861986,16.5341366 C23.0355011,16.4843692 23.1526589,16.3672114 23.2024264,16.2179089 C23.2897503,15.9559372 23.1481703,15.6727772 22.8861986,15.5854534 L22.8861986,15.5854534 Z M8,11 C8.55228475,11 9,11.4477153 9,12 C9,12.5128358 8.61395981,12.9355072 8.11662113,12.9932723 L8,13 L6,13 C5.44771525,13 5,12.5522847 5,12 C5,11.4871642 5.38604019,11.0644928 5.88337887,11.0067277 L6,11 L8,11 Z M7.61289944,6.20970461 L7.70710678,6.29289322 L9.70710678,8.29289322 C10.0976311,8.68341751 10.0976311,9.31658249 9.70710678,9.70710678 C9.34662282,10.0675907 8.77939176,10.0953203 8.38710056,9.79029539 L8.29289322,9.70710678 L6.29289322,7.70710678 C5.90236893,7.31658249 5.90236893,6.68341751 6.29289322,6.29289322 C6.65337718,5.93240926 7.22060824,5.90467972 7.61289944,6.20970461 Z M12,5 C12.5128358,5 12.9355072,5.38604019 12.9932723,5.88337887 L13,6 L13,8 C13,8.55228475 12.5522847,9 12,9 C11.4871642,9 11.0644928,8.61395981 11.0067277,8.11662113 L11,8 L11,6 C11,5.44771525 11.4477153,5 12,5 Z" id="Combined-Shape" fill="#1098AD" fill-rule="nonzero"></path>
            </g>
        </g>
    </g>
</svg>