<?xml version="1.0" encoding="UTF-8"?>
<svg width="32px" height="32px" viewBox="0 0 32 32" version="1.1" xmlns="http://www.w3.org/2000/svg" xmlns:xlink="http://www.w3.org/1999/xlink">
    <title>Group 14</title>
    <g id="Page-1" stroke="none" stroke-width="1" fill="none" fill-rule="evenodd">
        <g id="Artboard" transform="translate(-760.000000, -1353.000000)">
            <g id="Group-14" transform="translate(760.000000, 1353.000000)">
                <rect id="Rectangle" stroke="#979797" stroke-width="0.888888889" fill="#D8D8D8" opacity="0" x="0" y="0" width="32" height="32"></rect>
                <path d="M25.0159507,7.11111111 L25.4531399,7.12200574 C26.268645,7.15460143 26.7451133,7.25175339 27.1382263,7.40838083 L27.3290202,7.49162732 C27.3910919,7.52101256 27.4520319,7.55202638 27.5130239,7.58464525 C28.0924478,7.89452453 28.547183,8.34925977 28.8570623,8.92868364 C28.8896812,8.98967562 28.920695,9.05061561 28.9500802,9.11268731 L29.0333267,9.30348127 C29.1899542,9.6965943 29.2871061,10.1730626 29.3197018,10.9885676 L29.3305964,11.4257569 C29.3315078,11.5037252 29.3319649,11.5843438 29.3319649,11.6677608 L29.3319649,20.3295023 L29.3305964,20.5715062 L29.3197018,21.0086955 C29.2871061,21.8242005 29.1899542,22.3006688 29.0333267,22.6937818 L28.9500802,22.8845758 C28.920695,22.9466475 28.8896812,23.0075875 28.8570623,23.0685795 C28.547183,23.6480033 28.0924478,24.1027386 27.5130239,24.4126179 C27.4520319,24.4452367 27.3910919,24.4762505 27.3290202,24.5056358 L27.1382263,24.5888823 C26.7451133,24.7455097 26.268645,24.8426617 25.4531399,24.8752574 L25.0159507,24.886152 L24.896992,24.887178 L24.896992,24.887178 L7.22331636,24.8875204 L6.98131246,24.886152 L6.54412317,24.8752574 C5.72861814,24.8426617 5.25214986,24.7455097 4.85903682,24.5888823 L4.66824287,24.5056358 C4.60617117,24.4762505 4.54523118,24.4452367 4.48423919,24.4126179 C3.90481533,24.1027386 3.45008008,23.6480033 3.14020081,23.0685795 C3.10758194,23.0075875 3.07656812,22.9466475 3.04718287,22.8845758 L2.96393638,22.6937818 C2.80730894,22.3006688 2.71015698,21.8242005 2.6775613,21.0086955 L2.66666667,20.5715062 L2.66666667,11.4257569 L2.6775613,10.9885676 C2.71015698,10.1730626 2.80730894,9.6965943 2.96393638,9.30348127 L3.04718287,9.11268731 C3.07656812,9.05061561 3.10758194,8.98967562 3.14020081,8.92868364 C3.45008008,8.34925977 3.90481533,7.89452453 4.48423919,7.58464525 C4.54523118,7.55202638 4.60617117,7.52101256 4.66824287,7.49162732 L4.85903682,7.40838083 C5.25214986,7.25175339 5.72861814,7.15460143 6.54412317,7.12200574 L6.98131246,7.11111111 L25.0159507,7.11111111 Z M24.9851761,8.88834528 L7.01208702,8.88834528 L6.64232751,8.89519537 L6.33476973,8.90953805 C5.91524608,8.93700673 5.67299494,8.99202565 5.46105372,9.08477711 L5.32263717,9.15231316 C5.05302392,9.2965039 4.85205946,9.49746836 4.70786871,9.76708161 L4.64033266,9.90549816 C4.5475812,10.1174394 4.49256229,10.3596905 4.4650936,10.7792142 L4.45075092,11.086772 L4.44390083,11.4565315 L4.44390083,20.5407316 L4.45075092,20.9104912 L4.4650936,21.2180489 C4.49256229,21.6375726 4.5475812,21.8798237 4.64033266,22.0917649 L4.70786871,22.2301815 C4.85205946,22.4997948 5.05302392,22.7007592 5.32263717,22.84495 L5.46105372,22.912486 C5.67299494,23.0052375 5.91524608,23.0602564 6.33476973,23.0877251 L6.64232751,23.1020677 L7.01208702,23.1089178 L24.9851761,23.1089178 L25.3549356,23.1020677 L25.6624934,23.0877251 C26.082017,23.0602564 26.3242682,23.0052375 26.5362094,22.912486 L26.6746259,22.84495 C26.9442392,22.7007592 27.1452037,22.4997948 27.2893944,22.2301815 L27.3569304,22.0917649 C27.4496819,21.8798237 27.5047008,21.6375726 27.5321695,21.2180489 L27.5465122,20.9104912 L27.5533623,20.5407316 L27.5533623,11.4565315 L27.5465122,11.086772 L27.5321695,10.7792142 C27.5047008,10.3596905 27.4496819,10.1174394 27.3569304,9.90549816 L27.2893944,9.76708161 C27.1452037,9.49746836 26.9442392,9.2965039 26.6746259,9.15231316 L26.5362094,9.08477711 C26.3242682,8.99202565 26.082017,8.93700673 25.6624934,8.90953805 L25.3549356,8.89519537 L24.9851761,8.88834528 Z M13.3612442,12.7157517 C13.4221353,12.6091923 13.5578808,12.5721708 13.6644402,12.6330619 L13.6644402,12.6330619 L19.216537,15.8056886 C19.2509884,15.8253751 19.2795403,15.8539271 19.2992268,15.8883785 C19.3601179,15.9949379 19.3230964,16.1306834 19.216537,16.1915745 L19.216537,16.1915745 L13.6644402,19.3642012 C13.6308629,19.3833882 13.5928598,19.3934805 13.5541871,19.3934805 C13.4314572,19.3934805 13.3319649,19.2939882 13.3319649,19.1712583 L13.3319649,19.1712583 L13.3319649,12.8260048 C13.3319649,12.7873322 13.3420572,12.749329 13.3612442,12.7157517 Z" id="Combined-Shape" fill="#1098AD" fill-rule="nonzero"></path>
            </g>
        </g>
    </g>
</svg>