<?xml version="1.0" encoding="UTF-8"?>
<svg width="32px" height="32px" viewBox="0 0 32 32" version="1.1" xmlns="http://www.w3.org/2000/svg" xmlns:xlink="http://www.w3.org/1999/xlink">
    <title>Group 11</title>
    <g id="Page-1" stroke="none" stroke-width="1" fill="none" fill-rule="evenodd">
        <g id="Artboard" transform="translate(-363.000000, -1353.000000)">
            <g id="Group-11" transform="translate(363.000000, 1353.000000)">
                <rect id="Rectangle" stroke="#979797" stroke-width="0.888888889" fill="#D8D8D8" opacity="0" x="0" y="0" width="32" height="32"></rect>
                <path d="M16,4 C20.0166164,4 23.2727273,7.19796607 23.2727273,11.1428571 C23.2727273,13.3248064 22.2765917,15.2782504 20.7066047,16.5884457 C23.7115241,17.0877794 26,19.6564109 26,22.75 L26,22.75 L26,26.3214286 C26,27.8007627 24.7789584,29 23.2727273,29 L23.2727273,29 L8.72727273,29 C7.22104159,29 6,27.8007627 6,26.3214286 L6,26.3214286 L6,22.75 C6,19.6564109 8.28847594,17.0877794 11.2934637,16.5879987 C9.72340831,15.2782504 8.72727273,13.3248064 8.72727273,11.1428571 C8.72727273,7.19796607 11.9833836,4 16,4 Z M19.6363636,18.2857143 L12.3636364,18.2857143 C9.85325114,18.2857143 7.81818182,20.2844431 7.81818182,22.75 L7.81818182,22.75 L7.81818182,26.3214286 C7.81818182,26.81454 8.22519568,27.2142857 8.72727273,27.2142857 L8.72727273,27.2142857 L23.2727273,27.2142857 C23.7748043,27.2142857 24.1818182,26.81454 24.1818182,26.3214286 L24.1818182,26.3214286 L24.1818182,22.75 C24.1818182,20.2844431 22.1467489,18.2857143 19.6363636,18.2857143 L19.6363636,18.2857143 Z M16,5.78571429 C12.9875377,5.78571429 10.5454545,8.18418884 10.5454545,11.1428571 C10.5454545,14.1015254 12.9875377,16.5 16,16.5 C19.0124623,16.5 21.4545455,14.1015254 21.4545455,11.1428571 C21.4545455,8.18418884 19.0124623,5.78571429 16,5.78571429 Z" id="Combined-Shape" fill="#1098AD" fill-rule="nonzero"></path>
            </g>
        </g>
    </g>
</svg>