<?xml version="1.0" encoding="UTF-8"?>
<svg width="29px" height="29px" viewBox="0 0 29 29" version="1.1" xmlns="http://www.w3.org/2000/svg" xmlns:xlink="http://www.w3.org/1999/xlink">
    <title>Group 2</title>
    <g id="Page-1" stroke="none" stroke-width="1" fill="none" fill-rule="evenodd" opacity="0.604027158">
        <g id="Artboard" transform="translate(-72.000000, -5235.000000)" fill="#66D9E8">
            <g id="Group-2" transform="translate(72.000000, 5235.000000)">
                <path d="M14.19174,12.19302 C13.14114,12.19302 12.28614,13.04802 12.28614,14.09862 C12.28614,15.14982 13.14114,16.00422 14.19174,16.00422 C15.24234,16.00422 16.09734,15.14982 16.09734,14.09862 C16.09734,13.04802 15.24234,12.19302 14.19174,12.19302 M14.19174,17.40102 C12.37074,17.40102 10.88994,15.91962 10.88994,14.09862 C10.88994,12.27822 12.37074,10.79682 14.19174,10.79682 C16.01274,10.79682 17.49414,12.27822 17.49414,14.09862 C17.49414,15.91962 16.01274,17.40102 14.19174,17.40102" id="Fill-8"></path>
                <path d="M26.8656,17.1114 C26.8656,17.3748 26.724,17.6208 26.4954,17.7522 L21.6672,20.5398 L21.6672,11.0868 C21.6672,10.2798 21.237,9.534 20.5386,9.1308 L12.3522,4.4046 L17.1798,1.6176 C17.292,1.5522 17.4204,1.518 17.55,1.518 C17.6796,1.518 17.808,1.5522 17.9202,1.6176 L26.4954,6.5682 C26.724,6.6996 26.8656,6.9462 26.8656,7.209 L26.8656,17.1114 Z M11.2038,26.5812 C11.0916,26.6466 10.9638,26.6802 10.8336,26.6802 C10.704,26.6802 10.5762,26.6466 10.464,26.5812 L1.8882,21.63 C1.6602,21.4986 1.518,21.2526 1.518,20.9892 L1.518,11.0874 C1.518,10.824 1.6602,10.5774 1.8882,10.4466 L6.7164,7.6584 L6.7164,17.1108 C6.7164,17.9178 7.1466,18.663 7.8456,19.0668 L16.0326,23.7936 L11.2038,26.5812 Z M20.1492,20.9886 C20.1492,21.2394 20.0184,21.4764 19.8066,21.6114 L17.8944,22.716 C17.7876,22.7724 17.6682,22.8012 17.5482,22.8012 C17.4192,22.8012 17.2914,22.7676 17.1798,22.7028 L8.6046,17.7516 C8.376,17.6202 8.2344,17.3742 8.2344,17.1108 L8.2344,7.209 C8.2344,6.9582 8.3658,6.7212 8.577,6.5856 L10.4898,5.4816 C10.596,5.4252 10.7154,5.3964 10.8354,5.3964 C10.965,5.3964 11.0922,5.43 11.2038,5.4948 L19.779,10.446 C20.0076,10.5774 20.1492,10.8234 20.1492,11.0868 L20.1492,20.9886 Z M27.2544,5.2536 L18.6792,0.3024 C18.33,0.1008 17.94,-2.13162821e-15 17.55,-2.13162821e-15 C17.16,-2.13162821e-15 16.77,0.1008 16.4208,0.3024 L1.1292,9.1314 C0.4302,9.5346 8.52651283e-15,10.2804 8.52651283e-15,11.0874 L8.52651283e-15,20.9892 C8.52651283e-15,21.7962 0.4302,22.5414 1.1292,22.9452 L9.7044,27.8964 C10.0536,28.098 10.4436,28.1988 10.8336,28.1988 C11.2236,28.1988 11.6136,28.098 11.9628,27.8964 L27.2544,19.0674 C27.9534,18.6636 28.3836,17.9184 28.3836,17.1114 L28.3836,7.209 C28.3836,6.402 27.9534,5.6568 27.2544,5.2536 L27.2544,5.2536 Z" id="Fill-26"></path>
            </g>
        </g>
    </g>
</svg>