<?xml version="1.0" encoding="UTF-8"?>
<svg width="196px" height="196px" viewBox="0 0 196 196" version="1.1" xmlns="http://www.w3.org/2000/svg" xmlns:xlink="http://www.w3.org/1999/xlink">
    <title>IconSVG</title>
    <g id="IconSVG" stroke="none" stroke-width="1" fill="none" fill-rule="evenodd">
        <polygon id="bg" fill="#343A40" points="0 183.75 12.25 183.75 12.25 196 183.75 196 183.75 183.75 196 183.75 196 12.25 183.75 12.25 183.75 0 12.25 0 12.25 12.25 0 12.25"></polygon>
        <path d="M147,122.5 L147,134.75 L49,134.75 L49,122.5 L49,122.5 L147,122.5 L147,122.5 Z M49,110.25 L49,122.5 L36.75,122.5 L36.75,110.25 L49,110.25 Z M159.25,110.25 L159.25,122.5 L147,122.5 L147,110.25 L159.25,110.25 Z M85.75,61.25 L85.75,98 L73.5,98 L73.5,61.25 L85.75,61.25 Z M122.5,61.25 L122.5,98 L110.25,98 L110.25,61.25 L122.5,61.25 Z" id="parts" fill="#F8F9FA"></path>
    </g>
</svg>