<?xml version="1.0" encoding="UTF-8"?>
<svg width="16px" height="16px" viewBox="0 0 16 16" version="1.1" xmlns="http://www.w3.org/2000/svg" xmlns:xlink="http://www.w3.org/1999/xlink">
    <title>arrow-down</title>
    <g id="arrow-down" stroke="none" stroke-width="1" fill="none" fill-rule="evenodd" opacity="0.502371652">
        <path d="M12.9457984,5.2907927 C12.5557609,4.9030691 11.9258358,4.9030691 11.5357984,5.2907927 L7.94579835,8.83079271 L4.40579833,5.2907927 C4.01576088,4.9030691 3.38583578,4.9030691 2.99579833,5.2907927 C2.80648567,5.4785593 2.7,5.73415516 2.7,6.0007927 C2.7,6.26743024 2.80648567,6.5230261 2.99579833,6.7107927 L7.23579834,10.9507927 C7.42356494,11.1401054 7.67916081,11.246591 7.94579835,11.246591 C8.21243588,11.246591 8.46803175,11.1401054 8.65579835,10.9507927 L12.9457984,6.7107927 C13.135111,6.5230261 13.2415967,6.26743024 13.2415967,6.0007927 C13.2415967,5.73415516 13.135111,5.4785593 12.9457984,5.2907927 L12.9457984,5.2907927 Z" id="_New/2.-Icons/angle-down" fill="#A5D8FF"></path>
    </g>
</svg>