<?xml version="1.0" encoding="UTF-8"?>
<svg width="48px" height="48px" viewBox="0 0 48 48" version="1.1" xmlns="http://www.w3.org/2000/svg" xmlns:xlink="http://www.w3.org/1999/xlink">
    <title>autoinstall</title>
    <g id="Page-1" stroke="none" stroke-width="1" fill="none" fill-rule="evenodd">
        <g id="Artboard" transform="translate(-181.000000, -2716.000000)">
            <g id="autoinstall" transform="translate(181.000000, 2716.000000)">
                <path d="M21.5631692,1.08303591 L3.5631692,9.08303591 C1.39640113,10.0460439 -1.17855838e-15,12.1947729 0,14.5659052 L0,33.4340948 C-3.26233372e-15,35.8052271 1.39640113,37.9539561 3.5631692,38.9169641 L21.5631692,46.9169641 C23.1145613,47.6064717 24.8854387,47.6064717 26.4368308,46.9169641 L44.4368308,38.9169641 C46.6035989,37.9539561 48,35.8052271 48,33.4340948 L48,14.5659052 C48,12.1947729 46.6035989,10.0460439 44.4368308,9.08303591 L26.4368308,1.08303591 C24.8854387,0.393528298 23.1145613,0.393528298 21.5631692,1.08303591 Z" id="Path-5" fill="#96F2D7"></path>
                <path d="M20.213757,18.5522432 C20.8295575,18.3469764 21.4953232,18.3469764 22.1111236,18.5522432 L22.1111236,18.5522432 L31.5186541,21.6880868 C32.8285124,22.1247062 33.5364124,23.5405061 33.099793,24.8503644 C32.8509555,25.5968769 32.2651666,26.1826657 31.5188545,26.4314364 L31.5188545,26.4314364 L30.7062365,26.702229 L33.7234371,29.7166493 C34.8531681,30.8463802 34.8935156,32.6529673 33.8444797,33.8310452 L33.8444797,33.8310452 L33.7234371,33.9592899 C32.5518642,35.1308628 30.6523693,35.1308628 29.4809786,33.9594721 L29.4809786,33.9594721 L26.46501,30.9448697 L26.1956504,31.754507 C25.7772235,33.0097878 24.4595144,33.7122285 23.1975783,33.3843014 L23.1975783,33.3843014 L23.0333728,33.3356458 C22.2868603,33.0868083 21.7010714,32.5010195 21.4522339,31.754507 L21.4522339,31.754507 L18.3163904,22.3469764 C17.7924471,20.7751465 18.6419271,19.0761866 20.213757,18.5522432 Z M21.4786681,20.4496098 C21.2734013,20.3811876 21.0514794,20.3811876 20.8462126,20.4496098 C20.3222692,20.6242576 20.0391093,21.1905776 20.213757,21.7145209 L20.213757,21.7145209 L23.3496005,31.1220514 C23.399368,31.2713539 23.5165258,31.3885117 23.6658283,31.4382792 C23.9278,31.5256031 24.21096,31.3840231 24.2982838,31.1220514 L24.2982838,31.1220514 L25.5910261,27.2424586 L30.89501,32.5450764 C31.2855343,32.9356007 31.9186993,32.9356007 32.3092236,32.5450764 C32.6997479,32.1545521 32.6997479,31.5213871 32.3092236,31.1308628 L32.3092236,31.1308628 L27.0052396,25.828245 L30.8861986,24.5341366 C31.0355011,24.4843692 31.1526589,24.3672114 31.2024264,24.2179089 C31.2897503,23.9559372 31.1481703,23.6727772 30.8861986,23.5854534 L30.8861986,23.5854534 Z M16,19 C16.5522847,19 17,19.4477153 17,20 C17,20.5128358 16.6139598,20.9355072 16.1166211,20.9932723 L16,21 L14,21 C13.4477153,21 13,20.5522847 13,20 C13,19.4871642 13.3860402,19.0644928 13.8833789,19.0067277 L14,19 L16,19 Z M15.6128994,14.2097046 L15.7071068,14.2928932 L17.7071068,16.2928932 C18.0976311,16.6834175 18.0976311,17.3165825 17.7071068,17.7071068 C17.3466228,18.0675907 16.7793918,18.0953203 16.3871006,17.7902954 L16.2928932,17.7071068 L14.2928932,15.7071068 C13.9023689,15.3165825 13.9023689,14.6834175 14.2928932,14.2928932 C14.6533772,13.9324093 15.2206082,13.9046797 15.6128994,14.2097046 Z M20,13 C20.5128358,13 20.9355072,13.3860402 20.9932723,13.8833789 L21,14 L21,16 C21,16.5522847 20.5522847,17 20,17 C19.4871642,17 19.0644928,16.6139598 19.0067277,16.1166211 L19,16 L19,14 C19,13.4477153 19.4477153,13 20,13 Z" id="Combined-Shape" fill="#0BA678" fill-rule="nonzero"></path>
            </g>
        </g>
    </g>
</svg>