<?xml version="1.0" encoding="UTF-8"?>
<svg width="66px" height="60px" viewBox="0 0 66 60" version="1.1" xmlns="http://www.w3.org/2000/svg" xmlns:xlink="http://www.w3.org/1999/xlink">
    <title>Combined Shape</title>
    <g id="Diseños" stroke="none" stroke-width="1" fill="none" fill-rule="evenodd">
        <g id="Artboard" transform="translate(-247.000000, -696.000000)" fill="#FFFFFF" fill-rule="nonzero">
            <g id="Group-5" transform="translate(210.000000, 580.000000)">
                <path d="M88,116 C89.6568542,116 91,117.343146 91,119 L91,119 L91.0007475,122.075863 C99.3224653,122.539333 103,125.265035 103,134 C103,143.187908 97.4937203,148.341684 89.5852635,148.941 C88.1074645,152.445459 85.5313787,155.451722 82.1497206,157.447795 C79.1376728,159.225701 76.0825283,160.344721 73.0003538,160.785637 L73,170 L82,170 C83.6568542,170 85,171.343146 85,173 C85,174.538508 83.8418794,175.806521 82.3498634,175.979817 L82,176 L58,176 C56.3431458,176 55,174.656854 55,173 C55,171.461492 56.1581206,170.193479 57.6501366,170.020183 L58,170 L67,170 L67.00064,160.785779 C64.0813049,160.368297 61.1862169,159.34247 58.3290268,157.724628 L57.8502466,157.447776 C54.4685963,155.451695 51.8925211,152.44543 50.4141827,148.940697 C42.5062797,148.341684 37,143.187908 37,134 C37,125.264687 40.6778276,122.539115 49.0002467,122.075808 L49,119 C49,117.343146 50.3431458,116 52,116 L52,116 Z M85,122 L55,122 L55,141.946738 C55,145.969181 57.0137543,149.70794 60.3346923,151.925474 L60.3346923,151.925474 L60.9001643,152.280765 C63.9965286,154.108444 67.0173876,155 70,155 C72.982605,155 76.0034563,154.108449 79.0998125,152.280779 C82.7562667,150.122503 85,146.192669 85,141.946752 L85,141.946752 L85,122 Z M49,128.065 L48.4567364,128.094659 C44.6319985,128.366007 43.3637913,129.326732 43.0719711,132.274753 L43.0169538,133.089736 C43.0053049,133.376993 43,133.680129 43,134 C43,139.021428 45.1893029,141.806822 49.0155878,142.689024 L49.0038725,142.320814 L49.0038725,142.320814 L49,141.946738 L49,128.065 Z M91,128.065 L91,141.946756 C91,142.194842 90.9948933,142.442208 90.9847536,142.688726 C94.8106971,141.806822 97,139.021428 97,134 C97,133.680129 96.9946951,133.376993 96.9830462,133.089736 L96.9830462,133.089736 L96.9280289,132.274753 C96.6362087,129.326732 95.3680015,128.366007 91.5432636,128.094659 L91.5432636,128.094659 L91,128.065 Z" id="Combined-Shape"></path>
            </g>
        </g>
    </g>
</svg>