<?xml version="1.0" encoding="UTF-8"?>
<svg width="32px" height="32px" viewBox="0 0 32 32" version="1.1" xmlns="http://www.w3.org/2000/svg" xmlns:xlink="http://www.w3.org/1999/xlink">
    <title>Group 12</title>
    <g id="Page-1" stroke="none" stroke-width="1" fill="none" fill-rule="evenodd">
        <g id="Artboard" transform="translate(-298.000000, -1610.000000)">
            <g id="Group-12" transform="translate(298.000000, 1610.000000)">
                <rect id="Rectangle" stroke="#979797" stroke-width="0.888888889" fill="#D8D8D8" opacity="0" x="0" y="0" width="32" height="32"></rect>
                <path d="M16.613716,8.8935709 C13.9623776,8.98388545 11.570719,10.3748764 10.1661181,12.5512391 L10.1395556,12.5928889 L10.054526,12.5723913 C9.67511824,12.4877447 9.28476994,12.4444444 8.88888889,12.4444444 C5.94337022,12.4444444 3.55555556,14.8322591 3.55555556,17.7777778 C3.55555556,19.4768533 4.3565775,21.0444533 5.68923994,22.0450338 C5.84316987,22.1606064 6.03045634,22.2230891 6.22294387,22.2230891 L26.3508814,22.2230891 C26.5673965,22.2230891 26.7764674,22.1440463 26.9388487,22.0008293 C27.8888479,21.1629496 28.4444444,19.9586996 28.4444444,18.6666667 L28.4403382,18.4738759 C28.3475786,16.3004867 26.6939695,14.5312871 24.571912,14.258678 L24.44,14.2444444 L24.4293121,14.2099608 C23.3139107,11.065212 20.3187395,8.88888889 16.8888889,8.88888889 L16.613716,8.8935709 Z M16.8888889,10.6666667 C19.7469756,10.6666667 22.2177227,12.6103197 22.9168644,15.3394049 C23.0238088,15.7568605 23.4147857,16.0374759 23.8445122,16.0052045 L23.8891079,16.0018554 L24.0217896,15.9997329 C25.4727593,16 26.6666667,17.1939073 26.6666667,18.6666667 L26.6608076,18.8447708 C26.621889,19.4346621 26.3905086,19.9842196 26.0092861,20.4201793 L25.9857778,20.4444444 L6.53866667,20.4444444 L6.43993232,20.3557236 C5.74157467,19.6927826 5.33333333,18.7698458 5.33333333,17.7777778 C5.33333333,15.8140987 6.92520978,14.2222222 8.88888889,14.2222222 C9.3522731,14.2222222 9.80191237,14.3104452 10.2209477,14.4799047 C10.647929,14.6525777 11.136083,14.4705048 11.345696,14.0603934 C12.4017607,11.9941846 14.5266265,10.6666667 16.8888889,10.6666667 Z" id="Combined-Shape" fill="#1098AD" fill-rule="nonzero"></path>
            </g>
        </g>
    </g>
</svg>