<?xml version="1.0" encoding="UTF-8"?>
<svg width="32px" height="32px" viewBox="0 0 32 32" version="1.1" xmlns="http://www.w3.org/2000/svg" xmlns:xlink="http://www.w3.org/1999/xlink">
    <title>Group 11</title>
    <g id="Page-1" stroke="none" stroke-width="1" fill="none" fill-rule="evenodd">
        <g id="Artboard" transform="translate(-623.000000, -1353.000000)">
            <g id="Group-11" transform="translate(623.000000, 1353.000000)">
                <rect id="Rectangle" stroke="#979797" stroke-width="0.888888889" fill="#D8D8D8" opacity="0" x="0" y="0" width="32" height="32"></rect>
                <path d="M16.4786797,22.5355339 C15.5409978,23.4732158 14.2692282,24 12.9431458,24 L12.9431458,24 L9.6,24 C8.4954305,24 7.6,23.1045695 7.6,22 L7.6,22 L7.6,18.6568542 C7.6,17.3307718 8.1267842,16.0590022 9.06446609,15.1213203 L9.06446609,15.1213203 L17.4786797,6.70710678 C18.6502525,5.53553391 20.5497475,5.53553391 21.7213203,6.70710678 L21.7213203,6.70710678 L24.8928932,9.87867966 C26.0644661,11.0502525 26.0644661,12.9497475 24.8928932,14.1213203 L24.8928932,14.1213203 L23.3137795,15.7003718 C23.3115681,15.7026247 23.3093438,15.7048697 23.3071068,15.7071068 Z M16.599,10.4134271 L10.4786797,16.5355339 C9.91607052,17.098143 9.6,17.8612048 9.6,18.6568542 L9.6,18.6568542 L9.6,22 L12.9431458,22 C13.7387952,22 14.501857,21.6839295 15.0644661,21.1213203 L15.0644661,21.1213203 L21.185,14.9994271 L16.599,10.4134271 Z M20.3071068,8.12132034 C19.9165825,7.73079605 19.2834175,7.73079605 18.8928932,8.12132034 L18.8928932,8.12132034 L18.014,8.99942712 L22.6,13.5854271 L23.4786797,12.7071068 C23.8391636,12.3466228 23.8668932,11.7793918 23.5618683,11.3871006 L23.4786797,11.2928932 Z" id="Combined-Shape" fill="#1098AD" fill-rule="nonzero"></path>
            </g>
        </g>
    </g>
</svg>