<?xml version="1.0" encoding="UTF-8"?>
<svg width="32px" height="32px" viewBox="0 0 32 32" version="1.1" xmlns="http://www.w3.org/2000/svg" xmlns:xlink="http://www.w3.org/1999/xlink">
    <title>Group 11</title>
    <g id="Page-1" stroke="none" stroke-width="1" fill="none" fill-rule="evenodd">
        <g id="Artboard" transform="translate(-298.000000, -1353.000000)">
            <g id="Group-11" transform="translate(298.000000, 1353.000000)">
                <rect id="Rectangle" stroke="#979797" stroke-width="0.888888889" fill="#D8D8D8" opacity="0" x="0" y="0" width="32" height="32"></rect>
                <path d="M8.75184693,8.88888889 L19.9283376,8.89050422 C20.9926959,8.9057255 21.5685364,9.0305379 22.1661044,9.35012076 C22.7555776,9.66537449 23.2235144,10.1333113 23.5387681,10.7227845 C23.8511004,11.306795 23.9773997,11.8700527 23.9971784,12.8888559 L27.1580324,11.3098727 C27.5971244,11.0903267 28.1310559,11.2683039 28.3506019,11.7073959 C28.4123155,11.830823 28.4444444,11.9669235 28.4444444,12.1049191 L28.4444444,19.8950809 C28.4444444,20.3860007 28.0464753,20.7839698 27.5555556,20.7839698 C27.4175599,20.7839698 27.2814594,20.7518408 27.1580324,20.6901273 L23.9971784,19.1111441 C23.9773997,20.1299473 23.8511004,20.693205 23.5387681,21.2772155 C23.2235144,21.8666887 22.7555776,22.3346255 22.1661044,22.6498792 C21.5258529,22.9922894 20.9105439,23.1111111 19.6925975,23.1111111 L19.6925975,23.1111111 L8.75184693,23.1111111 C7.53390058,23.1111111 6.9185915,22.9922894 6.27834008,22.6498792 C5.68886687,22.3346255 5.22093004,21.8666887 4.90567632,21.2772155 C4.56326611,20.6369641 4.44444444,20.021655 4.44444444,18.8037086 L4.44444444,18.8037086 L4.44605978,12.9605513 C4.46128106,11.896193 4.58609346,11.3203525 4.90567632,10.7227845 C5.22093004,10.1333113 5.68886687,9.66537449 6.27834008,9.35012076 C6.9185915,9.00771055 7.53390058,8.88888889 8.75184693,8.88888889 L8.75184693,8.88888889 Z M19.6925975,10.6666667 L8.5575024,10.667686 C7.75394108,10.6766076 7.43941014,10.7452217 7.11673805,10.9177887 C6.83707546,11.0673539 6.62290942,11.2815199 6.47334423,11.5611825 C6.28750292,11.9086755 6.22222222,12.2467267 6.22222222,13.1962914 L6.22222222,13.1962914 L6.22222222,18.8037086 L6.22638017,19.1750357 C6.24333427,19.850052 6.31405168,20.1409663 6.47334423,20.4388175 C6.62290942,20.7184801 6.83707546,20.9326461 7.11673805,21.0822113 C7.41458921,21.2415039 7.70550353,21.3122213 8.38051989,21.3291754 L8.38051989,21.3291754 L8.75184693,21.3333333 L19.6925975,21.3333333 L20.0639246,21.3291754 C20.7389409,21.3122213 21.0298552,21.2415039 21.3277064,21.0822113 C21.607369,20.9326461 21.821535,20.7184801 21.9711002,20.4388175 C22.1303928,20.1409663 22.2011102,19.850052 22.2180643,19.1750357 L22.2180643,19.1750357 L22.2222222,18.8037086 L22.2222222,13.1962914 L22.2180643,12.8249643 C22.2011102,12.149948 22.1303928,11.8590337 21.9711002,11.5611825 C21.821535,11.2815199 21.607369,11.0673539 21.3277064,10.9177887 C20.9802134,10.7319474 20.6421622,10.6666667 19.6925975,10.6666667 L19.6925975,10.6666667 Z M14.2222222,12.4444444 C14.713142,12.4444444 15.1111111,12.8424136 15.1111111,13.3333333 C15.1111111,13.7891874 14.7679643,14.1648953 14.3258854,14.216242 L14.2222222,14.2222222 L8.88888889,14.2222222 C8.39796911,14.2222222 8,13.8242531 8,13.3333333 C8,12.8774793 8.34314684,12.5017714 8.78522567,12.4504247 L8.88888889,12.4444444 L14.2222222,12.4444444 Z" id="Combined-Shape" fill="#1098AD" fill-rule="nonzero"></path>
            </g>
        </g>
    </g>
</svg>