<?xml version="1.0" encoding="UTF-8"?>
<svg width="13px" height="12px" viewBox="0 0 13 12" version="1.1" xmlns="http://www.w3.org/2000/svg" xmlns:xlink="http://www.w3.org/1999/xlink">
    <title>Combined Shape</title>
    <g id="Page-1" stroke="none" stroke-width="1" fill="none" fill-rule="evenodd">
        <g id="Artboard" transform="translate(-1171.000000, -5319.000000)" fill="#99E9F2" fill-rule="nonzero">
            <path d="M1182,5319 C1183.10457,5319 1184,5319.89543 1184,5321 L1184,5326 C1184,5327.10457 1183.10457,5328 1182,5328 L1178,5328 L1175.85355,5330.14645 C1175.65829,5330.34171 1175.34171,5330.34171 1175.14645,5330.14645 C1175.05268,5330.05268 1175,5329.9255 1175,5329.79289 L1175,5328 L1173,5328 C1171.89543,5328 1171,5327.10457 1171,5326 L1171,5321 C1171,5319.89543 1171.89543,5319 1173,5319 L1182,5319 Z M1182,5320 L1173,5320 C1172.48716,5320 1172.06449,5320.38604 1172.00673,5320.88338 L1172,5321 L1172,5326 C1172,5326.51284 1172.38604,5326.93551 1172.88338,5326.99327 L1173,5327 L1175,5327 C1175.51284,5327 1175.93551,5327.38604 1175.99327,5327.88338 L1176,5328 L1176,5328.584 L1177.29289,5327.29289 C1177.44917,5327.13661 1177.65185,5327.0374 1177.86856,5327.00867 L1178,5327 L1182,5327 C1182.51284,5327 1182.93551,5326.61396 1182.99327,5326.11662 L1183,5326 L1183,5321 C1183,5320.48716 1182.61396,5320.06449 1182.11662,5320.00673 L1182,5320 Z" id="Combined-Shape"></path>
        </g>
    </g>
</svg>