<?xml version="1.0" encoding="UTF-8"?>
<svg width="48px" height="48px" viewBox="0 0 48 48" version="1.1" xmlns="http://www.w3.org/2000/svg" xmlns:xlink="http://www.w3.org/1999/xlink">
    <title>mobile</title>
    <g id="Page-1" stroke="none" stroke-width="1" fill="none" fill-rule="evenodd">
        <g id="Artboard" transform="translate(-915.000000, -2716.000000)">
            <g id="mobile" transform="translate(915.000000, 2716.000000)">
                <path d="M21.5631692,1.08303591 L3.5631692,9.08303591 C1.39640113,10.0460439 -1.17855838e-15,12.1947729 0,14.5659052 L0,33.4340948 C-3.26233372e-15,35.8052271 1.39640113,37.9539561 3.5631692,38.9169641 L21.5631692,46.9169641 C23.1145613,47.6064717 24.8854387,47.6064717 26.4368308,46.9169641 L44.4368308,38.9169641 C46.6035989,37.9539561 48,35.8052271 48,33.4340948 L48,14.5659052 C48,12.1947729 46.6035989,10.0460439 44.4368308,9.08303591 L26.4368308,1.08303591 C24.8854387,0.393528298 23.1145613,0.393528298 21.5631692,1.08303591 Z" id="Path-5" fill="#96F2D7"></path>
                <path d="M27.1541722,14 C28.3242905,14 28.8418294,14.1066044 29.2804483,14.3084137 L29.4652686,14.4006991 C29.9541574,14.6621597 30.3378403,15.0458426 30.5993009,15.5347314 L30.6915863,15.7195517 C30.8933956,16.1581706 31,16.6757095 31,17.8458278 L31,30.1541722 C31,31.3242905 30.8933956,31.8418294 30.6915863,32.2804483 L30.5993009,32.4652686 C30.3378403,32.9541574 29.9541574,33.3378403 29.4652686,33.5993009 L29.2804483,33.6915863 C28.8418294,33.8933956 28.3242905,34 27.1541722,34 L20.8458278,34 C19.6757095,34 19.1581706,33.8933956 18.7195517,33.6915863 L18.5347314,33.5993009 C18.0458426,33.3378403 17.6621597,32.9541574 17.4006991,32.4652686 L17.3084137,32.2804483 C17.1210194,31.8731593 17.0157149,31.397822 17.0016275,30.3951324 L17,17.8458278 C17,16.6757095 17.1066044,16.1581706 17.3084137,15.7195517 L17.4006991,15.5347314 C17.6621597,15.0458426 18.0458426,14.6621597 18.5347314,14.4006991 L18.7195517,14.3084137 C19.1581706,14.1066044 19.6757095,14 20.8458278,14 L27.1541722,14 Z M21,16 L20.6596176,16.0006756 L20.3447575,16.0063061 L20.0965158,16.018143 C19.8775316,16.0332834 19.7402427,16.0586347 19.6299525,16.0969012 L19.5266361,16.139573 C19.5102413,16.1474358 19.4940901,16.1556825 19.4779292,16.1643255 C19.3375772,16.2393865 19.2393865,16.3375772 19.1643255,16.4779292 L19.139573,16.5266361 L19.0969012,16.6299525 C19.0650125,16.721861 19.0420926,16.8325186 19.0265766,16.9935784 L19.0114112,17.213069 L19.0027526,17.4931006 L19,17.8458278 L19.0006756,30.3403824 L19.0063061,30.6552425 L19.018143,30.9034842 C19.0332834,31.1224684 19.0586347,31.2597573 19.0969012,31.3700475 L19.139573,31.4733639 C19.1474358,31.4897587 19.1556825,31.5059099 19.1643255,31.5220708 C19.2393865,31.6624228 19.3375772,31.7606135 19.4779292,31.8356745 L19.5266361,31.860427 L19.6299525,31.9030988 C19.721861,31.9349875 19.8325186,31.9579074 19.9935784,31.9734234 L20.213069,31.9885888 L20.4931006,31.9972474 L20.8458278,32 L27.3403824,31.9993244 L27.6552425,31.9936939 L27.9034842,31.981857 C28.1224684,31.9667166 28.2597573,31.9413653 28.3700475,31.9030988 L28.4733639,31.860427 C28.4897587,31.8525642 28.5059099,31.8443175 28.5220708,31.8356745 C28.6624228,31.7606135 28.7606135,31.6624228 28.8356745,31.5220708 L28.860427,31.4733639 L28.9030988,31.3700475 C28.9349875,31.278139 28.9579074,31.1674814 28.9734234,31.0064216 L28.9885888,30.786931 L28.9972474,30.5068994 L29,30.1541722 L28.9993244,17.6596176 L28.9936939,17.3447575 L28.981857,17.0965158 C28.9667166,16.8775316 28.9413653,16.7402427 28.9030988,16.6299525 L28.860427,16.5266361 C28.8525642,16.5102413 28.8443175,16.4940901 28.8356745,16.4779292 C28.7606135,16.3375772 28.6624228,16.2393865 28.5220708,16.1643255 L28.4733639,16.139573 L28.3700475,16.0969012 C28.278139,16.0650125 28.1674814,16.0420926 28.0064216,16.0265766 L27.786931,16.0114112 L27.5068994,16.0027526 L27.3403824,16.0006756 L27,16 L27,16.5 C27,17.0522847 26.5522847,17.5 26,17.5 L22,17.5 C21.4477153,17.5 21,17.0522847 21,16.5 L21,16 Z M24,29 C24.5522847,29 25,29.4477153 25,30 C25,30.5522847 24.5522847,31 24,31 C23.4477153,31 23,30.5522847 23,30 C23,29.4477153 23.4477153,29 24,29 Z" fill="#0BA678" fill-rule="nonzero"></path>
            </g>
        </g>
    </g>
</svg>