<?xml version="1.0" encoding="UTF-8"?>
<svg width="48px" height="48px" viewBox="0 0 48 48" version="1.1" xmlns="http://www.w3.org/2000/svg" xmlns:xlink="http://www.w3.org/1999/xlink">
    <title>router</title>
    <g id="Page-1" stroke="none" stroke-width="1" fill="none" fill-rule="evenodd">
        <g id="Artboard" transform="translate(-548.000000, -2716.000000)">
            <g id="router" transform="translate(548.000000, 2716.000000)">
                <path d="M21.5631692,1.08303591 L3.5631692,9.08303591 C1.39640113,10.0460439 -1.17855838e-15,12.1947729 0,14.5659052 L0,33.4340948 C-3.26233372e-15,35.8052271 1.39640113,37.9539561 3.5631692,38.9169641 L21.5631692,46.9169641 C23.1145613,47.6064717 24.8854387,47.6064717 26.4368308,46.9169641 L44.4368308,38.9169641 C46.6035989,37.9539561 48,35.8052271 48,33.4340948 L48,14.5659052 C48,12.1947729 46.6035989,10.0460439 44.4368308,9.08303591 L26.4368308,1.08303591 C24.8854387,0.393528298 23.1145613,0.393528298 21.5631692,1.08303591 Z" id="Path-5" fill="#96F2D7"></path>
                <path d="M25.5,13 C26.6045695,13 27.5,13.8954305 27.5,15 L27.5,15.999 L30,16 C30.3189839,16 30.6162287,16.1519297 30.8033903,16.404521 L30.8682431,16.5038611 L34.8682431,23.5038611 C35.2491899,24.1705178 34.7678227,25 34,25 L34,25 L27.5,24.999 L27.5,33 C27.5,34.0543618 26.6841222,34.9181651 25.6492623,34.9945143 L25.5,35 L23.5,35 C22.3954305,35 21.5,34.1045695 21.5,33 L21.5,33 L21.5006297,24.8663916 C21.4253416,24.823 21.3554053,24.7696189 21.2928932,24.7071068 C20.7994435,24.213657 20.3721294,24 20,24 C19.6278706,24 19.2005565,24.213657 18.7071068,24.7071068 C18.5195704,24.8946432 18.2652165,25 18,25 L18,25 L16,25 C15.4477153,25 15,24.5522847 15,24 L15,24 L15,17 C15,16.4477153 15.4477153,16 16,16 L16,16 L18,16 C18.2652165,16 18.5195704,16.1053568 18.7071068,16.2928932 C19.2005565,16.786343 19.6278706,17 20,17 C20.3721294,17 20.7994435,16.786343 21.2928932,16.2928932 C21.3554053,16.2303811 21.4253416,16.177 21.5006297,16.1336084 L21.5,15 C21.5,13.8954305 22.3954305,13 23.5,13 L25.5,13 Z M25.5,25 L23.5,25 L23.5,33 L25.5,33 L25.5,25 Z M17.606,17.999 L17,17.999 L17,22.999 L17.607,22.999 L17.6568605,22.9568221 C18.3314402,22.3848233 19.0458828,22.0574926 19.7948764,22.0069097 L19.7948764,22.0069097 L20,22 C20.8238891,22 21.6072343,22.3328234 22.3431395,22.9568221 L22.3431395,22.9568221 L22.392,22.999 L32.276,22.999 L29.418,17.999 L27.5,17.999 L27.5,18 L22.391,18 L22.3431395,18.0431779 C21.7360177,18.5579768 21.0966071,18.8745946 20.4287798,18.9696451 L20.2051236,18.9930903 L20,19 C19.1761109,19 18.3927657,18.6671766 17.6568605,18.0431779 L17.6568605,18.0431779 L17.606,17.999 Z M25.5,15 L23.5,15 L23.5,15.999 L25.5,15.999 L25.5,15 Z" id="Combined-Shape" fill="#0BA678" fill-rule="nonzero"></path>
            </g>
        </g>
    </g>
</svg>