<?xml version="1.0" encoding="UTF-8"?>
<svg width="48px" height="48px" viewBox="0 0 48 48" version="1.1" xmlns="http://www.w3.org/2000/svg" xmlns:xlink="http://www.w3.org/1999/xlink">
    <title>mobile</title>
    <g id="Page-1" stroke="none" stroke-width="1" fill="none" fill-rule="evenodd">
        <g id="Artboard" transform="translate(-915.000000, -2912.000000)">
            <g id="mobile" transform="translate(915.000000, 2912.000000)">
                <path d="M21.5631692,1.08303591 L3.5631692,9.08303591 C1.39640113,10.0460439 -1.17855838e-15,12.1947729 0,14.5659052 L0,33.4340948 C-3.26233372e-15,35.8052271 1.39640113,37.9539561 3.5631692,38.9169641 L21.5631692,46.9169641 C23.1145613,47.6064717 24.8854387,47.6064717 26.4368308,46.9169641 L44.4368308,38.9169641 C46.6035989,37.9539561 48,35.8052271 48,33.4340948 L48,14.5659052 C48,12.1947729 46.6035989,10.0460439 44.4368308,9.08303591 L26.4368308,1.08303591 C24.8854387,0.393528298 23.1145613,0.393528298 21.5631692,1.08303591 Z" id="Path-5" fill="#96F2D7"></path>
                <path d="M24,14 C27.2132931,14 29.8181818,16.5583729 29.8181818,19.7142857 C29.8181818,21.4598314 29.0212859,23.0225756 27.7653135,24.0707317 C30.1687583,24.4697062 32,26.5248172 32,29 L32,29 L32,31.8571429 C32,33.0406102 31.0231667,34 29.8181818,34 L29.8181818,34 L18.1818182,34 C16.9768333,34 16,33.0406102 16,31.8571429 L16,31.8571429 L16,29 C16,26.5248172 17.8312417,24.4697062 20.2356787,24.0702481 C18.9787141,23.0225756 18.1818182,21.4598314 18.1818182,19.7142857 C18.1818182,16.5583729 20.7867069,14 24,14 Z M26.9090909,25.4285714 L21.0909091,25.4285714 C19.0826009,25.4285714 17.4545455,27.0275545 17.4545455,29 L17.4545455,29 L17.4545455,31.8571429 C17.4545455,32.251632 17.7801565,32.5714286 18.1818182,32.5714286 L18.1818182,32.5714286 L29.8181818,32.5714286 C30.2198435,32.5714286 30.5454545,32.251632 30.5454545,31.8571429 L30.5454545,31.8571429 L30.5454545,29 C30.5454545,27.0275545 28.9173991,25.4285714 26.9090909,25.4285714 L26.9090909,25.4285714 Z M24,15.4285714 C21.5900302,15.4285714 19.6363636,17.3473511 19.6363636,19.7142857 C19.6363636,22.0812204 21.5900302,24 24,24 C26.4099698,24 28.3636364,22.0812204 28.3636364,19.7142857 C28.3636364,17.3473511 26.4099698,15.4285714 24,15.4285714 Z" id="Combined-Shape" stroke="#0BA678" stroke-width="0.6" fill="#0BA678" fill-rule="nonzero"></path>
            </g>
        </g>
    </g>
</svg>