<?xml version="1.0" encoding="UTF-8"?>
<svg width="72px" height="72px" viewBox="0 0 72 72" version="1.1" xmlns="http://www.w3.org/2000/svg" xmlns:xlink="http://www.w3.org/1999/xlink">
    <title>Group 19</title>
    <g id="Page-1" stroke="none" stroke-width="1" fill="none" fill-rule="evenodd">
        <g id="Artboard" transform="translate(-1051.000000, -2856.000000)">
            <g id="Group-19" transform="translate(1051.000000, 2856.000000)">
                <path d="M33.5631692,1.08303591 L3.5631692,14.4163692 C1.39640113,15.3793773 -2.90379958e-16,17.5281062 0,19.8992385 L0,52.1007615 C2.90379958e-16,54.4718938 1.39640113,56.6206227 3.5631692,57.5836308 L33.5631692,70.9169641 C35.1145613,71.6064717 36.8854387,71.6064717 38.4368308,70.9169641 L68.4368308,57.5836308 C70.6035989,56.6206227 72,54.4718938 72,52.1007615 L72,19.8992385 C72,17.5281062 70.6035989,15.3793773 68.4368308,14.4163692 L38.4368308,1.08303591 C36.8854387,0.393528298 35.1145613,0.393528298 33.5631692,1.08303591 Z" id="Path-5" fill="#E6FCF5"></path>
                <path d="M36,25 C39.6149547,25 42.5454545,27.8142101 42.5454545,31.2857143 C42.5454545,33.2062939 41.6484989,34.9256916 40.2349192,36.0786684 C42.9398414,36.516664 45,38.7772912 45,41.5 L45,41.5 L45,44.6428571 C45,45.9446712 43.9010626,47 42.5454545,47 L42.5454545,47 L29.4545455,47 C28.0989374,47 27,45.9446712 27,44.6428571 L27,44.6428571 L27,41.5 C27,38.7772912 29.0601586,36.516664 31.7651616,36.0772692 C30.3515011,34.9256916 29.4545455,33.2062939 29.4545455,31.2857143 C29.4545455,27.8142101 32.3850453,25 36,25 Z M39.2727273,37.5714286 L32.7272727,37.5714286 C30.467926,37.5714286 28.6363636,39.3303099 28.6363636,41.5 L28.6363636,41.5 L28.6363636,44.6428571 C28.6363636,45.0767952 29.0026761,45.4285714 29.4545455,45.4285714 L29.4545455,45.4285714 L42.5454545,45.4285714 C42.9973239,45.4285714 43.3636364,45.0767952 43.3636364,44.6428571 L43.3636364,44.6428571 L43.3636364,41.5 C43.3636364,39.3303099 41.532074,37.5714286 39.2727273,37.5714286 L39.2727273,37.5714286 Z M36,26.5714286 C33.288784,26.5714286 31.0909091,28.6820862 31.0909091,31.2857143 C31.0909091,33.8893424 33.288784,36 36,36 C38.711216,36 40.9090909,33.8893424 40.9090909,31.2857143 C40.9090909,28.6820862 38.711216,26.5714286 36,26.5714286 Z" id="Combined-Shape" fill="#0BA678" fill-rule="nonzero"></path>
            </g>
        </g>
    </g>
</svg>