<?xml version="1.0" encoding="UTF-8"?>
<svg width="72px" height="72px" viewBox="0 0 72 72" version="1.1" xmlns="http://www.w3.org/2000/svg" xmlns:xlink="http://www.w3.org/1999/xlink">
    <title>Group 17</title>
    <g id="Page-1" stroke="none" stroke-width="1" fill="none" fill-rule="evenodd">
        <g id="Artboard" transform="translate(-317.000000, -2856.000000)">
            <g id="Group-17" transform="translate(317.000000, 2856.000000)">
                <path d="M33.5631692,1.08303591 L3.5631692,14.4163692 C1.39640113,15.3793773 -2.90379958e-16,17.5281062 0,19.8992385 L0,52.1007615 C2.90379958e-16,54.4718938 1.39640113,56.6206227 3.5631692,57.5836308 L33.5631692,70.9169641 C35.1145613,71.6064717 36.8854387,71.6064717 38.4368308,70.9169641 L68.4368308,57.5836308 C70.6035989,56.6206227 72,54.4718938 72,52.1007615 L72,19.8992385 C72,17.5281062 70.6035989,15.3793773 68.4368308,14.4163692 L38.4368308,1.08303591 C36.8854387,0.393528298 35.1145613,0.393528298 33.5631692,1.08303591 Z" id="Path-5" fill="#E6FCF5"></path>
                <path d="M37.4571429,24 C38.3137478,24 39.0158866,24.6613481 39.0808145,25.501324 L39.0857143,25.6285998 L39.0848571,26.7257143 L39.1004033,26.7309329 C39.4254237,26.8396041 39.7440316,26.9652769 40.0550593,27.1073142 L40.374,27.2605714 L41.151778,26.484363 C41.7171084,25.9190326 42.5946621,25.8562181 43.2293755,26.2959196 L43.345403,26.3842524 L43.4549258,26.484363 L45.515637,28.5450742 C46.1163005,29.1457378 46.1496707,30.0988722 45.6158079,30.7386389 L45.5157086,30.8481504 L44.7385714,31.6251429 L44.7452174,31.6364831 C44.8980934,31.9423275 45.0348175,32.2561414 45.1547523,32.5767571 L45.2734286,32.9142857 L46.3714286,32.9142857 C47.182949,32.9142857 47.8558351,33.5078502 47.9796235,34.284516 L47.9951002,34.4155852 L48,34.5428571 L48,37.4571429 C48,38.3137478 47.3386519,39.0158866 46.4990404,39.0808144 L46.371822,39.0857142 L45.2725714,39.0857143 L45.2688373,39.1010906 C45.1601803,39.4259877 45.0345342,39.7444759 44.8925354,40.0553886 L44.7385714,40.3748571 L45.515637,41.151778 C46.0809674,41.7171084 46.1437819,42.5946621 45.7040804,43.2293755 L45.6157476,43.345403 L45.515637,43.4549258 L43.4549258,45.515637 C42.8542622,46.1163005 41.9011278,46.1496707 41.2613611,45.6158079 L41.1518496,45.5157086 L40.374,44.7385714 L40.3635169,44.7452174 C40.0576725,44.8980934 39.7438586,45.0348175 39.4232429,45.1547523 L39.0848571,45.2734286 L39.0857143,46.3714286 C39.0857143,47.182949 38.4921498,47.8558351 37.715484,47.9796235 L37.5844148,47.9951002 L37.4571429,48 L34.5428571,48 C33.6862522,48 32.9841134,47.3386519 32.9191856,46.4990404 L32.9142858,46.371822 L32.9134286,45.2725714 L32.8989094,45.2688373 C32.5740123,45.1601803 32.2555241,45.0345342 31.9446114,44.8925354 L31.6242857,44.7385714 L30.848222,45.515637 C30.2828916,46.0809674 29.4053379,46.1437819 28.7706245,45.7040804 L28.654597,45.6157476 L28.5450742,45.515637 L26.484363,43.4549258 C25.8836995,42.8542622 25.8503293,41.9011278 26.3841921,41.2613611 L26.4842914,41.1518496 L27.2605714,40.3748571 L27.2548906,40.3637329 C27.1020608,40.0580001 26.9653715,39.7443031 26.8454591,39.4238082 L26.7265714,39.0857143 L25.6285714,39.0857143 C24.817051,39.0857143 24.1441649,38.4921498 24.0203765,37.715484 L24.0048998,37.5844148 L24,37.4571429 L24,34.5428571 C24,33.6862522 24.6613481,32.9841134 25.501324,32.9191855 L25.6285998,32.9142857 L26.7257143,32.9142857 L26.7309329,32.8995967 C26.8396041,32.5745763 26.9652769,32.2559684 27.1073142,31.9449407 L27.2605714,31.6251429 L26.484363,30.848222 C25.9190326,30.2828916 25.8562181,29.4053379 26.2959196,28.7706245 L26.3842524,28.654597 L26.484363,28.5450742 L28.5450742,26.484363 C29.1457378,25.8836995 30.0988722,25.8503293 30.7386389,26.3841921 L30.8481504,26.4842914 L31.6242857,27.2605714 L31.6362671,27.2548906 C31.9419999,27.1020608 32.2556969,26.9653715 32.5761918,26.8454591 L32.9134286,26.7265714 L32.9142857,25.6285714 C32.9142857,24.817051 33.5078502,24.1441649 34.284516,24.0203765 L34.4155852,24.0048998 L34.5428571,24 L37.4571429,24 Z M37.3705714,25.7142857 L34.6277143,25.7142857 L34.6274686,28.0312386 L33.9843581,28.1968276 C33.357762,28.3581645 32.7553181,28.5944441 32.188322,28.899532 L31.9078303,29.0577816 L31.3357191,29.3958246 L29.6965714,27.756 L27.756,29.6965714 L29.3958246,31.3357191 L29.0577816,31.9078303 C28.7298121,32.4628928 28.4696768,33.0553114 28.2835161,33.6737786 L28.1966287,33.9851306 L28.0310027,34.6286509 L25.7142857,34.6285714 L25.7142857,37.3714286 L28.0312386,37.3725314 L28.1968276,38.0156419 C28.3581645,38.642238 28.5944441,39.2446819 28.899532,39.811678 L29.0577816,40.0921697 L29.3958246,40.6642809 L27.756,42.3025714 L29.6965714,44.2431429 L31.3357191,42.6041754 L31.9078303,42.9422184 C32.4626967,43.270072 33.0548935,43.5301397 33.673125,43.7162871 L33.9843581,43.8031724 L34.6274686,43.9687614 L34.6277143,46.2857143 L37.3714286,46.2857143 L37.3713491,43.9689973 L38.0148694,43.8033713 C38.6417054,43.6420393 39.2443773,43.4057094 39.8115778,43.1005219 L40.0921697,42.9422184 L40.6642809,42.6041754 L42.3025714,44.2431429 L44.2431429,42.3025714 L42.6041754,40.6642809 L42.9422184,40.0921697 C43.270072,39.5373033 43.5301397,38.9451065 43.7162871,38.326875 L43.8031724,38.0156419 L43.9687614,37.3725314 L46.2857143,37.3714286 L46.2857143,34.6277143 L43.9689973,34.6286509 L43.8033713,33.9851306 C43.6420393,33.3582946 43.4057094,32.7556227 43.1005219,32.1884222 L42.9422184,31.9078303 L42.6041754,31.3357191 L44.2431429,29.6965714 L42.3025714,27.756 L40.6642809,29.3958246 L40.0921697,29.0577816 C39.5371072,28.7298121 38.9446886,28.4696768 38.3262214,28.2835161 L38.0148694,28.1966287 L37.3713491,28.0310027 L37.3705714,25.7142857 Z M36,31.7142857 C38.3669346,31.7142857 40.2857143,33.6330654 40.2857143,36 C40.2857143,38.3669346 38.3669346,40.2857143 36,40.2857143 C33.6330654,40.2857143 31.7142857,38.3669346 31.7142857,36 C31.7142857,33.6330654 33.6330654,31.7142857 36,31.7142857 Z M36,33.4285714 C34.5798392,33.4285714 33.4285714,34.5798392 33.4285714,36 C33.4285714,37.4201608 34.5798392,38.5714286 36,38.5714286 C37.4201608,38.5714286 38.5714286,37.4201608 38.5714286,36 C38.5714286,34.5798392 37.4201608,33.4285714 36,33.4285714 Z" id="Combined-Shape" fill="#0BA678" fill-rule="nonzero"></path>
            </g>
        </g>
    </g>
</svg>